<svg width="1731" height="1576" viewBox="0 0 1731 1576" fill="none" xmlns="http://www.w3.org/2000/svg">
<path d="M426.591 413.657C435.866 396.354 447.434 378.816 464.905 369.811C493.101 355.443 535.531 351.665 573.44 419.896L1149.07 1362.58C1155.71 1373.69 1164.3 1383.5 1174.43 1391.55C1198.28 1410.07 1240.17 1425.52 1282.06 1358.5L1601.36 870.159C1612.27 853.9 1617.3 834.391 1615.59 814.88C1614.58 804.919 1611.85 795.208 1607.53 786.178L1457.74 509.274C1453.1 500.331 1446.57 492.496 1438.62 486.306C1421.22 473.186 1389.78 463.236 1345.9 503.17L1103.3 898.828C1103.3 898.828 1039.45 994.614 962.859 866.922L847.949 675.383C847.949 675.383 822.417 637.102 841.575 605.162C855.504 581.924 910.109 497.672 938.744 453.658C974.326 398.951 1033.92 363.335 1099.15 361.446C1102.29 361.446 1105.46 361.446 1108.66 361.446H1395.35C1458.28 361.446 1518.22 392.037 1552.18 445.023C1553.66 447.283 1555.08 449.61 1556.5 452.005L1716.1 752.18C1716.1 752.18 1760.79 822.401 1690.53 930.936L1352.28 1460.63C1352.28 1460.63 1294.94 1569.16 1154.4 1575.57H817.122C740.19 1575.57 666.866 1538.98 623.695 1475.33C621.873 1472.64 620.052 1469.87 618.298 1467.04L277.65 907.159C256.859 873.65 245.229 835.27 243.922 795.858C243.281 770.225 247.295 741.893 260.786 716.024L426.591 413.657Z" fill="#333333"/>
<path d="M227.868 633.19C222.043 643.741 213.554 652.58 203.246 658.825C192.938 665.069 181.172 668.501 169.124 668.778C157.075 669.054 145.165 666.166 134.581 660.4C123.998 654.635 115.112 646.195 108.809 635.922L80.2759 589.378L10.1563 475.143C3.79436 464.753 0.296454 452.864 0.0180276 440.685C-0.260398 428.505 2.69058 416.469 8.57107 405.799L212.994 35.6053C218.818 25.0543 227.308 16.2154 237.616 9.9709C247.924 3.72637 259.689 0.294607 271.738 0.0181371C283.786 -0.258333 295.697 2.63016 306.28 8.39531C316.864 14.1605 325.75 22.6006 332.052 32.8734L361.26 80.463L430.705 193.686C437.073 204.08 440.575 215.975 440.853 228.161C441.132 240.348 438.177 252.39 432.29 263.064L227.868 633.19Z" fill="#333333"/>
</svg>
