<?xml version="1.0" encoding="UTF-8"?>
<svg version="1.1" xmlns="http://www.w3.org/2000/svg" width="31" height="27">
<path d="M0 0 C3.96 0 7.92 0 12 0 C14.62637036 5.54455964 16.80877797 11.12497834 18.75 16.9375 C18.97260498 17.60015869 19.19520996 18.26281738 19.42456055 18.94555664 C21 23.74109792 21 23.74109792 21 26 C19.02 26 17.04 26 15 26 C12.36 18.74 9.72 11.48 7 4 C5.27746469 6.58380297 4.31506679 8.57509349 3.2734375 11.44921875 C2.9640625 12.29677734 2.6546875 13.14433594 2.3359375 14.01757812 C2.01882813 14.89865234 1.70171875 15.77972656 1.375 16.6875 C1.05015625 17.58017578 0.7253125 18.47285156 0.390625 19.39257812 C-0.40981455 21.59378688 -1.20654198 23.79626707 -2 26 C-3.98 26 -5.96 26 -8 26 C-6.36231563 16.99273599 -3.13020303 8.57360642 0 0 Z " fill="#FCD8D8" transform="translate(9,1)"/>
</svg>
