<?xml version="1.0" encoding="UTF-8"?>
<svg version="1.1" xmlns="http://www.w3.org/2000/svg" width="2000" height="2000">
<path d="M0 0 C69.3660282 -0.06039235 69.3660282 -0.06039235 90.83824158 -0.07695007 C91.60402691 -0.07754207 92.36981225 -0.07813408 93.15880321 -0.07874402 C118.95515597 -0.09863225 144.75150953 -0.11437882 170.54786682 -0.12702942 C171.39025792 -0.12744359 172.23264902 -0.12785776 173.10056712 -0.12828448 C191.41128744 -0.13726477 209.722008 -0.14557509 228.03272894 -0.15319599 C237.01327442 -0.15693775 245.99381984 -0.16082745 254.97436523 -0.16479492 C255.86800187 -0.1651872 256.76163851 -0.16557948 257.68235505 -0.16598364 C286.60870566 -0.17875062 315.5350386 -0.20127175 344.46137853 -0.22889166 C374.20551301 -0.25724061 403.94963772 -0.27566818 433.69378548 -0.28174497 C437.90214529 -0.28260934 442.11050506 -0.28358625 446.31886482 -0.28463173 C447.56117189 -0.28493513 447.56117189 -0.28493513 448.82857607 -0.28524467 C462.12026673 -0.28877951 475.41192705 -0.30266572 488.70360537 -0.3204961 C502.09052319 -0.33823068 515.47741116 -0.34488581 528.8643403 -0.34050413 C536.8020081 -0.33823535 544.73956601 -0.34418852 552.67721381 -0.36239263 C558.6304598 -0.37510344 564.58359062 -0.37181093 570.5368476 -0.36269668 C572.92624322 -0.36144099 575.31564845 -0.36514191 577.70502549 -0.37464955 C598.34076472 -0.4519054 618.76487826 1.15238521 638.9375 5.6875 C640.09169434 5.94313721 641.24588867 6.19877441 642.43505859 6.4621582 C694.89790878 18.45050191 742.83291111 43.83511688 782.2109375 80.43359375 C784.53810845 82.57498215 786.90058615 84.64342629 789.3125 86.6875 C792.52291155 89.47687397 795.28645702 92.47490375 798.03125 95.71875 C799.93501033 97.9246945 801.90702531 100.05380775 803.90112305 102.17797852 C849.69817592 151.15967336 880.31161168 223.39175603 880.12304783 290.60090065 C880.12420167 291.6254633 880.12535552 292.65002596 880.12654433 293.70563596 C880.12918625 297.13072902 880.12470885 300.55577485 880.12025452 303.98086548 C880.12069071 306.46437636 880.12156652 308.9478872 880.12284368 311.4313978 C880.12461255 316.8267046 880.12328322 322.22199735 880.11920547 327.61730194 C880.11315895 335.63986327 880.11287074 343.66241766 880.11374746 351.68498085 C880.11506005 365.18160744 880.11172495 378.67822912 880.10573006 392.17485428 C880.09981061 405.53589528 880.09596362 418.89693423 880.09487724 432.25797653 C880.0948085 433.0890972 880.09473976 433.92021787 880.09466894 434.77652402 C880.0943306 438.99746138 880.09402922 443.21839874 880.09374207 447.43933611 C880.09164232 477.32690905 880.08490683 507.21447934 880.07543945 537.10205078 C880.06625333 566.13525376 880.05917055 595.16845601 880.05493164 624.20166016 C880.05473435 625.54433758 880.05473435 625.54433758 880.05453308 626.91413981 C880.05321454 635.90338356 880.05193873 644.89262732 880.05069422 653.88187108 C880.04815809 672.19357612 880.04533683 690.50528111 880.04234314 708.81698608 C880.04220585 709.65890654 880.04206856 710.50082699 880.04192711 711.36826019 C880.03770449 737.17117646 880.03227352 762.97409229 880.02565002 788.77700806 C880.02536869 789.87574876 880.02536869 789.87574876 880.02508167 790.99668625 C880.0174668 820.66445771 880.00857259 850.33222881 880 880 C800.14 880 720.28 880 638 880 C638 669.46 638 458.92 638 242 C427.46 242 216.92 242 0 242 C0 162.14 0 82.28 0 0 Z " fill="#000000" transform="translate(1120,0)"/>
<path d="M0 0 C1.02456265 -0.00115384 2.04912531 -0.00230769 3.10473531 -0.0034965 C6.52982837 -0.00613842 9.9548742 -0.00166102 13.37996483 0.00279331 C15.86347571 0.00235712 18.34698655 0.00148131 20.83049715 0.00020415 C26.22580395 -0.00156472 31.6210967 -0.0002354 37.01640129 0.00384235 C45.03896262 0.00988888 53.06151701 0.01017709 61.0840802 0.00930037 C74.58070679 0.00798778 88.07732847 0.01132288 101.57395363 0.01731777 C114.93499463 0.02323721 128.29603358 0.02708421 141.65707588 0.02817059 C142.48819655 0.02823933 143.31931722 0.02830806 144.17562337 0.02837889 C148.39656073 0.02871723 152.61749809 0.02901861 156.83843546 0.02930576 C186.7260084 0.03140551 216.61357869 0.038141 246.50115013 0.04760838 C275.53435311 0.05679449 304.56755536 0.06387728 333.60075951 0.06811619 C334.49587779 0.06824771 335.39099608 0.06837924 336.31323916 0.06851475 C345.30248291 0.06983329 354.29172667 0.0711091 363.28097043 0.07235361 C381.59267547 0.07488974 399.90438046 0.077711 418.21608543 0.08070469 C419.05800589 0.08084198 419.89992634 0.08097927 420.76735954 0.08112072 C446.57027581 0.08534334 472.37319164 0.09077431 498.17610741 0.0973978 C498.90860121 0.09758536 499.64109501 0.09777292 500.3957856 0.09796616 C530.06355706 0.10558103 559.73132816 0.11447523 589.39909935 0.12304783 C589.39909935 79.98304783 589.39909935 159.84304783 589.39909935 242.12304783 C378.85909935 242.12304783 168.31909935 242.12304783 -48.60090065 242.12304783 C-48.60090065 452.66304783 -48.60090065 663.20304783 -48.60090065 880.12304783 C-128.46090065 880.12304783 -208.32090065 880.12304783 -290.60090065 880.12304783 C-290.661293 810.75701963 -290.661293 810.75701963 -290.67785072 789.28480625 C-290.67844272 788.51902091 -290.67903473 787.75323558 -290.67964467 786.96424462 C-290.6995329 761.16789186 -290.71527947 735.3715383 -290.72793007 709.57518101 C-290.72834424 708.73278991 -290.72875841 707.89039881 -290.72918513 707.02248071 C-290.73816542 688.71176039 -290.74647574 670.40103983 -290.75409664 652.09031889 C-290.7578384 643.1097734 -290.7617281 634.12922798 -290.76569557 625.14868259 C-290.76608785 624.25504595 -290.76648013 623.36140932 -290.76688429 622.44069278 C-290.77965127 593.51434217 -290.8021724 564.58800923 -290.82979231 535.6616693 C-290.85814126 505.91753482 -290.87656883 476.17341011 -290.88264562 446.42926235 C-290.88350999 442.22090254 -290.8844869 438.01254277 -290.88553238 433.80418301 C-290.88573465 432.97597829 -290.88593692 432.14777358 -290.88614532 431.29447175 C-290.88968016 418.0027811 -290.90356637 404.71112078 -290.92139675 391.41944246 C-290.93913133 378.03252464 -290.94578646 364.64563667 -290.94140478 351.25870753 C-290.939136 343.32103973 -290.94508917 335.38348182 -290.96329328 327.44583401 C-290.97600409 321.49258802 -290.97271158 315.53945721 -290.96359733 309.58620023 C-290.96234164 307.19680461 -290.96604256 304.80739938 -290.9755502 302.41802234 C-291.05280605 281.78228311 -289.44851544 261.35816957 -284.91340065 241.18554783 C-284.65776344 240.03135349 -284.40212624 238.87715916 -284.13874245 237.68798923 C-272.15039874 185.22513905 -246.76578377 137.29013672 -210.1673069 97.91211033 C-208.0259185 95.58493938 -205.95747436 93.22246168 -203.91340065 90.81054783 C-201.12402668 87.60013628 -198.1259969 84.83659081 -194.88215065 82.09179783 C-192.67620615 80.1880375 -190.5470929 78.21602252 -188.42292213 76.22192478 C-139.4993842 30.47924764 -67.14280726 -0.18837774 0 0 Z " fill="#000000" transform="translate(290.6009006500244,-0.1230478286743164)"/>
<path d="M0 0 C79.86 0 159.72 0 242 0 C242.06039235 69.36602821 242.06039235 69.36602821 242.07695007 90.83824158 C242.07783807 91.98691958 242.07783807 91.98691958 242.07874402 93.15880321 C242.09863225 118.95515597 242.11437882 144.75150953 242.12702942 170.54786682 C242.12744359 171.39025792 242.12785776 172.23264902 242.12828448 173.10056712 C242.13726477 191.41128744 242.14557509 209.722008 242.15319599 228.03272894 C242.15693775 237.01327442 242.16082745 245.99381984 242.16479492 254.97436523 C242.1651872 255.86800187 242.16557948 256.76163851 242.16598364 257.68235505 C242.17875062 286.60870566 242.20127175 315.5350386 242.22889166 344.46137853 C242.25724061 374.20551301 242.27566818 403.94963772 242.28174497 433.69378548 C242.28260934 437.90214529 242.28358625 442.11050506 242.28463173 446.31886482 C242.284834 447.14706954 242.28503627 447.97527425 242.28524467 448.82857607 C242.28877951 462.12026673 242.30266572 475.41192705 242.3204961 488.70360537 C242.33823068 502.09052319 242.34488581 515.47741116 242.34050413 528.8643403 C242.33823535 536.8020081 242.34418852 544.73956601 242.36239263 552.67721381 C242.37510344 558.6304598 242.37181093 564.58359062 242.36269668 570.5368476 C242.36144099 572.92624322 242.36514191 575.31564845 242.37464955 577.70502549 C242.4519054 598.34076472 240.84761479 618.76487826 236.3125 638.9375 C236.05686279 640.09169434 235.80122559 641.24588867 235.5378418 642.43505859 C223.54949809 694.89790878 198.16488312 742.83291111 161.56640625 782.2109375 C159.42501785 784.53810845 157.35657371 786.90058615 155.3125 789.3125 C152.51545542 792.53173999 149.50958374 795.30167977 146.25390625 798.05078125 C144.64205348 799.44474058 143.07031302 800.88562598 141.52734375 802.35546875 C87.21702164 854.06867279 11.17592896 880.43531916 -62.94290161 880.24050903 C-65.43331727 880.24138262 -67.92373275 880.24313642 -70.41414726 880.24568737 C-75.79976833 880.24920952 -81.18533076 880.24660132 -86.57094574 880.23841095 C-94.57895739 880.2262666 -102.58694138 880.22574619 -110.59496056 880.22749493 C-124.07021376 880.2301139 -137.54544726 880.2234736 -151.02069473 880.21146011 C-164.35279564 880.19960485 -177.68488833 880.19192395 -191.01699448 880.18975449 C-191.84756523 880.18961701 -192.67813599 880.18947953 -193.53387555 880.18933788 C-197.75234124 880.18866117 -201.97080693 880.18805842 -206.18927263 880.18748413 C-236.0280428 880.18328915 -265.86680226 880.16983076 -295.70556641 880.15087891 C-324.68408145 880.13249474 -353.66259357 880.11833502 -382.64111328 880.10986328 C-383.53517936 880.10960023 -384.42924543 880.10933718 -385.35040442 880.10906615 C-394.3294112 880.10642899 -403.308418 880.10387738 -412.28742482 880.10138843 C-430.57686043 880.09631672 -448.86629586 880.09067422 -467.1557312 880.08468628 C-467.99655334 880.0844117 -468.83737547 880.08413712 -469.70367706 880.08385422 C-495.46318874 880.07541213 -521.2226986 880.06455198 -546.98220825 880.05130005 C-548.07869826 880.05073738 -548.07869826 880.05073738 -549.19733959 880.05016333 C-578.79822722 880.03493666 -608.39911343 880.01714617 -638 880 C-638 800.14 -638 720.28 -638 638 C-427.46 638 -216.92 638 0 638 C0 427.46 0 216.92 0 0 Z " fill="#000000" transform="translate(1758,1120)"/>
<path d="M0 0 C79.86 0 159.72 0 242 0 C242 210.54 242 421.08 242 638 C452.54 638 663.08 638 880 638 C880 717.86 880 797.72 880 880 C810.61384101 880.06039235 810.61384101 880.06039235 789.1361084 880.07695007 C788.37012573 880.07754207 787.60414306 880.07813408 786.81494879 880.07874402 C761.01323098 880.09863128 735.21151237 880.11437826 709.40979004 880.12702942 C708.56726088 880.12744359 707.72473173 880.12785776 706.85667139 880.12828448 C688.54318312 880.13726466 670.22969461 880.145575 651.91620573 880.15319599 C642.93437148 880.15693777 633.95253729 880.16082746 624.97070312 880.16479492 C624.07693573 880.1651872 623.18316833 880.16557948 622.26231707 880.16598364 C593.32897668 880.17875182 564.39565396 880.20127387 535.46232425 880.22889166 C505.71231718 880.25723721 475.96231987 880.27566739 446.21229953 880.28174497 C442.00361897 880.28260935 437.79493845 880.28358625 433.58625793 880.28463173 C432.34384973 880.28493513 432.34384973 880.28493513 431.07634237 880.28524467 C417.7807349 880.28878024 404.48515774 880.30266844 391.1895626 880.3204961 C377.80042166 880.3382258 364.41131057 880.34488701 351.02215832 880.34050413 C343.08205851 880.33823444 335.14206849 880.34419686 327.20198864 880.36239263 C321.24870883 880.37509447 315.2955443 880.37181563 309.34225351 880.36269668 C306.95152979 880.36144007 304.5607965 880.36514923 302.17009133 880.37464955 C281.69511766 880.45120799 261.66806457 878.58514792 241.625 874.3125 C240.41932373 874.05686279 239.21364746 873.80122559 237.97143555 873.5378418 C200.66628644 865.35271491 164.303538 850.00711521 133 828 C131.85241211 827.19393311 131.85241211 827.19393311 130.68164062 826.37158203 C117.48620693 817.02437203 104.85721754 807.08385691 93.53808594 795.50732422 C91.90720168 793.85089947 91.90720168 793.85089947 89.5 792.0625 C86.66484596 789.72349791 84.43128324 787.15416999 82.0546875 784.359375 C80.61893927 782.71072114 79.14090346 781.09837393 77.6328125 779.515625 C25.92851982 725.20310391 -0.43531006 649.17246744 -0.24050903 575.05709839 C-0.24138262 572.56668273 -0.24313642 570.07626725 -0.24568737 567.58585274 C-0.24920952 562.20023167 -0.24660132 556.81466924 -0.23841095 551.42905426 C-0.2262666 543.42104261 -0.22574619 535.41305862 -0.22749493 527.40503944 C-0.2301139 513.92978624 -0.2234736 500.45455274 -0.21146011 486.97930527 C-0.19960485 473.64720436 -0.19192395 460.31511167 -0.18975449 446.98300552 C-0.18961701 446.15243477 -0.18947953 445.32186401 -0.18933788 444.46612445 C-0.18866117 440.24765876 -0.18805842 436.02919307 -0.18748413 431.81072737 C-0.18328915 401.9719572 -0.16983076 372.13319774 -0.15087891 342.29443359 C-0.13249474 313.31591855 -0.11833502 284.33740643 -0.10986328 255.35888672 C-0.10960023 254.46482064 -0.10933718 253.57075457 -0.10906615 252.64959558 C-0.10642899 243.6705888 -0.10387738 234.691582 -0.10138843 225.71257518 C-0.09631672 207.42313957 -0.09067422 189.13370414 -0.08468628 170.8442688 C-0.0844117 170.00344666 -0.08413712 169.16262453 -0.08385422 168.29632294 C-0.07541213 142.53681126 -0.06455198 116.7773014 -0.05130005 91.01779175 C-0.05092493 90.28679841 -0.05054982 89.55580507 -0.05016333 88.80266041 C-0.03493666 59.20177278 -0.01714617 29.60088657 0 0 Z " fill="#000000" transform="translate(0,1120)"/>
</svg>
