<?xml version="1.0" encoding="UTF-8"?>
<svg version="1.1" xmlns="http://www.w3.org/2000/svg" width="204" height="98">
<path d="M0 0 C67.32 0 134.64 0 204 0 C204 32.34 204 64.68 204 98 C136.68 98 69.36 98 0 98 C0 65.66 0 33.32 0 0 Z " fill="#020202" transform="translate(0,0)"/>
<path d="M0 0 C67.32 0 134.64 0 204 0 C204 32.34 204 64.68 204 98 C201.69 98 199.38 98 197 98 C197 69.95 197 41.9 197 13 C134.96 13 72.92 13 9 13 C9 26.53 9 40.06 9 54 C6.03 54 3.06 54 0 54 C0 36.18 0 18.36 0 0 Z " fill="#090909" transform="translate(0,0)"/>
<path d="M0 0 C18.94289944 0 18.94289944 0 25.34179688 6.30883789 C27.46035163 9.7471225 27.51654414 12.03522735 27.53125 16.05859375 C27.5350769 16.72536636 27.53890381 17.39213898 27.54284668 18.07911682 C27.54555756 19.48350543 27.53825396 20.88794523 27.52148438 22.29223633 C27.50009107 24.42840604 27.52129044 26.56120074 27.546875 28.69726562 C27.54423091 30.06771568 27.53910424 31.43816365 27.53125 32.80859375 C27.52673828 34.04407959 27.52222656 35.27956543 27.51757812 36.55249023 C26.78395837 41.43902068 24.61799891 44.57812217 20.9375 47.8125 C14.13847058 51.97964706 9.27051695 50 0 50 C0 33.5 0 17 0 0 Z " fill="#F2F2F2" transform="translate(120,24)"/>
<path d="M0 0 C4.61644367 2.2983153 7.3569375 5.41663079 9.0703125 10.34375 C9.62227465 14.87551399 9.58360014 19.34676753 9.5078125 23.90625 C9.51490234 25.11216797 9.52199219 26.31808594 9.52929688 27.56054688 C9.48103032 34.28444957 9.38410767 39.79385746 4.53515625 44.98828125 C-0.35206348 48.72556692 -2.6759796 49.86489233 -8.9296875 49.34375 C-14.20807077 46.5493118 -18.01833211 43.07781618 -19.9296875 37.34375 C-20.24424535 32.95307988 -20.25381373 28.55683152 -20.3046875 24.15625 C-20.34207031 22.94904297 -20.37945312 21.74183594 -20.41796875 20.49804688 C-20.49036346 13.14194013 -19.94794842 7.95096024 -14.9296875 2.34375 C-10.56016932 -1.43529275 -5.36374716 -1.82410834 0 0 Z " fill="#F1F1F1" transform="translate(169.9296875,24.65625)"/>
<path d="M0 0 C17 0 17 0 21.375 2.125 C27.68515701 9.03612435 27.49049062 15.39549842 27.4375 24.375 C27.4674707 26.16550781 27.4674707 26.16550781 27.49804688 27.9921875 C27.49443271 34.52659185 27.4620765 40.82266581 23 46 C18 49 18 49 0 49 C0 32.83 0 16.66 0 0 Z " fill="#F8F8F8" transform="translate(28,24)"/>
<path d="M0 0 C0.66 0 1.32 0 2 0 C4.14027333 6.65560773 6.27606153 13.31264233 8.40869141 19.97070312 C9.13518965 22.23698756 9.86272588 24.50293952 10.59130859 26.76855469 C11.636502 30.01931948 12.67799446 33.27124959 13.71875 36.5234375 C14.04685669 37.54118256 14.37496338 38.55892761 14.7130127 39.60751343 C15.01332397 40.54833771 15.31363525 41.48916199 15.62304688 42.45849609 C15.88952026 43.28900482 16.15599365 44.11951355 16.43054199 44.97518921 C17 47 17 47 17 49 C14.36 49 11.72 49 9 49 C8.79318604 48.31373535 8.58637207 47.6274707 8.37329102 46.92041016 C7.43822355 43.82137444 6.50039705 40.72318048 5.5625 37.625 C5.23701172 36.54476562 4.91152344 35.46453125 4.57617188 34.3515625 C4.26357422 33.3203125 3.95097656 32.2890625 3.62890625 31.2265625 C3.34088135 30.27346191 3.05285645 29.32036133 2.75610352 28.33837891 C2.06851863 26.0117531 2.06851863 26.0117531 1 24 C-1.42093771 30.11605316 -3.38620357 36.33350061 -5.28588867 42.62695312 C-6.89491981 47.89491981 -6.89491981 47.89491981 -8 49 C-10.33297433 49.04092937 -12.66705225 49.04241723 -15 49 C-12.60512804 38.36500931 -9.21482522 28.09537872 -5.8125 17.75 C-5.24766792 16.02225926 -4.68321199 14.2943955 -4.11914062 12.56640625 C-2.75042165 8.37617478 -1.37663903 4.18763579 0 0 Z " fill="#EEEEEE" transform="translate(69,25)"/>
<path d="M0 0 C2.31 0 4.62 0 7 0 C7.23710693 0.72179443 7.47421387 1.44358887 7.71850586 2.18725586 C8.78840239 5.43836757 9.86288718 8.68794431 10.9375 11.9375 C11.31068359 13.07380859 11.68386719 14.21011719 12.06835938 15.38085938 C12.42607422 16.46044922 12.78378906 17.54003906 13.15234375 18.65234375 C13.48226318 19.65257568 13.81218262 20.65280762 14.15209961 21.68334961 C14.79028011 23.9306108 14.79028011 23.9306108 16 25 C16.20681396 24.31373535 16.41362793 23.6274707 16.62670898 22.92041016 C17.56177645 19.82137444 18.49960295 16.72318048 19.4375 13.625 C19.76298828 12.54476562 20.08847656 11.46453125 20.42382812 10.3515625 C20.73642578 9.3203125 21.04902344 8.2890625 21.37109375 7.2265625 C21.65911865 6.27346191 21.94714355 5.32036133 22.24389648 4.33837891 C23 2 23 2 24 0 C26.31 0 28.62 0 31 0 C29.32315439 8.53666857 26.65417576 16.72949546 24 25 C23.29794863 27.19784371 22.59614239 29.39576572 21.89453125 31.59375 C19.93423606 37.73062808 17.96866643 43.8658027 16 50 C13.73728659 46.60592988 12.68379434 43.22325489 11.50390625 39.3671875 C11.26969467 38.61591583 11.03548309 37.86464417 10.79417419 37.09060669 C10.04573121 34.68679072 9.30389949 32.28099667 8.5625 29.875 C7.82476789 27.4955304 7.08567098 25.11648948 6.34603882 22.73760986 C5.87134228 21.20991081 5.39771397 19.68187938 4.92520142 18.15350342 C3.72219582 14.27188039 2.47741235 10.41246677 1.15234375 6.5703125 C0 3 0 3 0 0 Z " fill="#F4F4F4" transform="translate(76,24)"/>
<path d="M0 0 C3.76814772 1.18626873 4.46654604 1.7294205 6.375 5.0625 C7.02707437 9.35064718 6.88443382 13.66751793 6.875 18 C6.90335938 19.18013672 6.93171875 20.36027344 6.9609375 21.57617188 C6.98279952 31.23371709 6.98279952 31.23371709 4.0703125 34.37109375 C1.375 36.0625 1.375 36.0625 -2.25 36.1875 C-5.625 35.0625 -5.625 35.0625 -7.30664062 32.85351562 C-9.6234292 27.94878841 -9.13720078 22.90034248 -9.125 17.5625 C-9.15335938 16.43457031 -9.18171875 15.30664062 -9.2109375 14.14453125 C-9.23275303 4.92746799 -9.23275303 4.92746799 -6.3203125 1.78515625 C-3.625 0.0625 -3.625 0.0625 0 0 Z " fill="#0A0A0A" transform="translate(165.625,30.9375)"/>
<path d="M0 0 C9 0 9 0 12.0234375 1.6875 C15.14749134 6.92306849 14.7233377 12.02106754 14.625 18 C14.64433594 19.175625 14.66367187 20.35125 14.68359375 21.5625 C14.65518853 26.56181938 14.61516789 29.96904671 12.0234375 34.3125 C9 36 9 36 0 36 C0 24.12 0 12.24 0 0 Z " fill="#0C0C0C" transform="translate(34,31)"/>
<path d="M0 0 C24.75 0 49.5 0 75 0 C75 1.98 75 3.96 75 6 C49.92 6 24.84 6 -1 6 C-0.67 4.02 -0.34 2.04 0 0 Z " fill="#F1F1F1" transform="translate(102,15)"/>
<path d="M0 0 C9 0 9 0 11.53149414 1.59936523 C13.4343302 4.71001976 13.50204438 6.77173181 13.49609375 10.41015625 C13.49673828 11.64701172 13.49738281 12.88386719 13.49804688 14.15820312 C13.47806641 15.44662109 13.45808594 16.73503906 13.4375 18.0625 C13.44458984 19.35478516 13.45167969 20.64707031 13.45898438 21.97851562 C13.39451594 31.48513025 13.39451594 31.48513025 11.59790039 33.82983398 C7.34502859 36.94427471 6.61226148 36 0 36 C0 24.12 0 12.24 0 0 Z " fill="#010101" transform="translate(127,31)"/>
<path d="M0 0 C2.31 0 4.62 0 7 0 C7 16.5 7 33 7 50 C4.69 50 2.38 50 0 50 C0 33.5 0 17 0 0 Z " fill="#F1F1F1" transform="translate(110,24)"/>
<path d="M0 0 C1.98 0 3.96 0 6 0 C6 14.52 6 29.04 6 44 C3.69 44 1.38 44 -1 44 C-1.02511278 39.82316455 -1.04305063 35.64637155 -1.05493164 31.46948242 C-1.05989558 30.05476107 -1.06666892 28.64004467 -1.07543945 27.2253418 C-1.13047375 18.1058359 -0.8668253 9.08749549 0 0 Z " fill="#0F0F0F" transform="translate(198,54)"/>
<path d="M0 0 C10.89 0 21.78 0 33 0 C32.67 2.31 32.34 4.62 32 7 C21.44 7 10.88 7 0 7 C0 4.69 0 2.38 0 0 Z " fill="#EAEAEA" transform="translate(27,77)"/>
</svg>
