<?xml version="1.0" encoding="UTF-8"?>
<svg version="1.1" xmlns="http://www.w3.org/2000/svg" width="155" height="79">
<path d="M0 0 C6.93 0 13.86 0 21 0 C21 3.96 21 7.92 21 12 C18.03 12 15.06 12 12 12 C12 12.66 12 13.32 12 14 C14.97 14 17.94 14 21 14 C21 16.33333333 21 18.66666667 21 21 C21.28064757 30.31215733 21.28064757 30.31215733 26 38 C28.12119128 38.95231597 28.12119128 38.95231597 30 39 C30 35.88742431 29.82638376 33.89234315 29 31 C33 31 33 31 35 32 C35.2475 31.236875 35.495 30.47375 35.75 29.6875 C37.13693933 26.70558043 38.2667733 25.73932608 41 24 C44.16666667 22.16666667 44.16666667 22.16666667 46 19 C49.81038795 14.18097994 49.81038795 14.18097994 53.10546875 13.6796875 C55.07319903 13.68665292 57.03928557 13.83383776 59 14 C59.495 14.99 59.495 14.99 60 16 C59.67 16.66 59.34 17.32 59 18 C59.99 17.67 60.98 17.34 62 17 C62.99 18.485 62.99 18.485 64 20 C65.32 19.67 66.64 19.34 68 19 C68 19.66 68 20.32 68 21 C68.66 21.33 69.32 21.66 70 22 C70 22.66 70 23.32 70 24 C71.62626404 25.38232443 73.2925002 26.71937515 75 28 C76.4606285 25.35261084 77 24.10551666 77 21 C82.80009895 20.53599208 85.34974588 21.617997 90 25 C90.99 25 91.98 25 93 25 C93.99 25.845625 94.98 26.69125 96 27.5625 C96.99 28.366875 97.98 29.17125 99 30 C99.99 29.67 100.98 29.34 102 29 C102.433125 29.7425 102.86625 30.485 103.3125 31.25 C105.11319911 34.28007196 105.11319911 34.28007196 108 38 C108.33 31.07 108.66 24.14 109 17 C111.31 16.34 113.62 15.68 116 15 C116.33 16.32 116.66 17.64 117 19 C116.34 19 115.68 19 115 19 C115.33 19.99 115.66 20.98 116 22 C115.67 22.66 115.34 23.32 115 24 C114.84824451 25.59262066 114.75099675 27.19064856 114.68359375 28.7890625 C114.64169922 29.73007812 114.59980469 30.67109375 114.55664062 31.640625 C114.51732422 32.62546875 114.47800781 33.6103125 114.4375 34.625 C114.37272461 36.11386719 114.37272461 36.11386719 114.30664062 37.6328125 C114.20038931 40.08839838 114.09835036 42.54408703 114 45 C114.99 45.33 115.98 45.66 117 46 C117 50.66666667 117 55.33333333 117 60 C117.30830925 62.00401011 117.63729412 64.00511766 118 66 C117.01 66 116.02 66 115 66 C114.608125 66.969375 114.21625 67.93875 113.8125 68.9375 C112 72 112 72 109.38671875 72.69140625 C108.59910156 72.79324219 107.81148438 72.89507812 107 73 C107.12181641 71.15535156 107.12181641 71.15535156 107.24609375 69.2734375 C108.00123893 60.60125624 108.00123893 60.60125624 105.546875 52.57421875 C103.76160286 51.1227475 102.02469606 50.07954886 100 49 C98.99754602 48.00246001 97.99722609 47.00276624 97 46 C94.89667109 45.28552357 94.89667109 45.28552357 93 45 C93.67170806 48.8063457 94.72746564 52.35206816 96 56 C97.98 56.33 99.96 56.66 102 57 C102.25 62.625 102.25 62.625 100 66 C100.99 65.67 101.98 65.34 103 65 C103.66 66.32 104.32 67.64 105 69 C104.525625 69.391875 104.05125 69.78375 103.5625 70.1875 C101.64820367 72.40808374 101.38733012 74.13375709 101 77 C99.515 77.495 99.515 77.495 98 78 C95.3125 76.0625 95.3125 76.0625 93 74 C92.54625 74.495 92.0925 74.99 91.625 75.5 C90 77 90 77 88 77 C87.67 77.66 87.34 78.32 87 79 C85.5 77.625 85.5 77.625 84 76 C84 75.34 84 74.68 84 74 C84.66 74 85.32 74 86 74 C85.67 73.34 85.34 72.68 85 72 C82.47266765 71.34444881 82.47266765 71.34444881 80 71 C80.33 70.34 80.66 69.68 81 69 C80.01 69 79.02 69 78 69 C78 68.34 78 67.68 78 67 C77.34 67 76.68 67 76 67 C76 67.99 76 68.98 76 70 C75.21625 70.12375 74.4325 70.2475 73.625 70.375 C70.85942178 70.79117993 70.85942178 70.79117993 69 73 C68.67 71.68 68.34 70.36 68 69 C66.02 69.99 66.02 69.99 64 71 C62.68 70.01 61.36 69.02 60 68 C59.34 68.66 58.68 69.32 58 70 C59.98 70.99 59.98 70.99 62 72 C62 72.33 62 72.66 62 73 C61.31292969 72.90460938 60.62585938 72.80921875 59.91796875 72.7109375 C59.01691406 72.60007812 58.11585937 72.48921875 57.1875 72.375 C56.29417969 72.25898437 55.40085937 72.14296875 54.48046875 72.0234375 C51.74309609 71.76499257 51.74309609 71.76499257 49 74 C46.00261059 75.99825961 45.36652492 76.27550398 42 76.25 C41.319375 76.25515625 40.63875 76.2603125 39.9375 76.265625 C38 76 38 76 35 74 C35.598125 73.731875 36.19625 73.46375 36.8125 73.1875 C38.97224808 72.01506533 40.35790256 70.80630718 42 69 C41.67 68.67 41.34 68.34 41 68 C40.34 68.99 39.68 69.98 39 71 C38.01 70.67 37.02 70.34 36 70 C36 69.67 36 69.34 36 69 C33.69 69 31.38 69 29 69 C28.79375 68.360625 28.5875 67.72125 28.375 67.0625 C27.92125 66.381875 27.4675 65.70125 27 65 C26.01 64.855625 25.02 64.71125 24 64.5625 C22.515 64.2840625 22.515 64.2840625 21 64 C19.8125 61.46484375 19.8125 61.46484375 19 59 C12.88968391 65.02230742 8.97833599 69.33473835 8 78 C4.98968256 78.93423645 4.13349732 79.04449911 1 78 C0.50004074 76.33346913 0.00891918 74.66329043 -0.41796875 72.9765625 C-1.84184862 68.14110467 -3.81791951 64.70470183 -8.25 62.0625 C-9.61125 61.5365625 -9.61125 61.5365625 -11 61 C-11 60.34 -11 59.68 -11 59 C-10.01 58.505 -10.01 58.505 -9 58 C-9.66 57.34 -10.32 56.68 -11 56 C-11.125 52.875 -11.125 52.875 -11 50 C-9.515 49.505 -9.515 49.505 -8 49 C-9.32 48.34 -10.64 47.68 -12 47 C-12.495 47.495 -12.495 47.495 -13 48 C-14.485 48.495 -14.485 48.495 -16 49 C-16.33 48.34 -16.66 47.68 -17 47 C-17.66 46.67 -18.32 46.34 -19 46 C-16.25 41.125 -16.25 41.125 -14 40 C-14.020625 39.05125 -14.04125 38.1025 -14.0625 37.125 C-14 34 -14 34 -13 32 C-12.55523804 28.69290858 -12.16715393 25.38220565 -11.79296875 22.06640625 C-11 19 -11 19 -9.11328125 17.08984375 C-7 16 -7 16 -4 16 C-2.72381941 13.44763882 -3.25768023 12.69758035 -4 10 C-4.21192095 8.41974995 -4.39923371 6.83601539 -4.5625 5.25 C-4.64628906 4.45078125 -4.73007812 3.6515625 -4.81640625 2.828125 C-4.87699219 2.22484375 -4.93757813 1.6215625 -5 1 C-2 2 -2 2 -1 4 C0.32 3.01 1.64 2.02 3 1 C2.01 0.67 1.02 0.34 0 0 Z M55 22 C55 32.89 55 43.78 55 55 C55.33 55 55.66 55 56 55 C56 44.11 56 33.22 56 22 C55.67 22 55.34 22 55 22 Z M13 29 C13 29.99 13 30.98 13 32 C13.99 31.34 14.98 30.68 16 30 C15.01 29.67 14.02 29.34 13 29 Z M48 27 C48.33 29.64 48.66 32.28 49 35 C48.34 35 47.68 35 47 35 C46.67 33.68 46.34 32.36 46 31 C45.67 31.99 45.34 32.98 45 34 C44.34 32.68 43.68 31.36 43 30 C42.01 30.99 41.02 31.98 40 33 C41.53604696 36.14191424 43.05731159 39.08596738 45 42 C46.65 41.34 48.3 40.68 50 40 C50 35.71 50 31.42 50 27 C49.34 27 48.68 27 48 27 Z M60 30 C60 38.58 60 47.16 60 56 C62.64 56 65.28 56 68 56 C70.58464953 56.73348162 72.57733256 57.78866628 75 59 C74.34 59 73.68 59 73 59 C73 59.66 73 60.32 73 61 C73.33 61.33 73.66 61.66 74 62 C73.67 62.99 73.34 63.98 73 65 C73.99 65.33 74.98 65.66 76 66 C79.14866323 64.37796137 79.91273162 63.24241218 81.125 59.875 C81.41375 58.92625 81.7025 57.9775 82 57 C82.66 56.67 83.32 56.34 84 56 C84 56.66 84 57.32 84 58 C84.639375 58.12375 85.27875 58.2475 85.9375 58.375 C86.9584375 58.684375 86.9584375 58.684375 88 59 C88.33 59.66 88.66 60.32 89 61 C89.32808936 58.05980796 89.32808936 58.05980796 87.75 56.5625 C87.1725 56.046875 86.595 55.53125 86 55 C85.360625 54.319375 84.72125 53.63875 84.0625 52.9375 C82.16690853 50.93992874 82.16690853 50.93992874 80 50.125 C78 49 78 49 76.125 46 C73.65680625 42.51549117 72.08265781 41.92787677 68 41 C68 40.01 68 39.02 68 38 C66.25 35.75 66.25 35.75 64 34 C63.01 34 62.02 34 61 34 C60.67 32.68 60.34 31.36 60 30 Z M84 31 C84 31.99 84 32.98 84 34 C84.66 33.34 85.32 32.68 86 32 C85.34 31.67 84.68 31.34 84 31 Z M38 33 C38 33.66 38 34.32 38 35 C38.66 34.67 39.32 34.34 40 34 C39.34 33.67 38.68 33.34 38 33 Z M86 33 C86.79117904 34.99983534 86.79117904 34.99983534 88 37 C88.99 37.33 89.98 37.66 91 38 C91 37.01 91 36.02 91 35 C88.525 34.01 88.525 34.01 86 33 Z M34 37 C34 37.66 34 38.32 34 39 C34.66 38.67 35.32 38.34 36 38 C35.34 37.67 34.68 37.34 34 37 Z M83 38 C83 38.99 83 39.98 83 41 C84.98 41.495 84.98 41.495 87 42 C85.68 40.68 84.36 39.36 83 38 Z M108 41 C109 43 109 43 109 43 Z M97 42 C97 42.99 97 43.98 97 45 C97.66 44.34 98.32 43.68 99 43 C98.34 42.67 97.68 42.34 97 42 Z M26 44 C25.67 45.32 25.34 46.64 25 48 C25.66 48 26.32 48 27 48 C27.33 46.68 27.66 45.36 28 44 C27.34 44 26.68 44 26 44 Z M49 44 C50 47 50 47 50 47 Z M20 46 C20.33 46.66 20.66 47.32 21 48 C21.33 47.34 21.66 46.68 22 46 C21.34 46 20.68 46 20 46 Z M17 47 C17.66 47.66 18.32 48.32 19 49 C19 48.34 19 47.68 19 47 C18.34 47 17.68 47 17 47 Z M13 49 C12.67 49.66 12.34 50.32 12 51 C12.99 50.67 13.98 50.34 15 50 C14.34 49.67 13.68 49.34 13 49 Z M17 49 C18 52 18 52 18 52 Z M19 49 C20 51 20 51 20 51 Z M15 52 C16 54 16 54 16 54 Z M20 52 C21 56 21 56 21 56 Z M-9 54 C-8 56 -8 56 -8 56 Z M13 54 C13.33 54.66 13.66 55.32 14 56 C14.33 55.34 14.66 54.68 15 54 C14.34 54 13.68 54 13 54 Z M16 54 C17 56 17 56 17 56 Z M46 57 C47 59 47 59 47 59 Z M53 57 C53 57.99 53 58.98 53 60 C53.66 60 54.32 60 55 60 C55 59.01 55 58.02 55 57 C54.34 57 53.68 57 53 57 Z M57 57 C57 58.32 57 59.64 57 61 C57.66 61 58.32 61 59 61 C59 59.68 59 58.36 59 57 C58.34 57 57.68 57 57 57 Z M63 58 C63.99 58.99 64.98 59.98 66 61 C66.66 60.34 67.32 59.68 68 59 C66.35 58.67 64.7 58.34 63 58 Z M82 58 C82.66 58.66 83.32 59.32 84 60 C84 59.34 84 58.68 84 58 C83.34 58 82.68 58 82 58 Z M96 58 C95.67 59.32 95.34 60.64 95 62 C95.66 61.67 96.32 61.34 97 61 C97.33 60.01 97.66 59.02 98 58 C97.34 58 96.68 58 96 58 Z M38 59 C38.33 59.99 38.66 60.98 39 62 C39.33 61.01 39.66 60.02 40 59 C39.34 59 38.68 59 38 59 Z M-2 60 C-1.67 60.66 -1.34 61.32 -1 62 C-0.67 61.34 -0.34 60.68 0 60 C-0.66 60 -1.32 60 -2 60 Z M46 60 C45.67 60.66 45.34 61.32 45 62 C45.33 62.66 45.66 63.32 46 64 C46.99 63.67 47.98 63.34 49 63 C48.67 62.01 48.34 61.02 48 60 C47.34 60 46.68 60 46 60 Z M54 61 C55 63 55 63 55 63 Z M91 61 C92 63 92 63 92 63 Z M6 64 C6.33 64.66 6.66 65.32 7 66 C7.33 65.34 7.66 64.68 8 64 C7.34 64 6.68 64 6 64 Z M42 64 C42 64.66 42 65.32 42 66 C42.66 66 43.32 66 44 66 C44 65.34 44 64.68 44 64 C43.34 64 42.68 64 42 64 Z M53 64 C53 64.66 53 65.32 53 66 C55.97 66.495 55.97 66.495 59 67 C59 66.34 59 65.68 59 65 C56.03 64.505 56.03 64.505 53 64 Z M87 64 C88 67 88 67 88 67 Z M-2 65 C-1.34 65.66 -0.68 66.32 0 67 C0 66.34 0 65.68 0 65 C-0.66 65 -1.32 65 -2 65 Z M29 65 C29 65.33 29 65.66 29 66 C31.64 66 34.28 66 37 66 C37.33 65.34 37.66 64.68 38 64 C34.95799954 64 32.00467194 64.55486342 29 65 Z M93 65 C93.66 65.66 94.32 66.32 95 67 C95 66.34 95 65.68 95 65 C94.34 65 93.68 65 93 65 Z M65 66 C65 66.66 65 67.32 65 68 C65.99 68 66.98 68 68 68 C67.67 67.34 67.34 66.68 67 66 C66.34 66 65.68 66 65 66 Z M109 66 C110 70 110 70 110 70 Z M50 67 C51 69 51 69 51 69 Z M70 67 C71 69 71 69 71 69 Z M95 67 C93.66666667 70 93.66666667 70 95 73 C96.65 73 98.3 73 100 73 C99.67 72.01 99.34 71.02 99 70 C99.66 69.67 100.32 69.34 101 69 C99.02 68.34 97.04 67.68 95 67 Z M90 67 C89.01 67.495 89.01 67.495 88 68 C88.33 69.65 88.66 71.3 89 73 C89.66 73 90.32 73 91 73 C91.6814823 71.10820797 91.6814823 71.10820797 92 69 C91.34 68.34 90.68 67.68 90 67 Z M47 69 C48 72 48 72 48 72 Z M87 74 C87 74.66 87 75.32 87 76 C87.66 76 88.32 76 89 76 C89 75.34 89 74.68 89 74 C88.34 74 87.68 74 87 74 Z M97 74 C97 74.66 97 75.32 97 76 C97.66 76 98.32 76 99 76 C99 75.34 99 74.68 99 74 C98.34 74 97.68 74 97 74 Z " fill="#F3F3F3" transform="translate(27,0)"/>
<path d="M0 0 C6.93 0 13.86 0 21 0 C21 3.96 21 7.92 21 12 C18.03 12 15.06 12 12 12 C12 12.66 12 13.32 12 14 C14.97 14 17.94 14 21 14 C21 16.33333333 21 18.66666667 21 21 C21.23602302 27.92727576 21.76598103 32.31053701 26 38 C27 41.125 27 41.125 27 44 C25.11838478 46.57850974 23.77951983 47.74016006 20.75 48.75 C20.1725 48.8325 19.595 48.915 19 49 C19 49.66 19 50.32 19 51 C19.99 51.495 19.99 51.495 21 52 C21.4375 54.625 21.4375 54.625 21 58 C19.4273573 59.69259003 17.70850782 61.0185 15.88671875 62.4375 C11.80552669 65.8173692 8.96747755 69.63792651 8.1875 74.9375 C8.0946875 76.4534375 8.0946875 76.4534375 8 78 C4.98968256 78.93423645 4.13349732 79.04449911 1 78 C0.50004074 76.33346913 0.00891918 74.66329043 -0.41796875 72.9765625 C-1.84184862 68.14110467 -3.81791951 64.70470183 -8.25 62.0625 C-9.61125 61.5365625 -9.61125 61.5365625 -11 61 C-11 60.34 -11 59.68 -11 59 C-10.01 58.505 -10.01 58.505 -9 58 C-9.66 57.34 -10.32 56.68 -11 56 C-11.125 52.875 -11.125 52.875 -11 50 C-9.515 49.505 -9.515 49.505 -8 49 C-9.32 48.34 -10.64 47.68 -12 47 C-12.495 47.495 -12.495 47.495 -13 48 C-14.485 48.495 -14.485 48.495 -16 49 C-16.33 48.34 -16.66 47.68 -17 47 C-17.66 46.67 -18.32 46.34 -19 46 C-16.25 41.125 -16.25 41.125 -14 40 C-14.020625 39.05125 -14.04125 38.1025 -14.0625 37.125 C-14 34 -14 34 -13 32 C-12.55523804 28.69290858 -12.16715393 25.38220565 -11.79296875 22.06640625 C-11 19 -11 19 -9.11328125 17.08984375 C-7 16 -7 16 -4 16 C-2.72381941 13.44763882 -3.25768023 12.69758035 -4 10 C-4.21192095 8.41974995 -4.39923371 6.83601539 -4.5625 5.25 C-4.64628906 4.45078125 -4.73007812 3.6515625 -4.81640625 2.828125 C-4.87699219 2.22484375 -4.93757813 1.6215625 -5 1 C-2 2 -2 2 -1 4 C0.32 3.01 1.64 2.02 3 1 C2.01 0.67 1.02 0.34 0 0 Z M13 29 C13 29.99 13 30.98 13 32 C13.99 31.34 14.98 30.68 16 30 C15.01 29.67 14.02 29.34 13 29 Z M20 46 C20.33 46.66 20.66 47.32 21 48 C21.33 47.34 21.66 46.68 22 46 C21.34 46 20.68 46 20 46 Z M17 47 C17.66 47.66 18.32 48.32 19 49 C19 48.34 19 47.68 19 47 C18.34 47 17.68 47 17 47 Z M13 49 C12.67 49.66 12.34 50.32 12 51 C12.99 50.67 13.98 50.34 15 50 C14.34 49.67 13.68 49.34 13 49 Z M17 49 C18 52 18 52 18 52 Z M15 52 C16 54 16 54 16 54 Z M-9 54 C-8 56 -8 56 -8 56 Z M13 54 C13.33 54.66 13.66 55.32 14 56 C14.33 55.34 14.66 54.68 15 54 C14.34 54 13.68 54 13 54 Z M16 54 C17 56 17 56 17 56 Z M-2 60 C-1.67 60.66 -1.34 61.32 -1 62 C-0.67 61.34 -0.34 60.68 0 60 C-0.66 60 -1.32 60 -2 60 Z M6 64 C6.33 64.66 6.66 65.32 7 66 C7.33 65.34 7.66 64.68 8 64 C7.34 64 6.68 64 6 64 Z M-2 65 C-1.34 65.66 -0.68 66.32 0 67 C0 66.34 0 65.68 0 65 C-0.66 65 -1.32 65 -2 65 Z " fill="#FBFBFB" transform="translate(27,0)"/>
<path d="M0 0 C1.24744435 1.16828487 2.47525905 2.35772665 3.6875 3.5625 C4.38746094 4.24828125 5.08742188 4.9340625 5.80859375 5.640625 C7.7849577 7.59885717 9.73936356 9.57624785 11.6875 11.5625 C12.68637451 12.56362423 13.6859556 13.56404679 14.6875 14.5625 C8.73092875 16.23033995 2.85474044 16.68836205 -3.3125 16.5625 C-3.36148438 17.20058594 -3.41046875 17.83867188 -3.4609375 18.49609375 C-3.53570312 19.32238281 -3.61046875 20.14867188 -3.6875 21 C-3.75710937 21.82371094 -3.82671875 22.64742187 -3.8984375 23.49609375 C-4.03507812 24.17800781 -4.17171875 24.85992187 -4.3125 25.5625 C-4.9725 25.8925 -5.6325 26.2225 -6.3125 26.5625 C-6.6425 25.9025 -6.9725 25.2425 -7.3125 24.5625 C-10.34184491 23.90477572 -10.34184491 23.90477572 -13.3125 23.5625 C-14.24781314 19.19770536 -14.16607 15.92519112 -13.3125 11.5625 C-13.3125 10.2425 -13.3125 8.9225 -13.3125 7.5625 C-9.5625 6.4375 -9.5625 6.4375 -7.3125 7.5625 C-7.4775 6.634375 -7.6425 5.70625 -7.8125 4.75 C-8.3125 1.5625 -8.3125 1.5625 -8.3125 -1.4375 C-4.58818631 -3.01751187 -2.93739274 -2.49947868 0 0 Z " fill="#030303" transform="translate(61.3125,40.4375)"/>
<path d="M0 0 C0.66 0 1.32 0 2 0 C2 0.66 2 1.32 2 2 C3.32 2.33 4.64 2.66 6 3 C5.67 2.67 5.34 2.34 5 2 C4.67 1.34 4.34 0.68 4 0 C9.44693314 -0.09688221 14.63904667 -0.12862175 20 1 C20.25 6.625 20.25 6.625 18 10 C18.99 9.67 19.98 9.34 21 9 C21.66 10.32 22.32 11.64 23 13 C22.525625 13.391875 22.05125 13.78375 21.5625 14.1875 C19.64820367 16.40808374 19.38733012 18.13375709 19 21 C18.01 21.33 17.02 21.66 16 22 C13.3125 20.0625 13.3125 20.0625 11 18 C10.54625 18.495 10.0925 18.99 9.625 19.5 C8 21 8 21 6 21 C5.67 21.66 5.34 22.32 5 23 C3.5 21.625 3.5 21.625 2 20 C2 19.34 2 18.68 2 18 C2.66 18 3.32 18 4 18 C3.67 17.34 3.34 16.68 3 16 C0.47266765 15.34444881 0.47266765 15.34444881 -2 15 C-1.67 14.34 -1.34 13.68 -1 13 C-1.99 13 -2.98 13 -4 13 C-4 12.34 -4 11.68 -4 11 C-4.66 10.34 -5.32 9.68 -6 9 C-5.01 8.34 -4.02 7.68 -3 7 C-2.27306096 5.02111039 -1.60183749 3.02045442 -1 1 C-0.67 0.67 -0.34 0.34 0 0 Z M0 2 C0.66 2.66 1.32 3.32 2 4 C2 3.34 2 2.68 2 2 C1.34 2 0.68 2 0 2 Z M14 2 C13.67 3.32 13.34 4.64 13 6 C13.66 5.67 14.32 5.34 15 5 C15.33 4.01 15.66 3.02 16 2 C15.34 2 14.68 2 14 2 Z M9 5 C10 7 10 7 10 7 Z M5 8 C6 11 6 11 6 11 Z M11 9 C11.66 9.66 12.32 10.32 13 11 C13 10.34 13 9.68 13 9 C12.34 9 11.68 9 11 9 Z M13 11 C11.66666667 14 11.66666667 14 13 17 C14.65 17 16.3 17 18 17 C17.67 16.01 17.34 15.02 17 14 C17.66 13.67 18.32 13.34 19 13 C17.02 12.34 15.04 11.68 13 11 Z M8 11 C7.01 11.495 7.01 11.495 6 12 C6.33 13.65 6.66 15.3 7 17 C7.66 17 8.32 17 9 17 C9.6814823 15.10820797 9.6814823 15.10820797 10 13 C9.34 12.34 8.68 11.68 8 11 Z M5 18 C5 18.66 5 19.32 5 20 C5.66 20 6.32 20 7 20 C7 19.34 7 18.68 7 18 C6.34 18 5.68 18 5 18 Z M15 18 C15 18.66 15 19.32 15 20 C15.66 20 16.32 20 17 20 C17 19.34 17 18.68 17 18 C16.34 18 15.68 18 15 18 Z " fill="#F7F7F7" transform="translate(109,56)"/>
<path d="M0 0 C4.29 0 8.58 0 13 0 C13 3.96 13 7.92 13 12 C10.69 12 8.38 12 6 12 C6 10.68 6 9.36 6 8 C6.66 8 7.32 8 8 8 C7.67 6.02 7.34 4.04 7 2 C4.69 2 2.38 2 0 2 C0 1.34 0 0.68 0 0 Z " fill="#010101" transform="translate(35,0)"/>
<path d="M0 0 C0.66 0.33 1.32 0.66 2 1 C2 1.66 2 2.32 2 3 C2.66 3 3.32 3 4 3 C4.33 2.34 4.66 1.68 5 1 C5.99 0.67 6.98 0.34 8 0 C8 0.99 8 1.98 8 3 C9.32 2.67 10.64 2.34 12 2 C12 1.34 12 0.68 12 0 C12.66 0 13.32 0 14 0 C14.33 1.98 14.66 3.96 15 6 C13.02 6.99 13.02 6.99 11 8 C9.35 6.68 7.7 5.36 6 4 C5.54625 4.495 5.0925 4.99 4.625 5.5 C3 7 3 7 1 7 C0.67 7.66 0.34 8.32 0 9 C-1.5 7.625 -1.5 7.625 -3 6 C-3 5.34 -3 4.68 -3 4 C-2.34 4 -1.68 4 -1 4 C-0.67 2.68 -0.34 1.36 0 0 Z M0 4 C0 4.66 0 5.32 0 6 C0.66 6 1.32 6 2 6 C2 5.34 2 4.68 2 4 C1.34 4 0.68 4 0 4 Z M10 4 C10 4.66 10 5.32 10 6 C10.66 6 11.32 6 12 6 C12 5.34 12 4.68 12 4 C11.34 4 10.68 4 10 4 Z " fill="#292929" transform="translate(114,70)"/>
<path d="M0 0 C0.99 1.32 1.98 2.64 3 4 C4.65 3.34 6.3 2.68 8 2 C8 3.32 8 4.64 8 6 C-1.41002278 7.33257403 -1.41002278 7.33257403 -6 6 C-4 4 -2 2 0 0 Z " fill="#0A0A0A" transform="translate(68,69)"/>
<path d="M0 0 C-2.39323804 2.39323804 -3.73148638 2.44196109 -7 3 C-7.99 3.33 -8.98 3.66 -10 4 C-12.69921875 3.66015625 -12.69921875 3.66015625 -15.6875 3.0625 C-16.68136719 2.86785156 -17.67523438 2.67320313 -18.69921875 2.47265625 C-19.45847656 2.31667969 -20.21773438 2.16070312 -21 2 C-21 1.67 -21 1.34 -21 1 C-13.98441385 0.4011085 -7.04321257 -0.13810221 0 0 Z " fill="#060606" transform="translate(98,10)"/>
<path d="M0 0 C0.33 1.98 0.66 3.96 1 6 C-2.3 6 -5.6 6 -9 6 C-3 0 -3 0 0 0 Z " fill="#000000" transform="translate(121,50)"/>
<path d="M0 0 C0.66 0.33 1.32 0.66 2 1 C2 1.66 2 2.32 2 3 C2.66 3 3.32 3 4 3 C4.33 2.34 4.66 1.68 5 1 C4.49396008 3.16874252 4.00016187 4.99967627 3 7 C2.34 7 1.68 7 1 7 C0.67 7.66 0.34 8.32 0 9 C-1.5 7.625 -1.5 7.625 -3 6 C-3 5.34 -3 4.68 -3 4 C-2.34 4 -1.68 4 -1 4 C-0.67 2.68 -0.34 1.36 0 0 Z M0 4 C0 4.66 0 5.32 0 6 C0.66 6 1.32 6 2 6 C2 5.34 2 4.68 2 4 C1.34 4 0.68 4 0 4 Z " fill="#080808" transform="translate(114,70)"/>
<path d="M0 0 C1.32 0 2.64 0 4 0 C4.66 1.65 5.32 3.3 6 5 C5.01 5.33 4.02 5.66 3 6 C1.68 4.68 0.36 3.36 -1 2 C-0.67 1.34 -0.34 0.68 0 0 Z " fill="#1F1F1F" transform="translate(109,33)"/>
<path d="M0 0 C2.71595986 3.1540179 3.96846241 4.87384964 5 9 C2.69 7.02 0.38 5.04 -2 3 C-1 1 -1 1 0 0 Z " fill="#000000" transform="translate(128,29)"/>
<path d="M0 0 C4.29 0 8.58 0 13 0 C13 0.33 13 0.66 13 1 C6.565 1.495 6.565 1.495 0 2 C0 1.34 0 0.68 0 0 Z " fill="#000000" transform="translate(84,7)"/>
<path d="M0 0 C1.62463842 -0.05395478 3.24978541 -0.09277195 4.875 -0.125 C5.77992187 -0.14820313 6.68484375 -0.17140625 7.6171875 -0.1953125 C10 0 10 0 12 2 C10.7625 2.04125 9.525 2.0825 8.25 2.125 C7.20585938 2.15980469 7.20585938 2.15980469 6.140625 2.1953125 C3.69844025 1.97248542 2.11363229 1.20915 0 0 Z " fill="#000000" transform="translate(81,3)"/>
<path d="M0 0 C0.33 1.32 0.66 2.64 1 4 C-0.98 4.33 -2.96 4.66 -5 5 C-5 4.34 -5 3.68 -5 3 C-4.34 3 -3.68 3 -3 3 C-3 2.34 -3 1.68 -3 1 C-2.01 0.67 -1.02 0.34 0 0 Z " fill="#000000" transform="translate(75,71)"/>
<path d="M0 0 C0.33 0 0.66 0 1 0 C1 3.3 1 6.6 1 10 C-1 8 -1 8 -1.1875 4.4375 C-1 1 -1 1 0 0 Z " fill="#FEFEFE" transform="translate(132,57)"/>
<path d="M0 0 C1.65 0 3.3 0 5 0 C5 1.32 5 2.64 5 4 C1.125 2.25 1.125 2.25 0 0 Z " fill="#000000" transform="translate(92,14)"/>
<path d="M0 0 C1.32 0.66 2.64 1.32 4 2 C4 2.66 4 3.32 4 4 C3.34 4 2.68 4 2 4 C2 3.34 2 2.68 2 2 C0.02 2.99 0.02 2.99 -2 4 C-1.34 2.68 -0.68 1.36 0 0 Z " fill="#000000" transform="translate(119,75)"/>
<path d="M0 0 C0.99 0.33 1.98 0.66 3 1 C2.67 1.66 2.34 2.32 2 3 C-0.0625 3.625 -0.0625 3.625 -2 4 C-1.34 2.68 -0.68 1.36 0 0 Z " fill="#000000" transform="translate(78,73)"/>
<path d="M0 0 C2.97 0 5.94 0 9 0 C9 0.33 9 0.66 9 1 C6.03 1 3.06 1 0 1 C0 0.67 0 0.34 0 0 Z " fill="#000000" transform="translate(82,0)"/>
<path d="M0 0 C0.66 0 1.32 0 2 0 C2 0.66 2 1.32 2 2 C2.66 2.33 3.32 2.66 4 3 C2.68 2.67 1.36 2.34 0 2 C0 1.34 0 0.68 0 0 Z " fill="#B6B6B6" transform="translate(24,76)"/>
<path d="M0 0 C0.99 0 1.98 0 3 0 C3 0.66 3 1.32 3 2 C2.01 2 1.02 2 0 2 C0 1.34 0 0.68 0 0 Z " fill="#000000" transform="translate(63,77)"/>
<path d="M0 0 C0.33 0.99 0.66 1.98 1 3 C0.01 2.67 -0.98 2.34 -2 2 C-1.34 1.34 -0.68 0.68 0 0 Z " fill="#555555" transform="translate(103,70)"/>
<path d="M0 0 C0.33 1.32 0.66 2.64 1 4 C0.34 3.34 -0.32 2.68 -1 2 C-0.67 1.34 -0.34 0.68 0 0 Z " fill="#999999" transform="translate(132,69)"/>
<path d="M0 0 C0.66 0.33 1.32 0.66 2 1 C1.01 1 0.02 1 -1 1 C-0.67 0.67 -0.34 0.34 0 0 Z " fill="#000000" transform="translate(79,77)"/>
<path d="M0 0 C0.99 1.485 0.99 1.485 2 3 C1.34 3 0.68 3 0 3 C0 2.01 0 1.02 0 0 Z " fill="#7F7F7F" transform="translate(93,70)"/>
<path d="M0 0 C3 1 3 1 3 1 Z " fill="#000000" transform="translate(72,78)"/>
<path d="M0 0 C0.66 0 1.32 0 2 0 C1.67 0.66 1.34 1.32 1 2 C0.67 1.34 0.34 0.68 0 0 Z " fill="#010101" transform="translate(122,47)"/>
<path d="" fill="#FFFFFF" transform="translate(0,0)"/>
<path d="M0 0 C3 1 3 1 3 1 Z " fill="#000000" transform="translate(81,6)"/>
<path d="" fill="#FFFFFF" transform="translate(0,0)"/>
<path d="" fill="#FFFFFF" transform="translate(0,0)"/>
<path d="" fill="#FEFEFE" transform="translate(0,0)"/>
<path d="" fill="#808080" transform="translate(0,0)"/>
<path d="M0 0 C2 1 2 1 2 1 Z " fill="#010101" transform="translate(127,50)"/>
<path d="" fill="#FEFEFE" transform="translate(0,0)"/>
<path d="" fill="#000000" transform="translate(0,0)"/>
<path d="" fill="#000000" transform="translate(0,0)"/>
<path d="" fill="#000000" transform="translate(0,0)"/>
<path d="" fill="#000000" transform="translate(0,0)"/>
<path d="" fill="#000000" transform="translate(0,0)"/>
<path d="" fill="#000000" transform="translate(0,0)"/>
<path d="" fill="#000000" transform="translate(0,0)"/>
<path d="" fill="#000000" transform="translate(0,0)"/>
<path d="" fill="#FFFFFF" transform="translate(0,0)"/>
<path d="" fill="#000000" transform="translate(0,0)"/>
<path d="" fill="#000000" transform="translate(0,0)"/>
<path d="" fill="#010101" transform="translate(0,0)"/>
<path d="" fill="#030303" transform="translate(0,0)"/>
<path d="" fill="#FEFEFE" transform="translate(0,0)"/>
<path d="" fill="#060606" transform="translate(0,0)"/>
<path d="" fill="#030303" transform="translate(0,0)"/>
<path d="" fill="#FEFEFE" transform="translate(0,0)"/>
<path d="" fill="#000000" transform="translate(0,0)"/>
<path d="" fill="#010101" transform="translate(0,0)"/>
<path d="" fill="#010101" transform="translate(0,0)"/>
<path d="" fill="#FFFFFF" transform="translate(0,0)"/>
<path d="" fill="#FFFFFF" transform="translate(0,0)"/>
<path d="" fill="#FFFFFF" transform="translate(0,0)"/>
<path d="" fill="#FAFAFA" transform="translate(0,0)"/>
<path d="" fill="#FFFFFF" transform="translate(0,0)"/>
<path d="" fill="#FFFFFF" transform="translate(0,0)"/>
<path d="" fill="#FFFFFF" transform="translate(0,0)"/>
<path d="" fill="#FFFFFF" transform="translate(0,0)"/>
<path d="" fill="#F7F7F7" transform="translate(0,0)"/>
<path d="" fill="#FFFFFF" transform="translate(0,0)"/>
<path d="" fill="#FEFEFE" transform="translate(0,0)"/>
<path d="" fill="#020202" transform="translate(0,0)"/>
<path d="" fill="#FFFFFF" transform="translate(0,0)"/>
<path d="" fill="#FEFEFE" transform="translate(0,0)"/>
<path d="" fill="#FEFEFE" transform="translate(0,0)"/>
<path d="" fill="#FFFFFF" transform="translate(0,0)"/>
<path d="" fill="#010101" transform="translate(0,0)"/>
<path d="" fill="#FEFEFE" transform="translate(0,0)"/>
</svg>
