<?xml version="1.0" encoding="UTF-8"?>
<svg version="1.1" xmlns="http://www.w3.org/2000/svg" width="768" height="369">
<path d="M0 0 C75.42857143 0 75.42857143 0 90 8 C90 8.66 90 9.32 90 10 C90.55945313 10.08121094 91.11890625 10.16242188 91.6953125 10.24609375 C101.31538008 13.39299721 108.52808783 25.02658726 113.125 33.5 C120.2859294 48.83068973 120.57579411 63.52970427 120.4609375 80.14453125 C120.45854698 82.44943641 120.45764904 84.75434354 120.4581604 87.05924988 C120.45505238 91.86083391 120.43863704 96.66211514 120.41162109 101.46362305 C120.37754845 107.59404725 120.36999658 113.7241417 120.37151146 119.85464954 C120.37096587 124.60321656 120.35997002 129.35171265 120.34550858 134.10025597 C120.33918233 136.36031243 120.33521155 138.62037684 120.33372116 140.88044167 C120.32934887 144.04258355 120.31176702 147.20438695 120.29052734 150.36645508 C120.29143372 151.28359787 120.29234009 152.20074066 120.29327393 153.14567566 C120.13711652 169.17310381 115.43146191 184.58966998 105 197 C104.34 197 103.68 197 103 197 C102.73445313 197.59296875 102.46890625 198.1859375 102.1953125 198.796875 C98.5919221 205.43841809 91.62606735 208.98651431 85.125 212.3125 C84.47772949 212.64991211 83.83045898 212.98732422 83.16357422 213.33496094 C59.60354382 224.89579947 17.09754535 218 0 218 C0 146.06 0 74.12 0 0 Z M31 31 C30.82642421 44.99992005 30.66015015 58.99991987 30.5 73 C30.48812275 74.03792191 30.4762455 75.07584381 30.46400833 76.1452179 C30.14317862 104.34715239 29.90206796 132.54609404 29.9375 160.75 C29.93835602 161.43654663 29.93921204 162.12309326 29.94009399 162.83044434 C29.95093357 170.88699109 29.97005801 178.94350067 30 187 C34.53487644 187.07479497 39.06938482 187.12890262 43.60473633 187.16479492 C45.14386255 187.17977543 46.68294688 187.2001671 48.22192383 187.22631836 C60.42776995 187.51508953 60.42776995 187.51508953 72 184 C72.68570068 183.68184326 73.37140137 183.36368652 74.07788086 183.03588867 C80.4541851 179.5995037 85.44342272 172.47741299 87.62353516 165.66796875 C90.07631117 156.17057594 89.4300643 146.17241007 89.3984375 136.4375 C89.40046176 134.23754785 89.40337612 132.03759636 89.40713501 129.83764648 C89.41154176 125.24163381 89.40518053 120.64579683 89.39111328 116.04980469 C89.37402259 110.18261221 89.38387263 104.31583157 89.40183067 98.44865417 C89.41271312 93.91024722 89.40920173 89.3719366 89.4014473 84.83352661 C89.39945761 82.67115224 89.40186086 80.5087689 89.40888596 78.34640503 C89.71375636 56.88486075 89.71375636 56.88486075 79 39 C69.47933395 30.40346181 59.10258336 30.60800364 47 30.8125 C45.44662752 30.82757027 43.89324094 30.84125454 42.33984375 30.85351562 C38.55954385 30.88634503 34.77992937 30.93799746 31 31 Z " fill="#000000" transform="translate(53,73)"/>
<path d="M0 0 C82.98227163 0 82.98227163 0 103.6875 19.3125 C119.96162606 36.12524962 120.47047141 56.64769541 120.43359375 78.55078125 C120.43816379 80.93767952 120.44347179 83.32457647 120.44947815 85.71147156 C120.45837782 90.69824592 120.45602253 95.68485987 120.44604492 100.67163086 C120.43456822 107.02261411 120.45476376 113.37304024 120.48396206 119.72395039 C120.50242027 124.64944402 120.50201234 129.57480657 120.49632454 134.50032616 C120.49617245 136.83999601 120.50212215 139.1796754 120.51461601 141.5193119 C120.61648326 163.72137702 118.03529975 182.54179323 103 200 C102.34 200 101.68 200 101 200 C100.67 200.99 100.34 201.98 100 203 C97.9221528 204.58283938 95.89237678 205.99191192 93.6875 207.375 C92.74668579 207.97054687 92.74668579 207.97054687 91.78686523 208.578125 C63.72835906 225.90806649 36.16700894 218 1 218 C0.67 146.06 0.34 74.12 0 0 Z M31 31 C31 82.48 31 133.96 31 187 C56.21594051 188.97914937 56.21594051 188.97914937 78 180 C86.76609055 170.99756877 89.30871599 162.34518061 89.2746582 149.99487305 C89.27976913 149.02626343 89.28488007 148.05765381 89.29014587 147.05969238 C89.3039766 143.87697057 89.3030898 140.69446693 89.30078125 137.51171875 C89.30467213 135.2850588 89.30900761 133.05839959 89.31376648 130.83174133 C89.32121498 126.17076204 89.32094761 121.50985851 89.31567383 116.84887695 C89.30988519 110.89754423 89.32680249 104.94652333 89.3500185 98.99524212 C89.36480413 94.39765125 89.3656209 89.80013462 89.36250877 85.20252419 C89.36301969 83.0094421 89.36821401 80.8163556 89.37832069 78.62329674 C89.39075973 75.54643312 89.38384844 72.47016577 89.37231445 69.39331055 C89.37995819 68.50100235 89.38760193 67.60869415 89.39547729 66.68934631 C89.30089378 55.18193378 86.25996746 46.60524145 78.37109375 38.28125 C65.64848776 26.23757658 46.961845 31 31 31 Z " fill="#000000" transform="translate(459,73)"/>
<path d="M0 0 C1.02101807 0.00161133 2.04203613 0.00322266 3.09399414 0.00488281 C11.03017424 0.13346519 17.54419881 1.1838141 24.875 4.375 C25.91333984 4.77332031 25.91333984 4.77332031 26.97265625 5.1796875 C41.6457331 11.50688696 52.31680105 24.1205617 58.875 38.375 C59.46429864 40.00438555 60.00978457 41.65061584 60.5 43.3125 C60.73976563 44.10527344 60.97953125 44.89804688 61.2265625 45.71484375 C62.87319203 52.46999262 63.02350025 59.0046071 63.02026367 65.92504883 C63.02362228 66.96339371 63.0269809 68.00173859 63.03044128 69.07154846 C63.03991178 72.49172168 63.04189244 75.91184574 63.04296875 79.33203125 C63.04618403 81.71945719 63.04954831 84.10688294 63.05305481 86.49430847 C63.05903631 91.49498959 63.06089571 96.49565345 63.06030273 101.49633789 C63.06020117 107.88827681 63.0738523 114.28010452 63.09107494 120.6720171 C63.1022207 125.60239668 63.10422115 130.5327496 63.10369301 135.46314049 C63.10486928 137.81892976 63.10927115 140.1747198 63.11702538 142.5304966 C63.12687724 145.83266506 63.12392668 149.13459486 63.11791992 152.43676758 C63.12353943 153.39969727 63.12915894 154.36262695 63.13494873 155.35473633 C63.06846076 169.81678703 59.12575109 185.24001098 49.3125 196.25 C48.508125 196.95125 47.70375 197.6525 46.875 198.375 C45.699375 199.5815625 45.699375 199.5815625 44.5 200.8125 C43.63375 201.658125 42.7675 202.50375 41.875 203.375 C41.39675781 203.849375 40.91851563 204.32375 40.42578125 204.8125 C27.79237012 216.55881931 12.07298069 219.02347323 -4.484375 218.5859375 C-19.80922342 217.97123945 -33.30018248 211.22083659 -44.125 200.375 C-44.455 199.385 -44.785 198.395 -45.125 197.375 C-46.115 197.045 -47.105 196.715 -48.125 196.375 C-55.42671563 188.31652393 -61.21750422 174.36990286 -61.27217102 163.50172424 C-61.27932632 162.52214249 -61.28648163 161.54256073 -61.29385376 160.53329468 C-61.29654266 159.46471222 -61.29923157 158.39612976 -61.30200195 157.29516602 C-61.31185875 155.59923058 -61.31185875 155.59923058 -61.32191467 153.86903381 C-61.34164422 150.12232393 -61.35331214 146.37565422 -61.36328125 142.62890625 C-61.36735678 141.34695814 -61.3714323 140.06501003 -61.37563133 138.74421501 C-61.39434401 132.65359513 -61.40890656 126.56299528 -61.4172433 120.47235256 C-61.42698799 113.47056652 -61.45323577 106.46909894 -61.49374419 99.46742493 C-61.52772893 93.38164474 -61.53940379 87.29599664 -61.54344749 81.21012688 C-61.5483005 78.63351221 -61.55987748 76.05690063 -61.57848549 73.48034859 C-61.75444235 47.49257544 -61.75444235 47.49257544 -57.125 37.375 C-56.82354568 36.71464249 -56.52209137 36.05428497 -56.21150208 35.37391663 C-55.43149981 33.82994584 -54.53435583 32.34650307 -53.625 30.875 C-53.0578125 29.9365625 -52.490625 28.998125 -51.90625 28.03125 C-50.10131423 25.33967912 -48.27228129 22.80389195 -46.125 20.375 C-45.465 20.375 -44.805 20.375 -44.125 20.375 C-43.87234375 19.776875 -43.6196875 19.17875 -43.359375 18.5625 C-41.97044835 16.10111099 -40.66351724 15.00712082 -38.375 13.375 C-37.29605469 12.60542969 -37.29605469 12.60542969 -36.1953125 11.8203125 C-35.51210938 11.34335938 -34.82890625 10.86640625 -34.125 10.375 C-32.701875 9.323125 -32.701875 9.323125 -31.25 8.25 C-27.06894718 5.74136831 -22.72171155 3.98148656 -18.125 2.375 C-17.09503906 2.0140625 -16.06507813 1.653125 -15.00390625 1.28125 C-9.95596973 0.10187309 -5.16833471 -0.00843879 0 0 Z M-15.125 35.375 C-16.6409375 36.179375 -16.6409375 36.179375 -18.1875 37 C-18.826875 37.45375 -19.46625 37.9075 -20.125 38.375 C-20.125 39.035 -20.125 39.695 -20.125 40.375 C-20.71890533 40.61046539 -21.31281067 40.84593079 -21.92471313 41.08853149 C-26.14877469 43.55826498 -27.97096695 47.67351773 -29.56572723 52.19298553 C-31.76682596 60.78061854 -30.92676565 70.25187212 -30.8515625 79.0390625 C-30.85052356 81.44176227 -30.85156568 83.84446376 -30.85458374 86.24716187 C-30.854405 91.26529557 -30.833689 96.28278196 -30.79736328 101.30078125 C-30.75194156 107.71410481 -30.75091697 114.12648626 -30.76439857 120.53992653 C-30.77109879 125.49525237 -30.75778016 130.45036565 -30.73814011 135.40565109 C-30.73047507 137.76979839 -30.72812342 140.13396941 -30.7313118 142.49812698 C-30.73205827 145.80731087 -30.70667403 149.11531139 -30.67431641 152.42431641 C-30.67927124 153.38874161 -30.68422607 154.35316681 -30.68933105 155.34681702 C-30.54542799 164.62457597 -27.86987595 172.78001019 -21.125 179.375 C-12.60054865 186.05328957 -4.8990922 188.15480874 5.875 187.375 C14.28103341 185.58355026 20.52743752 182.09373235 25.875 175.375 C29.1056111 169.90206243 31.98620445 164.50356834 32.02217102 158.05735779 C32.02932632 157.17578506 32.03648163 156.29421234 32.04385376 155.38592529 C32.04654266 154.42124329 32.04923157 153.45656128 32.05200195 152.46264648 C32.05857315 151.44439285 32.06514435 150.42613922 32.07191467 149.37702942 C32.09165771 146.00005012 32.10331451 142.62311539 32.11328125 139.24609375 C32.11735678 138.09187487 32.1214323 136.93765598 32.12563133 135.74846077 C32.1464995 129.63561303 32.16079623 123.52278777 32.17016602 117.40991211 C32.18121288 111.10742435 32.21559116 104.80529136 32.25533772 98.50292873 C32.28153782 93.6480292 32.28986105 88.7932136 32.29344749 83.93824959 C32.29830712 81.61593298 32.30990317 79.29361996 32.32848549 76.9713726 C32.35294117 73.71167168 32.35189943 70.4528806 32.3449707 67.19311523 C32.36418579 65.76734665 32.36418579 65.76734665 32.38378906 64.31277466 C32.30825363 54.50823201 29.06485118 46.49656128 22.2578125 39.42578125 C14.66948806 32.89484628 7.11045561 30.45933645 -2.8515625 30.91015625 C-7.48012329 31.56743398 -11.1175505 33.02317053 -15.125 35.375 Z " fill="#000000" transform="translate(653.125,72.625)"/>
<path d="M0 0 C4.5206339 -0.07406517 9.040916 -0.12856045 13.56201172 -0.16479492 C15.10048574 -0.17989711 16.63891661 -0.20038046 18.17724609 -0.22631836 C20.38650141 -0.26264074 22.59518848 -0.27971119 24.8046875 -0.29296875 C25.83914505 -0.31619453 25.83914505 -0.31619453 26.89450073 -0.33988953 C28.83544922 -0.34057617 28.83544922 -0.34057617 32 0 C34.17365808 3.26048711 35.08921333 6.34371991 36.125 10.0625 C36.56611809 11.60201904 37.00894028 13.14105045 37.453125 14.6796875 C37.81954102 15.9495752 37.81954102 15.9495752 38.19335938 17.24511719 C39.7049214 22.40748581 41.29110779 27.54694999 42.875 32.6875 C43.38728149 34.35135742 43.38728149 34.35135742 43.90991211 36.04882812 C46.4125288 44.15220337 48.9796052 52.23379247 51.56811523 60.31005859 C53.26474799 65.62458969 54.88988547 70.95281855 56.4375 76.3125 C58.54549417 83.60134003 60.81774271 90.83442256 63.125 98.0625 C63.46200928 99.12186768 63.79901855 100.18123535 64.14624023 101.27270508 C65.95518347 106.91082435 67.86501786 112.47689402 70 118 C76.63361709 98.58173553 76.63361709 98.58173553 82.39282227 78.89306641 C83.74506327 73.84604491 85.28741522 68.90157051 87.0078125 63.96875 C88.14724883 60.55941294 89.16693458 57.12180299 90.19238281 53.67675781 C91.51036436 49.30845378 92.91601312 44.96870539 94.3125 40.625 C96.95467092 32.37209312 99.50731388 24.09737453 101.95825195 15.78564453 C103.53001163 10.47596478 105.24639573 5.2608128 107 0 C117.89 0 128.78 0 140 0 C136.63113667 13.47545334 136.63113667 13.47545334 134.9140625 18.4453125 C134.54289307 19.53384521 134.17172363 20.62237793 133.78930664 21.74389648 C133.21297485 23.41754272 133.21297485 23.41754272 132.625 25.125 C129.64532963 33.8938132 126.82190759 42.65338221 124.49658203 51.61962891 C123.18153117 56.64329479 123.18153117 56.64329479 121.99609375 58.97265625 C120.7901723 61.42706108 120.24078675 63.93141427 119.61181641 66.58203125 C118.33922299 71.61146669 116.72740004 76.54731941 115.1875 81.5 C114.82857666 82.65983398 114.46965332 83.81966797 114.09985352 85.01464844 C113.06883569 88.34380756 112.03485283 91.67203133 111 95 C110.53643525 96.49478451 110.0728898 97.989575 109.609375 99.484375 C107.87778282 105.04855788 106.1279704 110.60624129 104.3515625 116.15625 C101.18299995 126.06052095 98.08508783 135.97718382 95.13134766 145.94775391 C93.66254779 150.87753027 92.09826782 155.75651863 90.4375 160.625 C88.32013343 166.86173039 86.53402638 173.1497279 84.80883789 179.50244141 C83.34666925 184.85274138 81.69616657 190.10847504 79.89453125 195.35546875 C79.05821776 197.82788897 78.29622166 200.30800875 77.5625 202.8125 C75.56236753 209.60183854 73.26199213 216.29448973 71 223 C70.34 223 69.68 223 69 223 C67.23754231 219.97864396 66.48832547 216.96423171 65.69140625 213.58203125 C64.63269446 209.62831095 63.27278201 205.78007444 61.95556641 201.90625 C60.53581796 197.69560494 59.25145245 193.47071365 58.0625 189.1875 C56.62301522 184.04648294 55.02720394 178.99078941 53.3125 173.9375 C47.46070372 156.65269242 42.21635504 139.16137973 37.02075195 121.66992188 C35.66211674 117.12261456 34.22127564 112.61714291 32.6875 108.125 C29.91135918 99.94832799 27.49211157 91.6674669 25.03610229 83.39031982 C22.32746124 74.2741423 19.46014482 65.22987109 16.38989258 56.22827148 C14.26223391 49.93527577 12.43518282 43.59097735 10.70214844 37.17944336 C8.86014482 30.38648225 6.64864487 23.75147278 4.34179688 17.10302734 C3.63931791 15.07043675 2.94454263 13.035314 2.25 11 C1.82203125 9.7625 1.3940625 8.525 0.953125 7.25 C0 4 0 4 0 0 Z " fill="#000000" transform="translate(264,73)"/>
<path d="M0 0 C0.66 0 1.32 0 2 0 C2.36460327 1.09707275 2.36460327 1.09707275 2.73657227 2.21630859 C4.46556093 7.41198798 6.20197127 12.60477288 7.96484375 17.7890625 C11.33626533 27.74246252 14.56479432 37.67825793 17.27709961 47.83227539 C18.80884348 53.5008269 20.72794779 58.97102729 22.76171875 64.48046875 C24.08543641 68.24283345 25.21936646 72.04134087 26.3125 75.875 C28.3441464 82.98658693 30.63342592 89.99316002 33 97 C35.58785122 104.66679472 38.04860154 112.34263583 40.27734375 120.12109375 C41.57333587 124.62203935 42.99609297 129.06277585 44.5 133.5 C46.23410862 138.61642573 47.82507291 143.74628096 49.3125 148.9375 C51.34905883 156.02578267 53.6416835 163.01267953 56 170 C58.58452766 177.65754851 61.05236898 185.32195566 63.26635742 193.09472656 C64.98354639 199.08611884 66.99825596 204.95508449 69.08203125 210.828125 C69.92993142 213.75789071 70.1987943 215.97832671 70 219 C63.01467635 219.87905197 56.03321431 220.15939498 49 220.25 C48.16299561 220.27126953 47.32599121 220.29253906 46.46362305 220.31445312 C45.27506714 220.3212207 45.27506714 220.3212207 44.0625 220.328125 C43.35222656 220.3374707 42.64195312 220.34681641 41.91015625 220.35644531 C39.392442 219.88662645 38.65245769 218.92743468 37 217 C35.96470226 214.19881101 35.06069877 211.45703695 34.22265625 208.59765625 C33.97003525 207.76471542 33.71741425 206.9317746 33.45713806 206.07359314 C32.64993568 203.40584118 31.85581054 200.7344123 31.0625 198.0625 C30.01474832 194.57330431 28.96228552 191.08553401 27.91015625 187.59765625 C27.52901924 186.329823 27.52901924 186.329823 27.1401825 185.03637695 C25.21415612 178.64828809 23.1655788 172.31116446 21 166 C16.96729144 154.13191123 12.95246646 142.30788766 9.73168945 130.18969727 C8.16085336 124.35391706 6.19237011 118.75490861 4.015625 113.11328125 C2.9170336 109.74567608 2.40654297 106.51306156 2 103 C1.34 103 0.68 103 0 103 C-0.17088135 103.72050537 -0.3417627 104.44101074 -0.51782227 105.18334961 C-2.35582399 112.75299053 -4.53255842 120.15527993 -6.9375 127.5625 C-7.43926758 129.13161133 -7.43926758 129.13161133 -7.95117188 130.73242188 C-9.58078957 135.79083057 -11.27652666 140.80869477 -13.12109375 145.79296875 C-14.69944315 150.08156844 -15.97859754 154.3268724 -17.125 158.75 C-20.3623394 170.84982398 -24.37350273 182.71666049 -28.25398254 194.62127686 C-30.27581868 200.83033539 -32.22969486 207.05894281 -34.16015625 213.296875 C-34.75282556 215.20444319 -35.36832973 217.10498919 -36 219 C-46.89 219 -57.78 219 -69 219 C-68.21732172 215.08660859 -67.28972907 211.49090603 -66.109375 207.6953125 C-65.54319458 205.87108765 -65.54319458 205.87108765 -64.96557617 204.01000977 C-64.5605096 202.71496726 -64.15531523 201.41996471 -63.75 200.125 C-63.33758454 198.80071916 -62.9252312 197.47641897 -62.51293945 196.15209961 C-60.11357479 188.46283359 -57.63115358 180.80998417 -55.0390625 173.18359375 C-53.95180924 169.85234786 -52.99699578 166.50210061 -52.0625 163.125 C-50.6081836 157.90588068 -48.91188487 152.83726505 -47.0625 147.75 C-44.6420856 141.08285853 -42.65821412 134.372069 -40.82446289 127.52270508 C-39.25575203 121.73474627 -37.31537299 116.14632777 -35.23828125 110.51953125 C-33.91456359 106.75716655 -32.78063354 102.95865913 -31.6875 99.125 C-29.6558536 92.01341307 -27.36657408 85.00683998 -25 78 C-22.41214878 70.33320528 -19.95139846 62.65736417 -17.72265625 54.87890625 C-16.06673797 49.12794683 -14.1691414 43.47198679 -12.24609375 37.8046875 C-10.90323243 33.77715182 -9.7315518 29.70572288 -8.5625 25.625 C-6.07176772 16.95107247 -3.08741678 8.47713406 0 0 Z " fill="#000000" transform="translate(238,72)"/>
<path d="M0 0 C1.49400964 0.00056958 1.49400964 0.00056958 3.01820129 0.00115067 C4.73501849 -0.00183591 4.73501849 -0.00183591 6.48651886 -0.00488281 C7.75983706 -0.00196997 9.03315526 0.00094287 10.34505886 0.00394398 C11.69885664 0.0035084 13.05265434 0.00263373 14.40645158 0.00135481 C18.14391911 -0.00089268 21.88135825 0.0031346 25.61882216 0.00813287 C29.6427004 0.01243356 33.66657692 0.01099122 37.69045681 0.0102306 C44.66785798 0.00970512 51.64524983 0.01285441 58.62264866 0.01846844 C68.71091467 0.02658021 78.79917616 0.02919833 88.88744508 0.03045643 C105.25323732 0.03264746 121.61902458 0.03930892 137.98481411 0.04875904 C153.88683208 0.05793185 169.78884871 0.06501332 185.69086879 0.06926686 C186.67034062 0.06952958 187.64981245 0.0697923 188.65896524 0.07006299 C193.57246997 0.07136798 198.4859747 0.0726317 203.39947945 0.07387489 C244.19054192 0.08424909 284.9815982 0.10214314 325.7726559 0.1241985 C325.7726559 8.7041985 325.7726559 17.2841985 325.7726559 26.1241985 C214.8926559 26.1241985 104.0126559 26.1241985 -10.2273441 26.1241985 C-9.58548131 22.27302179 -9.00215015 19.05319708 -7.8523441 15.41716725 C-7.58937535 14.58378834 -7.3264066 13.75040943 -7.0554691 12.89177662 C-6.78218785 12.04035084 -6.5089066 11.18892506 -6.2273441 10.3116985 C-5.81742222 9.00555592 -5.81742222 9.00555592 -5.3992191 7.67302662 C-3.01258041 0.1679839 -3.01258041 0.1679839 0 0 Z " fill="#000000" transform="translate(384.22734409570694,32.875801503658295)"/>
<path d="M0 0 C10.23 0 20.46 0 31 0 C31 71.94 31 143.88 31 218 C20.77 218 10.54 218 0 218 C0 146.06 0 74.12 0 0 Z " fill="#000000" transform="translate(414,73)"/>
<path d="M0 0 C1.06098372 0.00092179 2.12196745 0.00184359 3.2151022 0.00279331 C4.42811504 0.00141865 5.64112789 0.00004398 6.8908987 -0.00137234 C8.24737478 0.00216727 9.60385061 0.00580208 10.96032619 0.00952244 C12.37917485 0.00980431 13.79802365 0.00964658 15.21687222 0.00907993 C19.08033881 0.00879194 22.94377463 0.01468892 26.80723405 0.02165389 C30.84047653 0.02788716 34.87371965 0.02849121 38.90696621 0.0296793 C46.54970549 0.03279269 54.19243053 0.04100619 61.83516353 0.05102879 C70.53393099 0.06218967 79.23269911 0.06770031 87.93147194 0.07272422 C105.83033965 0.0831888 123.72919408 0.1007884 141.6280508 0.12304783 C141.32985063 1.85261592 141.02701295 3.58138476 140.72228909 5.30981541 C140.55415707 6.27260914 140.38602505 7.23540287 140.21279812 8.22737217 C139.33924755 12.55320496 137.964501 16.65345625 136.5030508 20.81054783 C136.22590237 21.61943455 135.94875393 22.42832127 135.66320705 23.2617197 C134.99184794 25.21792126 134.31099427 27.17086038 133.6280508 29.12304783 C128.81997628 29.90590099 124.24678687 30.23138321 119.3780508 30.18554783 C117.94706123 30.17773366 116.51607165 30.16992123 115.08508205 30.16211033 C112.90195628 30.1439931 110.7188616 30.12393792 108.53576565 30.10254002 C99.33193657 30.02057482 90.16127466 30.15507204 80.96278286 30.50331211 C63.56219971 31.15934333 46.23784832 31.08292087 28.83148098 30.72815037 C25.175885 30.65540737 21.52012779 30.59185581 17.86437893 30.5273447 C10.78542903 30.40116408 3.70669398 30.26548533 -3.3719492 30.12304783 C-3.39660665 26.01132223 -3.41478878 21.89962505 -3.42688084 17.78784275 C-3.43191999 16.38809555 -3.43875136 14.98835363 -3.44738865 13.588624 C-3.45947239 11.58059006 -3.46464726 9.57251825 -3.46960545 7.56445408 C-3.47484226 6.35474949 -3.48007908 5.1450449 -3.48547459 3.89868259 C-3.33308782 0.1729081 -3.33308782 0.1729081 0 0 Z " fill="#000000" transform="translate(55.371949195861816,306.8769521713257)"/>
</svg>
