<?xml version="1.0" encoding="UTF-8"?>
<svg version="1.1" xmlns="http://www.w3.org/2000/svg" width="1000" height="163">
<path d="M0 0 C49.44386694 0 49.44386694 0 63.25 12.625 C72.07371777 21.93098574 75.53479341 33.8236658 75.30859375 46.37109375 C74.31021175 58.1115606 68.70170558 67.77645207 60.25 75.8125 C55.66904145 79.59871135 50.48209306 81.81207945 45 84 C42.525 84.99 42.525 84.99 40 86 C26.8 86 13.6 86 0 86 C0 57.62 0 29.24 0 0 Z M12 12 C11.67 32.46 11.34 52.92 11 74 C35.15251332 75.1158401 35.15251332 75.1158401 55 65 C62.43410403 56.13626058 63.99253597 47.38275428 63 36 C61.13987406 27.86891056 56.60033046 21.12387305 49.6875 16.4296875 C37.0872333 9.1762445 29.25917034 12 12 12 Z " fill="#000000" transform="translate(696,43)"/>
<path d="M0 0 C49.4049904 0 49.4049904 0 62.15625 12.03515625 C70.68506504 21.05724231 74.32570382 30.63872742 75.3125 42.875 C74.89077175 55.17954174 69.53999411 66.26140138 61 75 C42.59882541 90.06959351 23.90811476 86 0 86 C0 57.62 0 29.24 0 0 Z M11 12 C11 32.46 11 52.92 11 74 C34.78647591 75.45884765 34.78647591 75.45884765 54.28125 64.92578125 C60.8913129 57.51950623 63.51726278 50.06579772 63.30859375 40.16015625 C62.43801732 31.24501278 58.79673774 23.85422138 52 18 C38.58259575 8.91152178 29.72198734 12 11 12 Z " fill="#000000" transform="translate(32,43)"/>
<path d="M0 0 C7.23688866 6.5685136 14.23993841 15.79762498 15.17700195 25.91015625 C15.57984928 40.0595667 14.70603866 50.95438699 5 62 C4.24783203 62.90878906 4.24783203 62.90878906 3.48046875 63.8359375 C-3.1104398 71.18055093 -13.62947205 76.37883741 -23.4453125 77.3359375 C-36.86650338 77.47841299 -47.99241186 74.50610282 -57.93359375 65.1875 C-67.32786621 55.16694271 -70.51239168 43.67466733 -70.24609375 30.203125 C-69.37250374 18.83258841 -63.68451511 8.69795732 -55.48046875 0.890625 C-38.64924533 -11.93821301 -17.05313602 -12.87131604 0 0 Z M-49 11 C-49.56589844 11.53753906 -50.13179687 12.07507813 -50.71484375 12.62890625 C-56.52949907 18.75633031 -58.14219873 25.17735465 -58.375 33.5 C-58.14508495 42.07683116 -56.07068832 49.70279346 -50 56 C-42.83224755 61.92664356 -34.73443998 65.67487205 -25.3203125 65.28125 C-15.36497127 64.07454197 -7.99253599 59.96422744 -1.6875 52.1875 C3.48141738 44.7510194 5.08909433 36.97265218 4 28 C1.94935293 19.05283155 -1.99695235 12.23186999 -9.76953125 7.2109375 C-23.13699877 -0.03048906 -37.55522459 0.11850212 -49 11 Z " fill="#000000" transform="translate(953,52)"/>
<path d="M0 0 C4.29 0 8.58 0 13 0 C20.40081411 17.17993376 27.71987631 34.39361306 35 51.625 C35.41609528 52.60898773 35.83219055 53.59297546 36.26089478 54.60678101 C37.46665928 57.45876066 38.67104596 60.31131816 39.875 63.1640625 C40.23192429 64.00803085 40.58884857 64.85199921 40.95658875 65.72154236 C41.97810738 68.14482134 42.99075162 70.57158733 44 73 C44.56702637 74.35094757 44.56702637 74.35094757 45.14550781 75.72918701 C45.51256836 76.61954651 45.87962891 77.50990601 46.2578125 78.42724609 C46.59184082 79.23181244 46.92586914 80.03637878 47.27001953 80.86532593 C48 83 48 83 48 86 C44.04 86 40.08 86 36 86 C32 77.25 32 77.25 32 75 C6.755 75.495 6.755 75.495 -19 76 C-20.98 80.95 -20.98 80.95 -23 86 C-27.29 86 -31.58 86 -36 86 C-34.47329233 81.41987699 -32.8158982 77.01227223 -30.9375 72.578125 C-30.63368408 71.85628021 -30.32986816 71.13443542 -30.0168457 70.39071655 C-29.01362627 68.0094592 -28.0069387 65.62968676 -27 63.25 C-26.29681833 61.58384553 -25.59369438 59.9176667 -24.890625 58.25146484 C-16.67411492 38.80006442 -8.34064936 19.39841668 0 0 Z M6 15 C3.31083164 21.35308919 0.62342688 27.70692222 -2.06274414 34.0612793 C-2.97704985 36.22356116 -3.89176146 38.38567145 -4.80688477 40.54760742 C-6.12101899 43.65238307 -7.43369962 46.75776974 -8.74609375 49.86328125 C-9.36175453 51.31653557 -9.36175453 51.31653557 -9.98985291 52.79914856 C-10.37017166 53.6998558 -10.75049042 54.60056305 -11.14233398 55.52856445 C-11.47764633 56.32132278 -11.81295868 57.11408112 -12.15843201 57.93086243 C-12.83574583 59.59615327 -13.43149779 61.29449338 -14 63 C-0.47 63 13.06 63 27 63 C24.834375 57.8025 24.834375 57.8025 22.625 52.5 C17.41666667 40 12.20833333 27.5 7 15 C6.67 15 6.34 15 6 15 Z " fill="#000000" transform="translate(244,43)"/>
<path d="M0 0 C3.96 0 7.92 0 12 0 C17.67324873 10.85554325 22.3196558 22.06513123 27 33.375 C28.17782804 36.21051195 29.35687255 39.04551557 30.53613281 41.88043213 C31.2963831 43.70815216 32.05615821 45.53606992 32.81542969 47.36419678 C35.82339628 54.59952619 38.88854485 61.80857302 42 69 C51.75603408 46.03746664 61.37645668 23.01828188 71 0 C75.29 0 79.58 0 84 0 C82.03468409 6.11987325 79.82426002 12.01433761 77.26171875 17.90625 C76.72505585 19.15287415 76.72505585 19.15287415 76.17755127 20.42468262 C75.0174602 23.11787394 73.85246172 25.80891245 72.6875 28.5 C71.4751312 31.31160419 70.26411235 34.12378711 69.05323792 36.93603516 C68.23530181 38.83561838 67.41697177 40.73503203 66.59825134 42.63427734 C62.36769803 52.45283559 58.1946986 62.29552106 54.03158569 72.14282227 C53.4603064 73.49403165 52.88881525 74.84515148 52.31707764 76.19616699 C51.58176265 77.93389493 50.84736325 79.67201021 50.11303711 81.41015625 C49.44799497 82.95759363 48.75323881 84.49352239 48 86 C44.04 86 40.08 86 36 86 C27.77368468 67.85371622 19.97860089 49.54746442 12.32080078 31.1550293 C11.76560257 29.8216729 11.76560257 29.8216729 11.19918823 28.46138 C10.47588804 26.72357522 9.75315689 24.98553347 9.03103638 23.24723816 C7.42032819 19.37640965 5.79738984 15.51240341 4.12792969 11.66650391 C3.84420502 11.01253128 3.56048035 10.35855865 3.26815796 9.68476868 C2.51890002 7.96506719 1.7643106 6.24769126 1.00927734 4.53051758 C0 2 0 2 0 0 Z " fill="#000000" transform="translate(376,43)"/>
<path d="M0 0 C3.63 0 7.26 0 11 0 C11 28.38 11 56.76 11 86 C7.37 86 3.74 86 0 86 C0 57.62 0 29.24 0 0 Z " fill="#000000" transform="translate(570,43)"/>
</svg>
