<?xml version="1.0" encoding="UTF-8" standalone="no"?>
<!-- Created with Inkscape (http://www.inkscape.org/) -->

<svg
   xmlns:dc="http://purl.org/dc/elements/1.1/"
   xmlns:cc="http://creativecommons.org/ns#"
   xmlns:rdf="http://www.w3.org/1999/02/22-rdf-syntax-ns#"
   xmlns:svg="http://www.w3.org/2000/svg"
   xmlns="http://www.w3.org/2000/svg"
   xmlns:sodipodi="http://sodipodi.sourceforge.net/DTD/sodipodi-0.dtd"
   xmlns:inkscape="http://www.inkscape.org/namespaces/inkscape"
   width="104.5"
   height="83"
   viewBox="0 0 104.5 83.000001"
   id="svg9039"
   version="1.1"
   inkscape:version="0.91 r13725"
   sodipodi:docname="martell cognac.svg">
  <defs
     id="defs9041">
    <clipPath
       id="clipPath7370"
       clipPathUnits="userSpaceOnUse">
      <path
         style="clip-rule:evenodd"
         inkscape:connector-curvature="0"
         id="path7372"
         d="M -1.091e-6,1.8311e-4 720,1.8311e-4 720,540.00018 -1.091e-6,540.00018 l 0,-539.99999689 z" />
    </clipPath>
    <clipPath
       id="clipPath7380"
       clipPathUnits="userSpaceOnUse">
      <path
         inkscape:connector-curvature="0"
         id="path7382"
         d="m 0,0 583.18,0 0,463.67 L 0,463.67 0,0 Z" />
    </clipPath>
    <clipPath
       id="clipPath7394"
       clipPathUnits="userSpaceOnUse">
      <path
         style="clip-rule:evenodd"
         inkscape:connector-curvature="0"
         id="path7396"
         d="m 0,463.67 0,-464.28224 583.8,0 0,464.28224" />
    </clipPath>
    <clipPath
       id="clipPath7404"
       clipPathUnits="userSpaceOnUse">
      <path
         style="clip-rule:evenodd"
         inkscape:connector-curvature="0"
         id="path7406"
         d="m 0,463.67 0,-464.28224 583.8,0 0,464.28224" />
    </clipPath>
    <clipPath
       id="clipPath7414"
       clipPathUnits="userSpaceOnUse">
      <path
         style="clip-rule:evenodd"
         inkscape:connector-curvature="0"
         id="path7416"
         d="m 0,463.67 0,-464.28224 583.8,0 0,464.28224" />
    </clipPath>
    <clipPath
       id="clipPath7424"
       clipPathUnits="userSpaceOnUse">
      <path
         style="clip-rule:evenodd"
         inkscape:connector-curvature="0"
         id="path7426"
         d="m 0,463.67 0,-464.28224 583.8,0 0,464.28224" />
    </clipPath>
    <clipPath
       id="clipPath7434"
       clipPathUnits="userSpaceOnUse">
      <path
         style="clip-rule:evenodd"
         inkscape:connector-curvature="0"
         id="path7436"
         d="m 0,463.67 0,-464.28224 583.8,0 0,464.28224" />
    </clipPath>
    <clipPath
       id="clipPath7444"
       clipPathUnits="userSpaceOnUse">
      <path
         style="clip-rule:evenodd"
         inkscape:connector-curvature="0"
         id="path7446"
         d="m 0,463.67 0,-464.28224 583.8,0 0,464.28224" />
    </clipPath>
    <clipPath
       id="clipPath7454"
       clipPathUnits="userSpaceOnUse">
      <path
         style="clip-rule:evenodd"
         inkscape:connector-curvature="0"
         id="path7456"
         d="m 0,463.67 0,-464.28224 583.8,0 0,464.28224" />
    </clipPath>
    <clipPath
       id="clipPath7464"
       clipPathUnits="userSpaceOnUse">
      <path
         inkscape:connector-curvature="0"
         id="path7466"
         d="m 0,463.67 0,-464.28224 583.8,0 0,464.28224" />
    </clipPath>
    <clipPath
       id="clipPath7474"
       clipPathUnits="userSpaceOnUse">
      <path
         inkscape:connector-curvature="0"
         id="path7476"
         d="m 0,463.67 0,-464.28224 583.8,0 0,464.28224" />
    </clipPath>
    <clipPath
       id="clipPath7484"
       clipPathUnits="userSpaceOnUse">
      <path
         inkscape:connector-curvature="0"
         id="path7486"
         d="m 0,463.67 0,-464.28224 583.8,0 0,464.28224" />
    </clipPath>
    <clipPath
       id="clipPath7494"
       clipPathUnits="userSpaceOnUse">
      <path
         inkscape:connector-curvature="0"
         id="path7496"
         d="m 0,463.67 0,-464.28224 583.8,0 0,464.28224" />
    </clipPath>
    <clipPath
       id="clipPath7504"
       clipPathUnits="userSpaceOnUse">
      <path
         inkscape:connector-curvature="0"
         id="path7506"
         d="m 0,463.67 0,-464.28224 583.8,0 0,464.28224" />
    </clipPath>
    <clipPath
       id="clipPath7514"
       clipPathUnits="userSpaceOnUse">
      <path
         inkscape:connector-curvature="0"
         id="path7516"
         d="m 0,463.67 0,-464.28224 583.8,0 0,464.28224" />
    </clipPath>
    <clipPath
       id="clipPath7524"
       clipPathUnits="userSpaceOnUse">
      <path
         inkscape:connector-curvature="0"
         id="path7526"
         d="m 0,463.67 0,-464.28224 583.8,0 0,464.28224" />
    </clipPath>
    <clipPath
       id="clipPath7534"
       clipPathUnits="userSpaceOnUse">
      <path
         inkscape:connector-curvature="0"
         id="path7536"
         d="m 0,463.67 0,-464.28224 583.8,0 0,464.28224" />
    </clipPath>
    <clipPath
       id="clipPath7544"
       clipPathUnits="userSpaceOnUse">
      <path
         inkscape:connector-curvature="0"
         id="path7546"
         d="m 0,463.67 0,-464.28224 583.8,0 0,464.28224" />
    </clipPath>
    <clipPath
       id="clipPath7554"
       clipPathUnits="userSpaceOnUse">
      <path
         inkscape:connector-curvature="0"
         id="path7556"
         d="m 0,463.67 0,-464.28224 583.8,0 0,464.28224" />
    </clipPath>
    <clipPath
       id="clipPath7564"
       clipPathUnits="userSpaceOnUse">
      <path
         inkscape:connector-curvature="0"
         id="path7566"
         d="m 0,463.67 0,-464.28224 583.8,0 0,464.28224" />
    </clipPath>
    <clipPath
       id="clipPath7574"
       clipPathUnits="userSpaceOnUse">
      <path
         inkscape:connector-curvature="0"
         id="path7576"
         d="m 0,463.67 0,-464.28224 583.8,0 0,464.28224" />
    </clipPath>
    <clipPath
       id="clipPath7584"
       clipPathUnits="userSpaceOnUse">
      <path
         inkscape:connector-curvature="0"
         id="path7586"
         d="m 0,463.67 0,-464.28224 583.8,0 0,464.28224" />
    </clipPath>
    <clipPath
       id="clipPath7594"
       clipPathUnits="userSpaceOnUse">
      <path
         inkscape:connector-curvature="0"
         id="path7596"
         d="m 0,463.67 0,-464.28224 583.8,0 0,464.28224" />
    </clipPath>
    <clipPath
       id="clipPath7604"
       clipPathUnits="userSpaceOnUse">
      <path
         inkscape:connector-curvature="0"
         id="path7606"
         d="m 0,463.67 0,-464.28224 583.8,0 0,464.28224" />
    </clipPath>
    <clipPath
       id="clipPath7614"
       clipPathUnits="userSpaceOnUse">
      <path
         inkscape:connector-curvature="0"
         id="path7616"
         d="m 0,463.67 0,-464.28224 583.8,0 0,464.28224" />
    </clipPath>
    <clipPath
       id="clipPath7624"
       clipPathUnits="userSpaceOnUse">
      <path
         inkscape:connector-curvature="0"
         id="path7626"
         d="m 0,463.67 0,-464.28224 583.8,0 0,464.28224" />
    </clipPath>
    <clipPath
       id="clipPath7634"
       clipPathUnits="userSpaceOnUse">
      <path
         inkscape:connector-curvature="0"
         id="path7636"
         d="m 0,463.67 0,-464.28224 583.8,0 0,464.28224" />
    </clipPath>
    <clipPath
       id="clipPath7644"
       clipPathUnits="userSpaceOnUse">
      <path
         inkscape:connector-curvature="0"
         id="path7646"
         d="m 0,463.67 0,-464.28224 583.8,0 0,464.28224" />
    </clipPath>
    <clipPath
       id="clipPath7654"
       clipPathUnits="userSpaceOnUse">
      <path
         inkscape:connector-curvature="0"
         id="path7656"
         d="m 0,463.67 0,-464.28224 583.8,0 0,464.28224" />
    </clipPath>
    <clipPath
       id="clipPath7664"
       clipPathUnits="userSpaceOnUse">
      <path
         inkscape:connector-curvature="0"
         id="path7666"
         d="m 0,463.67 0,-464.28224 583.8,0 0,464.28224" />
    </clipPath>
    <clipPath
       id="clipPath7360"
       clipPathUnits="userSpaceOnUse">
      <path
         style="clip-rule:evenodd"
         inkscape:connector-curvature="0"
         id="path7362"
         d="m 0,1.2207e-4 720,0 0,539.99999793 -720,0 L 0,1.2207e-4 Z" />
    </clipPath>
  </defs>
  <sodipodi:namedview
     id="base"
     pagecolor="#ffffff"
     bordercolor="#666666"
     borderopacity="1.0"
     inkscape:pageopacity="0.0"
     inkscape:pageshadow="2"
     inkscape:zoom="6.5421687"
     inkscape:cx="52.25"
     inkscape:cy="41.5"
     inkscape:document-units="px"
     inkscape:current-layer="layer1"
     showgrid="false"
     units="px"
     inkscape:window-width="1280"
     inkscape:window-height="744"
     inkscape:window-x="-4"
     inkscape:window-y="-4"
     inkscape:window-maximized="1" />
  <metadata
     id="metadata9044">
    <rdf:RDF>
      <cc:Work
         rdf:about="">
        <dc:format>image/svg+xml</dc:format>
        <dc:type
           rdf:resource="http://purl.org/dc/dcmitype/StillImage" />
        <dc:title></dc:title>
      </cc:Work>
    </rdf:RDF>
  </metadata>
  <g
     inkscape:label="Layer 1"
     inkscape:groupmode="layer"
     id="layer1"
     transform="translate(0,-969.36216)">
    <g
       id="g7386"
       transform="matrix(0.1777361,0,0,-0.1776015,0.40882303,1052.0353)">
      <g
         id="g7388" />
    </g>
    <g
       id="g7390"
       transform="matrix(0.1777361,0,0,-0.1776015,0.40882303,1052.0353)"
       style="fill:#0d1539;fill-opacity:1">
      <g
         id="g7392"
         clip-path="url(#clipPath7394)"
         style="fill:#0d1539;fill-opacity:1">
        <path
           d="m 87.461,252.12 0,0 c 0,0.38 -0.075,0.75 -0.075,1.05 -0.075,0.6 -2.175,54.91 -2.325,59.49 -0.15,4.35 2.025,6.98 6.151,7.2 0.525,0 1.05,0 1.425,0 l 0,2.48 -23.403,0.07 -22.428,-58.81 -22.053,58.81 -23.7029,-0.07 0,-2.48 0.3751,0 c 2.5503,0 5.9257,-1.13 7.4259,-2.7 1.4249,-1.5 1.0502,-3.68 0.9752,-5.93 L 8.4761,251.97 c -0.225,-6.15 -5.1757,-7.73 -8.10105,-7.73 l -0.37505,0 0,-2.62 22.278,0 0,0.22 0,0 0,2.4 -0.525,0 c -2.25,0 -8.551,1.35 -8.251,8.18 l 1.2,53.94 25.128,-64.82 3.676,0.08 26.928,69.99 0.9,-61.67 c 0,-1.57 -0.525,-2.85 -1.5,-3.9 -1.35,-1.35 -3.3,-1.8 -4.576,-1.8 l -0.45,0 0,-2.4 0,0 0,-0.22 31.804,0 0,2.62 -0.375,0 c -3.225,0 -7.801,2.55 -8.776,7.88 z"
           style="fill:#0d1539;fill-opacity:1;fill-rule:nonzero;stroke:none"
           id="path7398"
           inkscape:connector-curvature="0" />
      </g>
    </g>
    <g
       id="g7400"
       transform="matrix(0.1777361,0,0,-0.1776015,0.40882303,1052.0353)"
       style="fill:#0d1539;fill-opacity:1">
      <g
         id="g7402"
         clip-path="url(#clipPath7404)"
         style="fill:#0d1539;fill-opacity:1">
        <path
           d="m 131.49,274.78 0,0 c 6,16.05 12.98,33.68 13.2,34.35 l 11.33,-34.35 -24.53,0 z m 61.66,-30.54 0,0 -0.9,0 c -5.1,0 -9.68,2.7 -11.85,6.9 -0.15,0.23 -0.23,0.53 -0.38,0.83 l -25.8,70.37 -20.4,0 0,-2.33 0,-0.15 0.37,0 c 2.48,0 5.55,-0.6 6.6,-2.25 0.08,-0.15 0.15,-0.3 0.23,-0.38 0.45,-1.2 0.22,-2.55 -0.38,-3.9 l -22.5,-60.38 c -2.7,-5.71 -6.68,-8.71 -14.03,-8.71 l -0.82,0 0,-2.62 28.8,0 0,2.62 -1.5,0 c -0.6,0 -6.15,0.08 -8.1,2.85 -0.07,0.15 -0.15,0.3 -0.22,0.38 -0.3,0.97 0.15,2.02 0.67,3.37 0.45,1.2 3.38,9.01 7.2,19.21 l 26.71,0.07 6.75,-19.35 c 0.67,-1.8 0.6,-3.53 -0.3,-4.8 -0.75,-1.13 -2.85,-1.73 -4.2,-1.73 l -0.6,0 0,-2.4 0.07,0 0,-0.22 34.65,0 0,2.4 -0.07,0 0,0.22 z"
           style="fill:#0d1539;fill-opacity:1;fill-rule:nonzero;stroke:none"
           id="path7408"
           inkscape:connector-curvature="0" />
      </g>
    </g>
    <g
       id="g7410"
       transform="matrix(0.1777361,0,0,-0.1776015,0.40882303,1052.0353)"
       style="fill:#0d1539;fill-opacity:1">
      <g
         id="g7412"
         clip-path="url(#clipPath7414)"
         style="fill:#0d1539;fill-opacity:1">
        <path
           d="m 285.19,244.24 0,0 c -3.75,0 -8.33,2.25 -11.18,5.4 -0.37,0.38 -0.67,0.83 -0.97,1.2 l -24.83,33.76 0.37,0.3 c 11.4,6.9 18.15,13.73 18.3,20.33 0.08,3.75 -1.42,7.35 -4.42,10.35 0,0.08 -0.08,0.08 -0.08,0.15 -0.07,0 -0.07,0 -0.07,0 -4.73,4.96 -14.25,6.61 -25.73,6.61 l -33,0 0,-2.33 0.15,0 0,-0.15 0.52,0 c 2.4,-0.07 4.58,-1.2 6,-2.85 1.05,-1.28 1.73,-2.85 1.73,-4.58 l 0,-59.41 c -0.08,-5.33 -3.98,-8.7 -10.2,-8.78 l -0.23,0 0,-2.4 0,-0.22 36.01,0 0,2.4 0,0.22 -0.9,0 c -2.63,0 -4.73,0.75 -6.23,2.25 -0.23,0.23 -0.45,0.45 -0.6,0.68 -1.2,1.65 -1.8,3.9 -1.8,6.6 l 0,65.27 1.8,0 c 12.08,0 16.28,-0.91 19.2,-3.98 0.15,-0.15 0.38,-0.38 0.53,-0.6 2.17,-2.78 3.45,-6.15 3.37,-9 -0.52,-14.33 -17.62,-24.53 -20.7,-26.18 l 28.35,-37.44 0,0 0.15,-0.22 25.43,0 0,2.62 -0.15,0 -0.82,0 z"
           style="fill:#0d1539;fill-opacity:1;fill-rule:nonzero;stroke:none"
           id="path7418"
           inkscape:connector-curvature="0" />
      </g>
    </g>
    <g
       id="g7420"
       transform="matrix(0.1777361,0,0,-0.1776015,0.40882303,1052.0353)"
       style="fill:#0d1539;fill-opacity:1">
      <g
         id="g7422"
         clip-path="url(#clipPath7424)"
         style="fill:#0d1539;fill-opacity:1">
        <path
           d="m 353.67,322.34 0,0 -14.33,0 -9.6,0 -21.75,0 -23.93,0 -2.47,-16.73 0.22,0 2.4,0 0,0.15 c 1.35,9.07 6.53,12.07 15.15,12.07 l 8.55,0 0,0 2.85,0 0,-64.28 c 0,-5.86 -4.12,-9.31 -11.1,-9.31 l -0.3,0 0,-2.4 0,-0.22 0.15,0 38.78,0 0,2.4 0,0.22 -0.52,0 c -3.75,0 -6.75,1.05 -8.63,2.93 -1.5,1.57 -2.25,3.67 -2.25,6.23 l 0,64.43 3.38,0 0,0 8.47,0 c 4.2,0 7.65,-0.75 10.13,-2.55 2.55,-1.87 4.13,-4.87 4.8,-9.37 l 0.08,-0.3 0.22,0 2.33,0 -2.48,16.73 -0.15,0 z"
           style="fill:#0d1539;fill-opacity:1;fill-rule:nonzero;stroke:none"
           id="path7428"
           inkscape:connector-curvature="0" />
      </g>
    </g>
    <g
       id="g7430"
       transform="matrix(0.1777361,0,0,-0.1776015,0.40882303,1052.0353)"
       style="fill:#0d1539;fill-opacity:1">
      <g
         id="g7432"
         clip-path="url(#clipPath7434)"
         style="fill:#0d1539;fill-opacity:1">
        <path
           d="m 430.63,258.42 0,0 0,-0.15 c -1.35,-9.08 -6.6,-12.08 -15.15,-12.08 l -8.55,0 -13.2,0 0,35.86 16.42,0 c 1.28,0 2.48,-0.3 3.45,-0.9 1.58,-1.12 2.63,-3.07 2.63,-5.85 l 0,-0.3 0,-0.15 2.62,0 0,17.93 -0.22,0 -2.4,0 -0.08,-0.3 c 0.08,-3.08 -2.47,-5.63 -6,-5.7 l -16.42,0 0,30.98 18.3,0 c 3.3,-0.08 6,-0.6 8.17,-1.88 3.08,-1.8 5.03,-4.95 5.78,-9.97 l 0,-0.3 2.7,0 -2.48,16.73 -0.3,0 -12.82,0 -11.1,0 -34.06,0 0,-2.33 0,-0.15 0.38,0 c 2.17,-0.07 4.12,-0.52 5.7,-1.5 0.52,-0.3 0.97,-0.68 1.35,-1.05 1.42,-1.5 2.17,-3.53 2.17,-5.93 l 0,-57.83 c 0,-5.56 -6,-9.31 -11.62,-9.31 l -0.53,0 0,-2.4 0,-0.22 41.48,0 24.01,0 2.47,16.8 -0.3,0 -2.4,0 z"
           style="fill:#0d1539;fill-opacity:1;fill-rule:nonzero;stroke:none"
           id="path7438"
           inkscape:connector-curvature="0" />
      </g>
    </g>
    <g
       id="g7440"
       transform="matrix(0.1777361,0,0,-0.1776015,0.40882303,1052.0353)"
       style="fill:#0d1539;fill-opacity:1">
      <g
         id="g7442"
         clip-path="url(#clipPath7444)"
         style="fill:#0d1539;fill-opacity:1">
        <path
           d="m 504.74,258.27 0,0 c -1.35,-9.08 -6.53,-12.08 -15.15,-12.08 l -6.75,0 -1.8,0 -9.68,0 0,65.34 c 0,6.6 3.68,8.33 9.68,8.33 l 0.67,0 0,2.48 -0.3,0 -37.73,0 0,-2.33 0,-0.15 0.38,0 c 1.42,0 4.35,0.08 6.9,-1.2 2.25,-1.2 4.12,-3.68 4.12,-8.33 l 0,-55.66 c 0,-6.83 -3.75,-10.43 -11.02,-10.43 l -0.38,0 0,-2.4 0,-0.22 37.36,0 1.2,0 22.8,0 2.4,16.8 -2.7,0 0,-0.15 z"
           style="fill:#0d1539;fill-opacity:1;fill-rule:nonzero;stroke:none"
           id="path7448"
           inkscape:connector-curvature="0" />
      </g>
    </g>
    <g
       id="g7450"
       transform="matrix(0.1777361,0,0,-0.1776015,0.40882303,1052.0353)"
       style="fill:#0d1539;fill-opacity:1">
      <g
         id="g7452"
         clip-path="url(#clipPath7454)"
         style="fill:#0d1539;fill-opacity:1">
        <path
           d="m 582.9,258.42 0,0 -2.4,0 0,-0.15 c -1.35,-9.08 -6.53,-12.08 -15.15,-12.08 l -7.5,0 -0.98,0 -9.45,0 0,65.34 c 0,6.6 3.75,8.33 9.68,8.33 l 0.75,0 0,2.48 -0.38,0 -37.73,0 0,-2.48 0.3,0 0.08,0 c 1.35,0 4.05,0.08 6.45,-0.97 2.47,-1.13 4.57,-3.53 4.57,-8.56 l 0,-55.66 c 0,-6.83 -3.75,-10.43 -11.02,-10.43 l -0.38,0 0,-2.62 0,0 37.13,0 1.58,0 22.35,0 2.55,16.8 -0.45,0 z"
           style="fill:#0d1539;fill-opacity:1;fill-rule:nonzero;stroke:none"
           id="path7458"
           inkscape:connector-curvature="0" />
      </g>
    </g>
    <g
       id="g7460"
       transform="matrix(0.1777361,0,0,-0.1776015,0.40882303,1052.0353)">
      <g
         id="g7462"
         clip-path="url(#clipPath7464)">
        <path
           d="m 357.8,51.6 0,0 c -1.13,-3.676 -3.3,-5.627 -6.3,-5.627 -1.88,0 -3.31,0.675 -3.83,0.975 l 0,0 -0.38,0.151 c -0.07,0 -0.07,0.075 -0.07,0.075 l -0.08,0 c -1.42,0.9 -4.35,4.576 -6.15,10.802 -0.15,0.9 -0.37,2.401 -0.82,3.826 l 0,0.075 -0.08,0.225 0,-0.075 c -0.45,2.55 -0.6,5.176 -0.6,7.877 0.23,13.953 3.08,19.429 5.48,22.655 0.45,0.6 0.9,1.05 1.42,1.5 l 0.38,0.3 c 1.2,0.975 2.62,1.501 4.13,1.501 0.9,0 1.8,-0.226 2.77,-0.526 3,-1.05 4.05,-4.801 3.9,-6.526 -0.07,-0.825 -0.67,-5.101 -4.2,-5.101 l -0.07,0.075 c -2.85,0 -3.61,3.301 -3.68,3.976 l -0.3,1.875 -0.08,0.525 -0.37,-0.375 -1.2,-1.425 c -0.23,-0.3 -5.63,-6.902 -4.73,-18.679 0.9,-11.853 4.73,-16.429 4.8,-16.429 l 1.73,-2.101 0.52,-0.6 -0.07,0.825 -0.3,2.701 c -0.08,0.975 0.22,1.8 0.75,2.401 0.75,0.825 2.03,1.275 3.38,1.275 1.5,0 2.85,-0.6 3.6,-1.65 0.82,-1.051 0.97,-2.626 0.45,-4.501 z m -11.33,-11.928 0,0 c -0.08,-0.375 -0.08,-0.75 -0.15,-1.125 l -0.08,-0.225 c -0.37,-2.176 -0.82,-4.501 -0.07,-6.752 -0.9,0.3 -2.03,0.975 -2.7,2.401 l -1.8,3.075 -0.53,0.9 0,-1.05 0.3,-3.526 c 0.15,-1.275 0.38,-4.801 -0.67,-6.076 -0.38,-0.3 -0.68,-0.675 -1.05,-1.125 l 0,0 c -1.73,-1.801 -3.75,-4.051 -3.83,-6.677 0,-0.3 0,-0.6 0,-0.825 -0.97,1.5 -1.42,2.926 -1.27,3.901 l 0.37,2.401 0.08,0.75 -0.53,-0.525 -1.72,-1.726 c -0.23,-0.15 -4.58,-4.276 -8.78,-4.951 -2.92,-0.45 -4.72,-1.95 -5.85,-3.301 -0.37,1.351 -0.67,3.151 0.15,4.951 l 0.38,0.976 0.15,0.3 -0.3,0.075 -1.05,0.15 c -0.68,0.15 -4.13,0.975 -5.18,3.676 -1.2,2.85 -1.28,6.826 1.43,8.852 0.9,0.675 1.87,0.975 2.77,0.975 0.23,0 0.53,0 0.75,-0.075 1.05,-0.225 1.95,-0.825 2.48,-1.801 1.2,-2.1 0.3,-4.051 -0.6,-5.326 l -0.98,-1.275 -0.22,-0.375 0.45,-0.075 1.57,0 c 0.08,0 0.15,0 0.3,0 1.05,0 4.88,0.075 9,1.5 5.25,1.801 8.78,5.026 10.5,9.527 1.43,3.826 2.1,8.177 2.03,13.128 1.5,-2.625 3,-4.276 4.05,-4.951 0.37,-1.35 0.97,-3.751 0.6,-5.776 z m -55.06,-36.0083 0,0 c -6.22,8.1023 -16.65,14.9283 -21.15,17.7043 1.2,0.9 2.1,1.95 2.7,3.225 0.15,0.376 0.23,0.751 0.38,1.126 l 17.92,-12.978 0.08,-0.15 0.15,0.15 18.37,12.978 c 0.15,-0.375 0.23,-0.826 0.45,-1.201 0.45,-1.2 1.36,-2.25 2.48,-3.15 C 301.76,15.366 293.14,5.6141 291.41,3.6637 Z m -25.73,18.1543 0,0 0,0 0,0 -1.05,-0.15 -0.3,-0.075 0.15,-0.3 0.38,-0.976 c 0.75,-1.8 0.52,-3.6 0.07,-4.951 -1.05,1.351 -2.92,2.851 -5.85,3.301 -4.27,0.75 -8.62,5.026 -8.62,5.026 l -1.8,1.726 -0.53,0.525 0.08,-0.75 0.37,-2.401 c 0.15,-0.975 -0.3,-2.401 -1.27,-3.901 0,0.225 0,0.525 0,0.825 -0.08,2.626 -2.18,4.876 -3.83,6.752 -0.37,0.375 -0.67,0.75 -0.97,1.125 -1.05,1.2 -1.13,4.951 -0.9,6.302 l -0.15,3.75 -0.08,1.351 -0.37,-1.276 -1.2,-3.525 c -0.68,-1.426 -1.8,-2.026 -2.7,-2.326 0.75,2.251 0.3,4.576 -0.08,6.752 0,0.225 -0.07,0.45 -0.07,0.6 -0.08,0.225 -0.08,0.525 -0.15,0.75 -0.3,2.025 0.3,4.501 0.67,5.851 1.35,0.9 2.78,2.776 4.05,5.026 -0.15,-5.026 0.53,-9.452 1.95,-13.278 1.73,-4.576 5.33,-7.876 10.73,-9.677 4.05,-1.425 7.8,-1.5 8.85,-1.5 l 0.15,0 1.57,0 0.53,0 -0.3,0.375 -0.98,1.35 c -0.9,1.276 -1.72,3.226 -0.52,5.326 0.52,0.901 1.42,1.576 2.47,1.801 0.23,0.075 0.53,0.075 0.75,0.075 0.9,0 1.88,-0.3 2.78,-0.975 2.62,-2.026 2.62,-6.002 1.42,-8.852 -1.12,-2.701 -4.57,-3.526 -5.25,-3.676 z m -29.7,25.581 0,0 0,0 -0.3,-0.15 c -0.52,-0.226 -2.02,-0.976 -3.83,-0.976 -3.15,0 -5.25,1.951 -6.37,5.702 -0.53,1.875 -0.38,3.375 0.45,4.501 0.75,1.05 2.1,1.65 3.67,1.65 1.35,0 2.55,-0.525 3.3,-1.35 0.53,-0.6 0.98,-2.176 0.91,-3.151 l -0.46,-1.95 -0.22,-0.976 0.68,0.75 1.72,2.101 c 0.15,0.15 3.98,4.726 4.88,16.429 0.97,11.777 -4.35,18.379 -4.65,18.604 l -1.2,1.5 -0.3,0.375 -0.08,-0.525 -0.3,-1.875 c 0,-0.15 -0.68,-3.976 -3.75,-3.976 l -0.08,0 c -3.37,0 -4.05,3.901 -4.12,5.101 -0.15,1.65 0.9,5.401 3.9,6.451 0.9,0.376 1.8,0.526 2.7,0.526 1.58,0 3.08,-0.526 4.35,-1.651 l 0.23,-0.15 c 0.52,-0.45 0.97,-0.975 1.42,-1.5 2.4,-3.226 5.18,-8.702 5.33,-22.655 0,-3.001 -0.23,-6.002 -0.83,-8.777 -0.07,-0.375 -0.3,-1.126 -0.45,-2.176 -1.87,-7.051 -5.17,-10.952 -6.52,-11.777 l -0.08,-0.075 z m 5.25,48.386 0,0 0,-3.076 c -0.3,0.525 -0.67,0.975 -0.97,1.425 -0.3,0.45 -0.68,0.825 -1.05,1.2 0.45,0.15 1.12,0.3 2.02,0.451 z m 4.13,-34.058 0,0 c 0.45,2.775 0.67,5.626 0.67,8.477 -0.07,11.777 -2.1,17.929 -4.27,21.68 l 0,3.976 c 0.6,0.075 1.2,0.075 1.87,0.15 1.13,0.075 2.1,0.15 3.08,0.375 l 0,-60.314 c -0.45,0.675 -0.83,1.425 -1.2,2.251 -2.78,7.501 -1.65,16.203 -0.75,20.779 0.15,0.675 0.3,1.276 0.45,1.801 0.07,0.3 0.07,0.525 0.15,0.6 l 0.07,0.225 -0.07,0 z m 6.75,24.08 0,0 0,-9.827 -1.05,-1.05 1.05,0 0,-43.735 c -1.88,0.975 -3.6,2.325 -4.88,4.126 l 0,61.214 c 1.28,0.375 2.48,0.9 3.45,1.65 0.15,-0.975 0.53,-1.725 1.05,-2.325 0.15,-0.075 0.23,-0.226 0.38,-0.301 l 0,-8.626 -1.13,0 1.13,-1.126 z m 16.8,1.126 0,0 0,16.057 c 0,0 0.07,0.07 0.15,0.07 l 0.15,0.15 c 1.8,1.35 2.1,1.65 3.53,4.5 0.15,0.38 0.52,0.75 0.97,1.13 l 0,-21.907 -4.8,0 z m -3.98,3.9 0,0 c 1.05,0 1.95,-0.9 1.95,-1.95 0,-1.125 -0.9,-1.95 -1.95,-1.95 -1.12,0 -1.95,0.825 -1.95,1.95 0,1.05 0.83,1.95 1.95,1.95 z m 2.7,5.102 0,0 -1.5,2.325 c -0.07,0.3 -0.22,2.4 1.95,4.05 0.08,0.08 0.15,0.15 0.3,0.23 l 0,-12.232 c -0.6,1.351 -1.95,2.326 -3.45,2.326 -0.52,0 -1.05,-0.15 -1.5,-0.3 l 0,5.476 c 0.6,-0.45 1.05,-0.675 1.13,-0.75 l 2.77,-1.426 0.83,-0.525 -0.53,0.826 z m -5.7,3.45 0,0 c 0.38,-0.45 0.68,-0.825 1.05,-1.125 l 0,-6.226 c -1.12,-0.675 -1.8,-1.801 -1.8,-3.151 0,-0.75 0.15,-1.425 0.53,-1.95 l -3.68,0 0,13.807 c 1.2,0.75 2.33,1.35 3.3,2.1 -0.15,-1.28 -0.07,-2.4 0.6,-3.455 z m -9.3,-22.88 0,0 0,8.777 4.43,-4.426 -4.43,-4.351 z m 4.88,-1.575 0,0 0,-45.686 c -1.58,0.301 -3.23,0.901 -4.88,1.651 l 0,44.035 4.88,0 z m -1.5,24.08 0,0 c 0.15,0.525 0.45,0.9 1.05,1.2 0.15,0.08 0.3,0.23 0.45,0.3 l 0,-5.176 -0.15,0.3 -0.75,1.051 c 0,0 -0.83,1.275 -0.6,2.325 z m -1.5,-4.201 0,0 c 0.45,0 0.9,0.075 1.42,0.15 l 1.28,0.3 0.3,0.075 0,-8.401 -4.88,0 0,8.326 c 0.53,-0.3 1.13,-0.45 1.88,-0.45 z m 13.72,-18.079 0,0 -10.2,0 0,0 -0.52,0 0,0 -2.1,0 4.2,4.126 -4.28,4.276 17.18,0 0,-8.402 -3.75,0 -0.53,0 z m -3.07,-27.456 0,0 c 1.05,0 1.95,-0.9 1.95,-1.95 0,-1.126 -0.9,-2.026 -1.95,-2.026 -1.05,0 -1.95,0.9 -1.95,2.026 0,1.05 0.9,1.95 1.95,1.95 z m 3.15,2.175 0,0 0,-2.175 c -0.23,0.45 -0.6,0.825 -0.98,1.125 0.15,0.075 0.3,0.225 0.45,0.375 0.23,0.225 0.38,0.45 0.53,0.675 z m -0.9,23.481 0,0 0.9,0 0,-3.751 c -0.38,1.575 -0.68,2.851 -0.9,3.751 z m -6,-15.979 0,0 c -0.3,4.126 2.47,13.728 3.15,15.979 l 0.97,0 c 0.45,-1.951 2.03,-8.477 2.78,-12.753 l 0,-6.377 c -0.38,-1.575 -1.05,-3 -1.8,-3.75 -0.45,-0.45 -0.9,-0.676 -1.35,-0.676 -2.03,0 -3.53,2.926 -3.75,7.577 z m -0.15,-30.307 0,0 c -0.9,0.075 -2.03,0.225 -3.23,0.45 l 0,45.836 4.65,0 c -0.9,-3.001 -3.37,-11.853 -3.07,-16.054 0.22,-4.276 1.42,-7.276 3.3,-8.627 -0.9,-0.675 -1.5,-1.725 -1.5,-2.925 0,-1.276 0.6,-2.401 1.57,-3.076 l 0,-8.102 c -0.52,-0.45 -0.97,-0.975 -1.35,-1.575 -1.05,-1.876 -1.2,-3.901 -0.37,-5.927 z m 5.47,8.852 0,0 c -0.45,0 -0.82,0 -1.2,-0.075 -0.75,-0.15 -1.42,-0.525 -2.1,-0.9 l 0,7.427 c 0.53,-0.225 1.13,-0.45 1.73,-0.45 1.35,0 2.55,0.75 3.22,1.8 l 0,-8.027 c -0.52,0.15 -1.12,0.225 -1.65,0.225 z m 2.1,10.353 0,0 0,4.426 c 1.13,1.95 1.73,4.651 1.73,6.601 -0.08,1.801 -0.9,6.152 -1.73,9.977 l -0.07,6.077 4.95,0 0,-43.81 c -0.37,2.025 -1.35,3.751 -2.93,4.951 -0.6,0.45 -1.2,0.75 -1.87,1.05 l -0.08,9.602 c 0.08,0.225 0.08,0.376 0.08,0.601 0,0.15 0,0.375 -0.08,0.525 z m 10.28,54.241 0,0 0,-34.362 -1.95,0 1.95,-1.95 0,-8.102 -1.95,-1.951 1.95,0 0,-31.507 -4.87,3.601 0,47.111 0.07,0 0,12.003 -0.07,0 0,22.277 c 1.2,0.83 3,1.58 4.87,2.03 l 0,-6.53 c -0.07,-0.45 -0.15,-0.82 -0.15,-1.27 0,-0.45 0.08,-0.9 0.15,-1.35 z m 5.78,7.5 0,0 0,1.5 c 0.67,-0.38 1.27,-0.83 1.65,-1.58 0,0 0,0 0,-0.07 -0.38,0.07 -0.83,0.15 -1.35,0.15 -0.08,0 -0.15,0 -0.3,0 z m -50.63,-6.23 0,0 c -2.93,2.7 -3.91,6.45 -2.63,10.13 1.2,3.22 3.68,5.25 6.6,5.25 2.33,0 3.9,-0.53 4.8,-1.58 0.83,-0.97 0.9,-2.25 0.9,-3.07 0,-3.38 -2.62,-6.15 -6,-6.38 l -1.35,-0.07 -0.45,-0.08 0.23,-0.37 0.75,-1.13 c 0.6,-0.9 2.77,-3.75 6.37,-4.27 0.38,0 0.68,-0.08 1.05,-0.08 2.7,0 5.4,1.35 8.25,4.05 9.9,9.45 18.23,14.18 24.83,14.18 0.23,0 0.45,0 0.68,0 3.37,-0.15 6.3,-1.73 8.7,-4.5 5.32,-6.3 4.2,-11.55 1.35,-14.4 l 0,-0.08 c -0.6,-0.75 -1.5,-1.275 -2.4,-1.5 l -0.08,0 0,0 0,0 c -0.22,0 -0.52,-0.075 -0.75,-0.075 -1.05,0 -2.02,0.45 -2.77,1.205 -0.75,0.75 -1.2,1.72 -1.2,2.85 0.07,2.17 1.8,3.97 4.05,3.97 0.97,0 1.57,-0.15 2.17,-0.6 l 1.13,-0.67 0.3,-0.23 0.07,0.38 0.15,1.35 c 0.08,0.3 0.23,1.2 -0.52,2.77 -0.98,2.18 -3.15,3.38 -6.23,3.38 -0.07,0 -0.07,0 -0.15,0 -4.57,0 -10.05,-2.48 -11.4,-5.1 -1.2,-2.55 -1.2,-2.55 -2.78,-3.75 l -0.15,-0.08 c -0.3,-0.22 -0.67,-0.45 -1.05,-0.82 -1.65,-1.28 -2.32,-2.7 -2.62,-3.83 -0.15,0.15 -0.23,0.3 -0.38,0.53 -0.45,0.52 -0.3,1.8 -0.07,3.3 0,0.6 0.15,1.42 0.15,2.25 l 0.15,3.22 0,0.98 -0.53,-0.83 -1.65,-2.85 c -0.9,-1.95 -2.77,-3.07 -5.77,-4.65 -1.13,-0.67 -1.88,-1.5 -2.1,-2.625 -0.23,-0.975 -0.08,-1.8 0.15,-2.475 -0.3,0 -0.6,0.15 -0.75,0.3 -0.68,0.75 -0.45,2.55 -0.3,3.3 l 0.07,0 0,0 0.08,2.55 0,0.75 -0.45,-0.52 -1.58,-1.8 c -1.72,-2.03 -3.6,-3.305 -7.57,-3.455 -1.88,-0.075 -3.23,-0.3 -4.05,-0.525 0.45,1.275 1.2,1.575 1.2,1.575 l 0.07,0.075 0,0 2.25,1.5 0.68,0.45 -0.75,0 -2.63,0.15 0,0 -0.07,0 0,0 c 0,0 -0.08,0 -0.23,0 -0.82,0 -3.75,0.15 -5.77,1.95 z m 59.48,-3.825 0,0 c 0.3,-0.45 0.75,-0.825 1.2,-1.2 l 0,-30.607 -0.68,0 c 0.38,0.6 0.6,1.275 0.6,1.951 0,2.1 -1.72,3.751 -3.75,3.751 -0.3,0 -0.6,0 -0.9,-0.076 l 0,26.406 c 0.6,0.75 1.2,1.58 1.65,2.48 0.45,-1.05 1.13,-1.95 1.88,-2.705 z m 1.72,-31.807 0,0 0,30.307 c 0.6,-0.375 1.2,-0.6 1.88,-0.75 l 0.3,-0.075 0,0.075 c 0.3,-0.075 0.6,-0.075 0.9,-0.075 0.6,0 1.12,0.075 1.72,0.225 l 0,-29.707 -4.8,0 z m 0,-33.757 0,0 c 0.83,1.875 1.28,4.05 1.28,5.776 -0.08,1.425 -0.6,4.426 -1.28,7.577 l 0,8.401 4.8,0 0,-34.132 -4.8,-3.376 0,15.754 z m -4.35,37.658 0,0 c 1.05,0 1.95,-0.825 1.95,-1.95 0,-1.051 -0.9,-1.951 -1.95,-1.951 -1.12,0 -2.02,0.9 -2.02,1.951 0,1.125 0.9,1.95 2.02,1.95 z m -4.8,25.731 0,0 c 1.28,0.225 2.48,0.9 3.38,1.875 l 0,-26.031 c -1.35,-0.6 -2.4,-1.95 -2.4,-3.525 0,-0.676 0.22,-1.351 0.6,-1.951 l -3,0 0,29.482 c 0.07,0 0.15,0 0.22,0 0.3,0 0.6,0 0.9,0.075 l 0,0 0.3,0.075 z m -6.67,-39.159 0,0 0,7.052 3.52,-3.526 -3.52,-3.526 z m 4.8,-2.476 0,0 0,-35.333 -4.8,3.451 0,31.882 4.8,0 z m -4.8,50.415 0,0 0,5.25 c 0.82,0.15 1.65,0.22 2.47,0.22 l 0.08,0 c 0.75,0 1.5,-0.07 2.25,-0.3 l 0,-1.8 c -2.1,-0.22 -3.9,-1.57 -4.8,-3.37 z m 1.12,-7.13 0,0 c 0.98,-0.975 2.25,-1.575 3.68,-1.725 l 0,-29.557 -4.8,0 0,32.932 c 0.3,-0.6 0.67,-1.125 1.12,-1.65 z m 0.83,-41.484 0,0 4.12,4.201 -4.2,4.201 17.18,0 0,-8.402 -17.1,0 z m 12,-1.801 0,0 1.35,0 0,-6.076 c -0.53,2.551 -1.05,4.801 -1.35,6.076 z m -0.08,-24.53 0,0 c 0.15,0.15 0.3,0.225 0.45,0.375 0.38,0.375 0.68,0.9 0.98,1.425 l 0,-3.976 c -0.23,0.901 -0.75,1.651 -1.43,2.176 z m -3.3,-6.677 0,0 c 0.38,-0.075 0.75,-0.15 1.13,-0.15 1.72,0 3.22,1.201 3.6,2.851 l 0,-9.377 -3.53,-2.551 -1.2,0.9 0,8.327 z m -0.82,3.601 0,0 c 0,1.05 0.9,1.951 1.95,1.951 1.05,0 1.95,-0.901 1.95,-1.951 0,-1.05 -0.9,-1.95 -1.95,-1.95 -1.05,0 -1.95,0.9 -1.95,1.95 z m 1.35,27.606 0,0 0.97,0 c 0.6,-2.475 3.15,-13.127 3.23,-16.053 0,-2.401 -0.98,-5.476 -2.25,-6.827 -0.45,-0.45 -0.9,-0.675 -1.35,-0.675 -2.03,0 -3.53,3.001 -3.75,7.577 -0.3,4.201 2.47,13.728 3.15,15.978 z m -4.95,-16.053 0,0 c 0.22,-4.276 1.42,-7.277 3.3,-8.552 -0.9,-0.675 -1.5,-1.801 -1.5,-3.001 0,-1.5 0.82,-2.775 2.1,-3.376 l 0,-8.176 -4.8,3.45 0,35.708 3.97,0 c -0.9,-3 -3.37,-11.852 -3.07,-16.053 z m 14.47,71.788 0,0 0,-2.17 c -0.52,0.15 -1.12,0.22 -1.72,0.22 -0.53,0 -0.98,0 -1.35,-0.07 0,0 0,0 0,0.07 0.6,1.28 1.87,1.8 3.07,1.95 z m 5.25,-26.553 0,0 0,-8.027 -1.95,-1.95 1.95,0 0,-49.586 -4.72,-3.376 0,75.617 c 2.25,0.9 3.9,3.155 3.9,5.775 0,2.63 -1.65,4.88 -3.9,5.78 l 0,2.4 c 0.22,0 0.45,0 0.75,0 l 0.07,0 c 1.28,0 2.63,-0.23 3.9,-0.6 l 0,-24.007 -2.02,0 2.02,-2.026 z m 10.58,7.427 0,0 c -1.42,-0.525 -2.4,-1.876 -2.4,-3.451 0,-0.75 0.15,-1.425 0.53,-1.95 l -2.93,0 0,20.027 c 1.2,-2.32 1.5,-2.62 3.15,-3.82 0.38,-0.3 0.75,-0.6 1.2,-0.98 0.15,-0.07 0.3,-0.22 0.45,-0.37 l 0,-9.456 z m 1.35,-1.501 0,0 c 1.05,0 1.95,-0.9 1.95,-1.95 0,-1.125 -0.9,-1.95 -1.95,-1.95 -1.12,0 -1.95,0.825 -1.95,1.95 0,1.05 0.83,1.95 1.95,1.95 z m -0.82,4.126 0,0 0,6.231 c 1.12,-1.43 0.97,-2.93 0.9,-3.08 l -0.68,-2.476 -0.22,-0.675 z m 0.6,0.45 0,0 1.87,1.501 c 0.23,0.15 1.2,0.6 2.25,1.95 l 0,-11.927 -0.75,0 c 0.38,0.525 0.6,1.2 0.6,1.95 0,2.025 -1.72,3.751 -3.75,3.751 -0.3,0 -0.6,-0.075 -0.82,-0.075 l 0,2.325 0.6,0.525 z m -11.18,-8.476 0,0 0,23.857 c 2.17,-0.75 4.05,-1.88 4.8,-2.85 l 0,-21.007 -4.8,0 z m 0,-9.528 0,0 0,6.977 3.52,-3.526 -3.52,-3.451 z m 3.37,-49.286 0,0 -3.37,-2.4 0,49.211 4.8,0 0,-40.734 c -1.13,-1.651 -1.65,-3.751 -1.43,-6.077 z m -1.5,48.611 0,0 4.21,4.126 -4.28,4.276 17.18,0 0,-8.402 -17.11,0 z m 12.01,-1.8 0,0 1.42,0 0,-6.377 c -0.52,2.626 -1.12,5.027 -1.42,6.377 z m -0.08,-24.531 0,0 c 0.15,0.075 0.3,0.225 0.45,0.375 0.38,0.375 0.75,0.901 1.05,1.501 l 0,-4.426 c -0.15,1.05 -0.67,1.95 -1.5,2.55 z m -3.22,-13.053 0,0 0,6.377 c 0.3,-0.15 0.67,-0.225 1.05,-0.225 1.87,0 3.45,1.425 3.67,3.225 l 0,-11.927 c -0.82,1.275 -2.1,2.175 -3.6,2.475 -0.37,0.075 -0.75,0.075 -1.12,0.075 z m -0.9,9.978 0,0 c 0,1.05 0.9,1.95 1.95,1.95 1.05,0 1.95,-0.9 1.95,-1.95 0,-1.126 -0.9,-2.026 -1.95,-2.026 -1.05,0 -1.95,0.9 -1.95,2.026 z m 1.35,27.606 0,0 0.97,0 c 0.6,-2.551 3.15,-13.203 3.23,-16.054 0,-2.475 -0.98,-5.551 -2.25,-6.826 -0.45,-0.45 -0.9,-0.676 -1.35,-0.676 -2.03,0 -3.53,2.926 -3.75,7.577 -0.3,4.126 2.47,13.728 3.15,15.979 z m -4.95,-16.054 0,0 c 0.22,-4.276 1.42,-7.201 3.22,-8.552 l 0,-0.075 c -0.9,-0.75 -1.42,-1.8 -1.42,-2.925 0,-1.576 0.9,-2.851 2.17,-3.451 l 0,-6.527 c -1.27,-0.075 -2.47,-0.525 -3.6,-1.425 -0.45,-0.3 -0.82,-0.675 -1.2,-1.05 l 0,40.059 3.9,0 c -0.9,-3.001 -3.37,-11.853 -3.07,-16.054 z m 9.75,-24.98 0,0 0,19.354 c 0.82,1.875 1.2,3.976 1.2,5.626 -0.08,1.425 -0.6,4.276 -1.2,7.277 l 0,8.777 4.8,0 0,-45.611 c -1.8,-0.525 -3.45,-0.75 -4.73,-0.825 0.83,1.801 0.75,3.676 -0.07,5.402 z m 4.57,61.063 0,0 0.23,0 0,-8.026 -4.8,0 0,12.602 c 0.52,0.905 0.6,2.025 0.52,3.155 1.13,-0.9 2.63,-1.73 4.2,-2.63 0,0 0.08,0 0.08,-0.075 l 0,-4.05 -0.45,-0.601 -0.23,-0.3 0.45,-0.075 z m 0.75,1.726 0,0 0,2.925 c 0.23,-0.225 0.38,-0.45 0.45,-0.75 0.23,-0.825 -0.22,-1.8 -0.45,-2.175 z m 0.6,-1.951 0,0 c 0.23,0 0.45,0 0.75,0 1.28,0 2.1,0.525 2.63,0.976 0.3,0.225 0.52,0.6 0.75,0.975 l 0,-65.265 c -1.5,-0.9 -3.15,-1.575 -4.73,-2.025 l 0,65.489 0.6,-0.15 z m 9.45,1.351 0,0 0,-59.189 c -1.2,-2.25 -2.92,-3.976 -4.8,-5.176 l 0,66.24 c 0,0.075 0,0.075 0.08,0.15 1.2,-0.975 2.92,-1.65 4.72,-2.025 z m 1.58,-38.409 0,0 c 0.3,-1.65 0.6,-3.826 0.75,-6.227 l 0,-4.125 c -0.15,-3.076 -0.68,-6.227 -1.8,-9.228 0,0 -0.08,-0.075 -0.08,-0.075 l 0,25.281 c 0.3,-1.95 0.68,-3.826 1.13,-5.626 z m -1.13,19.654 0,0 0,18.605 c 0.75,-0.075 1.58,-0.15 2.33,-0.15 0.97,-0.075 1.8,-0.151 2.47,-0.226 l 0,-2.7 c -1.95,-2.851 -3.97,-7.277 -4.8,-15.529 z m 6.68,17.779 0,0 c -0.45,-0.375 -0.83,-0.825 -1.13,-1.2 -0.07,-0.15 -0.15,-0.225 -0.22,-0.375 l 0,1.95 c 0.6,-0.15 1.05,-0.225 1.35,-0.375 z m -47.56,20.251 0,0 c 2.4,2.85 5.33,4.35 8.7,4.5 0.15,0 0.38,0 0.6,0 6.61,0 14.93,-4.8 24.83,-14.32 2.7,-2.63 5.4,-3.9 8.1,-3.9 0.3,0 0.6,0 0.83,0 3.9,0.45 6.3,3.45 6.67,4.05 l 0.9,1.2 0.23,0.37 -0.45,0.08 -1.5,0.07 c -3.3,0.23 -5.93,3.08 -5.93,6.38 0,2.17 0.68,4.72 5.63,4.72 3,0 5.55,-2.1 6.68,-5.32 1.27,-3.75 0.3,-7.43 -2.71,-10.13 -2.02,-1.8 -4.87,-1.95 -5.7,-1.95 -0.15,0 -0.3,0 -0.3,0 l -2.47,0.08 -0.75,0 0.6,-0.45 2.1,-1.655 0,-0.075 0.07,0 c 0,0 0.68,-0.3 1.2,-1.5 -1.12,0.225 -2.55,0.375 -4.05,0.45 -3.3,0 -6.52,1.425 -7.42,3.23 l -1.88,2.55 -0.52,0.75 0.07,-0.9 0.23,-2.93 c 0.07,-0.6 0,-2.4 -0.83,-3.3 0.15,0.675 0.23,1.35 0.08,1.95 -0.3,1.13 -0.98,2.03 -2.18,2.63 -2.92,1.65 -4.8,2.77 -5.7,4.72 l 0,0 0,0 -1.87,2.63 -0.53,0.75 0.08,-0.9 0.22,-3 c 0.08,-0.68 0.15,-1.35 0.23,-2.18 l 0,-0.15 c 0.15,-1.57 0.3,-2.7 -0.08,-3.22 -0.15,-0.23 -0.3,-0.38 -0.45,-0.53 -0.37,1.5 -1.2,2.78 -2.55,3.83 -0.52,0.37 -0.9,0.67 -1.2,0.97 -1.57,1.13 -1.57,1.2 -2.85,3.68 -1.27,2.7 -6.75,5.25 -11.33,5.25 l -0.07,0 c -3.15,-0.08 -5.33,-1.2 -6.3,-3.38 -0.53,-1.05 -0.68,-2.02 -0.6,-2.85 l 0.22,-1.35 0.08,-0.37 0.3,0.22 1.12,0.75 c 0.53,0.38 1.2,0.53 2.18,0.53 2.17,0 3.97,-1.8 3.97,-3.98 0,-2.17 -1.8,-3.975 -3.97,-3.975 -0.23,0 -0.53,0 -0.75,0.075 l -0.08,0 c -0.9,0.225 -1.72,0.68 -2.32,1.43 l -0.08,0.07 c -2.77,2.85 -3.9,8.18 1.5,14.4 z m 56.94,-55.434 0,0 -0.08,0 c -1.95,0 -3.75,-0.675 -4.88,-1.95 -0.3,-0.3 -0.52,-0.675 -0.75,-0.975 -1.12,2.4 -2.47,6.526 -2.92,12.828 -0.6,7.426 1.57,12.603 3.07,15.303 0.68,-1.5 2.18,-3.526 5.03,-3.601 l 0.15,0 c 4.2,0 6.08,3.826 6.38,7.052 0.22,2.776 -1.28,7.427 -5.33,8.852 -1.2,0.375 -2.32,0.6 -3.45,0.6 -1.58,0 -3.08,-0.45 -4.43,-1.2 -0.15,0.9 -0.45,1.65 -0.82,2.25 1.5,0.3 3.52,0.9 5.18,2.325 3.67,3.38 4.87,7.88 3.3,12.45 -1.5,4.2 -4.81,6.83 -8.71,6.83 -6.52,0 -7.87,-3.75 -7.87,-6.9 0,-3.68 2.4,-6.98 5.92,-8.18 -0.9,-0.75 -2.17,-1.57 -3.9,-1.8 -0.15,0 -0.37,0 -0.6,0 -2.1,0 -4.35,1.13 -6.6,3.3 -10.42,10.05 -19.05,14.93 -26.33,14.93 -0.22,0 -0.52,0 -0.75,0 -3.97,-0.15 -7.42,-1.95 -10.2,-5.25 -1.5,-1.65 -2.55,-3.38 -3.3,-5.1 -0.67,1.72 -1.8,3.45 -3.22,5.17 -2.85,3.31 -6.23,5.03 -10.2,5.26 -0.3,0 -0.6,0 -0.83,0 -7.28,0 -15.9,-4.81 -26.33,-14.78 -2.4,-2.25 -4.65,-3.38 -6.75,-3.38 -0.22,0 -0.52,0 -0.75,0 -1.65,0.23 -3,1.2 -3.75,1.88 3.6,1.12 6.08,4.42 6.08,8.17 0,3.15 -1.35,6.91 -7.8,6.98 -3.9,0 -7.28,-2.63 -8.71,-6.75 -1.65,-4.58 -0.45,-9.15 3.23,-12.45 1.65,-1.5 3.6,-2.18 5.1,-2.405 -0.37,-0.675 -0.67,-1.425 -0.82,-2.325 -1.43,0.825 -3,1.275 -4.66,1.275 -1.05,0 -2.17,-0.225 -3.37,-0.6 -4.05,-1.425 -5.55,-6.076 -5.33,-8.777 0.3,-3.226 2.1,-7.052 6.3,-7.052 l 0.15,0 c 2.85,0 4.36,2.026 5.11,3.526 1.42,-2.7 3.6,-7.952 3,-15.303 -0.53,-6.302 -1.95,-10.428 -3.08,-12.828 -0.22,0.375 -0.45,0.675 -0.75,0.975 -1.13,1.275 -2.93,2.025 -4.88,2.025 -2.25,0 -4.27,-0.975 -5.4,-2.55 -0.9,-1.125 -1.72,-3.151 -0.82,-6.377 1.87,-6.301 6.07,-7.276 8.4,-7.276 1.05,0 2.1,0.225 3.15,0.525 -0.3,-1.425 -0.6,-3.301 -0.3,-5.026 0.08,-0.225 0.08,-0.45 0.15,-0.75 0,-0.15 0.08,-0.375 0.08,-0.6 0.52,-2.701 0.97,-4.952 -0.53,-7.052 l -0.75,-1.125 -0.23,-0.375 0.38,0 1.43,-0.225 c 0.15,0 0.37,0 0.52,0 0.68,0 2.25,0.075 3.83,1.125 0.07,-1.426 0.37,-3.301 1.35,-4.426 0.3,-0.375 0.67,-0.75 1.05,-1.2 1.5,-1.651 3.15,-3.526 3.22,-5.252 0,-2.1 -0.22,-3.601 -0.3,-4.201 l 0,0 0,-0.075 -0.52,-2.7 -0.15,-0.825 0.52,0.6 2.03,2.025 c 0,0 2.92,3.001 3.82,6.152 2.03,-1.651 5.1,-3.601 8.18,-4.126 3.75,-0.676 5.17,-3.376 5.4,-3.901 l 0.6,-1.501 0.15,-0.45 0.3,0.375 0.9,1.426 c 0.07,0.15 2.25,3.525 1.2,7.426 0.22,0.075 0.45,0.15 0.67,0.225 3.83,-2.25 16.28,-10.052 22.58,-18.9039 l 0.68,-0.97517 0.15,-0.300045 0.22,0.300045 0.68,0.90017 c 0.15,0.15 10.12,12.4529 22.88,18.9789 0.22,-0.15 0.52,-0.225 0.75,-0.3 -0.9,-3.6 0.82,-6.826 1.2,-7.501 l 0.9,-1.426 0.3,-0.375 0.15,0.45 0.6,1.501 c 0.15,0.3 1.57,3.225 5.4,3.826 3.3,0.6 6.45,2.775 8.25,4.2 0.75,-2.775 3.07,-5.476 3.82,-6.226 l 1.95,-2.025 0.6,-0.601 -0.15,0.826 -0.52,2.775 c 0,0 -0.38,1.651 -0.3,4.201 0.07,1.726 1.72,3.526 3.22,5.176 l 0,0.075 0.23,0.226 c 0.3,0.3 0.6,0.6 0.9,0.975 0.75,0.9 1.2,2.4 1.35,4.426 1.5,-1.051 3.15,-1.201 3.82,-1.201 0.15,0 0.38,0 0.53,0 l 1.42,0.15 0.38,0.076 -0.23,0.375 -0.82,1.125 c -1.43,2.1 -0.98,4.426 -0.45,7.051 0,0.226 0.07,0.376 0.07,0.601 0.08,0.225 0.08,0.525 0.15,0.75 0.3,1.725 0.08,3.601 -0.22,4.951 0.97,-0.3 2.03,-0.45 3,-0.45 2.4,0 6.53,0.975 8.48,7.201 0.9,3.226 0.07,5.252 -0.75,6.452 -1.2,1.575 -3.23,2.475 -5.4,2.475 z"
           style="fill:#e8c27d;fill-opacity:1;fill-rule:nonzero;stroke:none"
           id="path7468"
           inkscape:connector-curvature="0" />
      </g>
    </g>
    <g
       id="g7470"
       transform="matrix(0.1777361,0,0,-0.1776015,0.40882303,1052.0353)">
      <g
         id="g7472"
         clip-path="url(#clipPath7474)">
        <path
           d="m 212.95,162.17 0,0 -1.27,0.68 c 0,0.07 -0.08,0.07 -0.15,0.07 -0.23,0 -0.38,-0.07 -0.45,-0.22 -1.43,-3.08 -3.9,-4.58 -7.35,-4.58 -4.95,0 -8.4,3.45 -8.4,8.33 0,5.18 3.3,8.7 8.25,8.7 3,0 5.47,-1.42 7.12,-3.9 0.08,-0.15 0.23,-0.22 0.3,-0.22 0.08,0 0.15,0 0.23,0.07 l 1.35,0.9 c 0.07,0.08 0.15,0.15 0.15,0.23 0.07,0.15 0,0.22 0,0.37 -1.88,3.08 -5.33,4.88 -9.15,4.88 -3.08,0 -5.78,-1.05 -7.73,-3.08 -1.95,-1.95 -3,-4.8 -3,-7.87 0,-3.23 1.05,-6.01 3.15,-7.96 1.88,-1.8 4.58,-2.77 7.5,-2.77 4.5,0 7.8,2.02 9.68,5.85 0.07,0.22 0,0.45 -0.23,0.52 z"
           style="fill:#e8c27d;fill-opacity:1;fill-rule:nonzero;stroke:none"
           id="path7478"
           inkscape:connector-curvature="0" />
      </g>
    </g>
    <g
       id="g7480"
       transform="matrix(0.1777361,0,0,-0.1776015,0.40882303,1052.0353)">
      <g
         id="g7482"
         clip-path="url(#clipPath7484)">
        <path
           d="m 237.41,158.12 0,0 c -2.25,0 -4.36,0.9 -5.93,2.4 -1.58,1.58 -2.48,3.76 -2.48,6.08 0,5.1 3.38,8.55 8.41,8.55 4.87,0 8.32,-3.52 8.32,-8.55 0,-2.32 -0.82,-4.5 -2.32,-6.08 -1.5,-1.5 -3.68,-2.4 -6,-2.4 z m 0,19.36 0,0 c -3,0 -5.71,-1.05 -7.66,-3 -2.1,-1.95 -3.22,-4.73 -3.22,-7.88 0,-3.08 1.12,-5.85 3.22,-7.8 1.95,-1.95 4.66,-3 7.66,-3 2.92,0 5.7,1.05 7.65,3 2.02,1.95 3.15,4.72 3.15,7.8 0,3.15 -1.13,5.93 -3.15,7.88 -1.95,1.95 -4.73,3 -7.65,3 z"
           style="fill:#e8c27d;fill-opacity:1;fill-rule:nonzero;stroke:none"
           id="path7488"
           inkscape:connector-curvature="0" />
      </g>
    </g>
    <g
       id="g7490"
       transform="matrix(0.1777361,0,0,-0.1776015,0.40882303,1052.0353)">
      <g
         id="g7492"
         clip-path="url(#clipPath7494)">
        <path
           d="m 281.81,166.68 0,0 -6.15,0 c -0.22,0 -0.37,-0.15 -0.37,-0.38 l 0,-1.35 c 0,-0.22 0.15,-0.45 0.37,-0.45 l 4.13,0 0,-2.85 c -1.28,-2.25 -3.9,-3.53 -6.98,-3.53 -2.48,0 -4.73,0.83 -6.23,2.33 -1.65,1.5 -2.47,3.6 -2.47,6 0,5.18 3.37,8.7 8.25,8.7 3,0 5.55,-1.42 7.13,-3.9 0.15,-0.22 0.37,-0.3 0.52,-0.15 l 1.35,0.9 c 0.08,0.08 0.15,0.15 0.23,0.23 0,0.15 0,0.22 -0.08,0.37 -1.87,3.08 -5.25,4.88 -9.15,4.88 -3.08,0 -5.78,-1.05 -7.73,-3.08 -1.95,-1.95 -3,-4.8 -3,-7.87 0,-3.23 1.13,-6.01 3.15,-7.96 1.95,-1.8 4.73,-2.77 7.73,-2.77 4.13,0 7.65,1.95 9.53,5.17 0.15,0.15 0.15,0.23 0.15,0.38 l 0,4.95 c 0,0.23 -0.15,0.38 -0.38,0.38 z"
           style="fill:#e8c27d;fill-opacity:1;fill-rule:nonzero;stroke:none"
           id="path7498"
           inkscape:connector-curvature="0" />
      </g>
    </g>
    <g
       id="g7500"
       transform="matrix(0.1777361,0,0,-0.1776015,0.40882303,1052.0353)">
      <g
         id="g7502"
         clip-path="url(#clipPath7504)">
        <path
           d="m 317.82,177.18 0,0 -1.65,0 c -0.23,0 -0.38,-0.23 -0.38,-0.38 l 0,-16.88 -16.35,17.03 c -0.23,0.23 -0.3,0.23 -0.53,0.23 l -1.12,0 c -0.23,0 -0.38,-0.15 -0.38,-0.38 l 0,-20.33 c 0,-0.22 0.15,-0.37 0.38,-0.37 l 1.57,0 c 0.23,0 0.38,0.15 0.38,0.37 l 0,16.88 16.5,-17.03 c 0.15,-0.22 0.3,-0.22 0.53,-0.22 l 1.05,0 c 0.22,0 0.37,0.15 0.37,0.37 l 0,20.33 c 0,0.15 -0.15,0.38 -0.37,0.38 z"
           style="fill:#e8c27d;fill-opacity:1;fill-rule:nonzero;stroke:none"
           id="path7508"
           inkscape:connector-curvature="0" />
      </g>
    </g>
    <g
       id="g7510"
       transform="matrix(0.1777361,0,0,-0.1776015,0.40882303,1052.0353)">
      <g
         id="g7512"
         clip-path="url(#clipPath7514)">
        <path
           d="m 351.65,163.97 0,0 -12.46,0 6.23,10.36 6.23,-10.36 z m -5.03,12.98 0,0 c -0.15,0.15 -0.23,0.23 -0.45,0.23 l -1.35,0 c -0.23,0 -0.3,-0.08 -0.45,-0.23 l -12.3,-20.25 c 0,-0.15 -0.08,-0.23 -0.08,-0.3 0,-0.23 0.15,-0.3 0.3,-0.3 l 1.8,0 c 0.45,0 0.53,0.15 0.68,0.45 l 3.15,5.17 15.08,0 3.15,-5.17 0,0 c 0.15,-0.3 0.22,-0.45 0.67,-0.45 l 1.88,0 c 0.15,0 0.3,0.07 0.3,0.3 0,0.07 0,0.15 -0.08,0.3 l -12.3,20.25 z"
           style="fill:#e8c27d;fill-opacity:1;fill-rule:nonzero;stroke:none"
           id="path7518"
           inkscape:connector-curvature="0" />
      </g>
    </g>
    <g
       id="g7520"
       transform="matrix(0.1777361,0,0,-0.1776015,0.40882303,1052.0353)">
      <g
         id="g7522"
         clip-path="url(#clipPath7524)">
        <path
           d="m 390.28,162.17 0,0 -1.28,0.68 c -0.08,0.07 -0.15,0.07 -0.23,0.07 -0.15,0 -0.3,-0.07 -0.37,-0.22 -1.43,-3.08 -3.9,-4.58 -7.43,-4.58 -4.87,0 -8.32,3.45 -8.32,8.33 0,5.18 3.3,8.7 8.25,8.7 2.92,0 5.47,-1.42 7.05,-3.9 0.07,-0.15 0.22,-0.22 0.37,-0.22 0.08,0 0.15,0 0.23,0.07 l 1.28,0.9 c 0.15,0.08 0.22,0.15 0.22,0.23 0,0.15 0,0.22 -0.07,0.37 -1.88,3.08 -5.26,4.88 -9.16,4.88 -3,0 -5.77,-1.05 -7.72,-3.08 -1.95,-1.95 -3,-4.8 -3,-7.87 0,-3.23 1.12,-6.01 3.15,-7.96 1.95,-1.8 4.65,-2.77 7.57,-2.77 4.43,0 7.8,2.02 9.61,5.85 0.15,0.22 0.07,0.45 -0.15,0.52 z"
           style="fill:#e8c27d;fill-opacity:1;fill-rule:nonzero;stroke:none"
           id="path7528"
           inkscape:connector-curvature="0" />
      </g>
    </g>
    <g
       id="g7530"
       transform="matrix(0.1777361,0,0,-0.1776015,0.40882303,1052.0353)">
      <g
         id="g7532"
         clip-path="url(#clipPath7534)">
        <path
           d="m 18.527,90.008 0,0 -17.4769,0 c -0.14998,0 -0.37501,-0.15 -0.37501,-0.375 l 0,-20.404 c 0,-0.226 0.22503,-0.376 0.37501,-0.376 l 1.5752,0 c 0.1501,0 0.3751,0.15 0.3751,0.376 l 0,10.502 13.1266,0 c 0.225,0 0.375,0.225 0.375,0.45 l 0,1.35 c 0,0.225 -0.15,0.45 -0.375,0.45 l -13.1266,0 0,5.777 15.5266,0 c 0.225,0 0.375,0.225 0.375,0.45 l 0,1.35 c 0,0.225 -0.15,0.45 -0.375,0.45 z"
           style="fill:#e8c27d;fill-opacity:1;fill-rule:nonzero;stroke:none"
           id="path7538"
           inkscape:connector-curvature="0" />
      </g>
    </g>
    <g
       id="g7540"
       transform="matrix(0.1777361,0,0,-0.1776015,0.40882303,1052.0353)">
      <g
         id="g7542"
         clip-path="url(#clipPath7544)">
        <path
           d="m 39.455,70.954 0,0 c -2.25,0 -4.35,0.825 -5.926,2.4 -1.575,1.576 -2.475,3.751 -2.475,6.077 0,5.101 3.375,8.477 8.401,8.477 4.876,0 8.326,-3.451 8.326,-8.477 0,-2.401 -0.825,-4.576 -2.325,-6.077 -1.5,-1.575 -3.676,-2.4 -6.001,-2.4 z m 0,19.354 0,0 c -3,0 -5.701,-1.125 -7.726,-3 -2.025,-2.026 -3.15,-4.801 -3.15,-7.877 0,-3.076 1.125,-5.926 3.15,-7.877 2.025,-1.95 4.726,-3.001 7.726,-3.001 2.925,0 5.626,1.051 7.651,3.001 2.025,1.951 3.15,4.801 3.15,7.877 0,3.076 -1.125,5.851 -3.15,7.877 -2.025,1.875 -4.726,3 -7.651,3 z"
           style="fill:#e8c27d;fill-opacity:1;fill-rule:nonzero;stroke:none"
           id="path7548"
           inkscape:connector-curvature="0" />
      </g>
    </g>
    <g
       id="g7550"
       transform="matrix(0.1777361,0,0,-0.1776015,0.40882303,1052.0353)">
      <g
         id="g7552"
         clip-path="url(#clipPath7554)">
        <path
           d="m 84.086,90.008 0,0 -1.65,0 c -0.225,0 -0.375,-0.225 -0.375,-0.45 l 0,-16.879 -16.353,17.104 c -0.225,0.15 -0.3,0.225 -0.525,0.225 l -1.125,0 c -0.225,0 -0.375,-0.225 -0.375,-0.45 l 0,-20.254 c 0,-0.225 0.15,-0.451 0.375,-0.451 l 1.575,0 c 0.225,0 0.375,0.226 0.375,0.451 l 0,16.803 16.503,-17.028 c 0.15,-0.151 0.3,-0.226 0.525,-0.226 l 1.05,0 c 0.225,0 0.375,0.226 0.375,0.451 l 0,20.254 c 0,0.225 -0.15,0.45 -0.375,0.45 z"
           style="fill:#e8c27d;fill-opacity:1;fill-rule:nonzero;stroke:none"
           id="path7558"
           inkscape:connector-curvature="0" />
      </g>
    </g>
    <g
       id="g7560"
       transform="matrix(0.1777361,0,0,-0.1776015,0.40882303,1052.0353)">
      <g
         id="g7562"
         clip-path="url(#clipPath7564)">
        <path
           d="m 110.41,71.104 0,0 -8.02,0 0,16.654 6.97,0 c 3,0 5.18,-0.6 6.6,-1.876 1.58,-1.35 2.33,-3.375 2.33,-6.226 0,-2.851 -0.75,-5.101 -2.33,-6.527 -1.35,-1.35 -3.3,-2.025 -5.55,-2.025 z m -1.05,18.904 0,0 -8.92,0 c -0.23,0 -0.452,-0.15 -0.452,-0.375 l 0,-20.404 c 0,-0.226 0.222,-0.376 0.452,-0.376 l 9.97,0 c 2.85,0 5.48,0.976 7.28,2.776 2.03,1.876 3.15,4.651 3.15,8.027 0,6.676 -4.13,10.352 -11.48,10.352 z"
           style="fill:#e8c27d;fill-opacity:1;fill-rule:nonzero;stroke:none"
           id="path7568"
           inkscape:connector-curvature="0" />
      </g>
    </g>
    <g
       id="g7570"
       transform="matrix(0.1777361,0,0,-0.1776015,0.40882303,1052.0353)">
      <g
         id="g7572"
         clip-path="url(#clipPath7574)">
        <path
           d="m 152.57,90.008 0,0 -17.48,0 c -0.15,0 -0.37,-0.15 -0.37,-0.375 l 0,-20.404 c 0,-0.226 0.22,-0.376 0.37,-0.376 l 17.48,0 c 0.22,0 0.37,0.226 0.37,0.451 l 0,1.35 c 0,0.225 -0.15,0.45 -0.37,0.45 l -15.53,0 0,8.627 13.13,0 c 0.22,0 0.37,0.225 0.37,0.45 l 0,1.35 c 0,0.225 -0.15,0.45 -0.37,0.45 l -13.13,0 0,5.777 15.53,0 c 0.22,0 0.37,0.225 0.37,0.45 l 0,1.35 c 0,0.225 -0.15,0.45 -0.37,0.45 z"
           style="fill:#e8c27d;fill-opacity:1;fill-rule:nonzero;stroke:none"
           id="path7578"
           inkscape:connector-curvature="0" />
      </g>
    </g>
    <g
       id="g7580"
       transform="matrix(0.1777361,0,0,-0.1776015,0.40882303,1052.0353)">
      <g
         id="g7582"
         clip-path="url(#clipPath7584)">
        <path
           d="m 142.07,92.034 0,0 0.15,-0.45 c 0.07,-0.075 0.07,-0.225 0.3,-0.225 0,0 0.07,0 0.07,0.075 0.08,0 0.08,0 0.15,0 l 6.68,2.025 c 0.3,0.075 0.45,0.225 0.45,0.525 0,0.075 -0.08,0.15 -0.08,0.225 l -0.45,1.05 c -0.07,0.3 -0.3,0.451 -0.52,0.451 -0.08,0 -0.23,0 -0.38,-0.076 l -6.22,-3.075 c -0.15,-0.075 -0.23,-0.15 -0.23,-0.3 0,-0.075 0.08,-0.075 0.08,-0.15 0,0 0,-0.075 0,-0.075 z"
           style="fill:#e8c27d;fill-opacity:1;fill-rule:nonzero;stroke:none"
           id="path7588"
           inkscape:connector-curvature="0" />
      </g>
    </g>
    <g
       id="g7590"
       transform="matrix(0.1777361,0,0,-0.1776015,0.40882303,1052.0353)">
      <g
         id="g7592"
         clip-path="url(#clipPath7594)">
        <path
           d="m 185.5,90.008 0,0 -17.48,0 c -0.22,0 -0.45,-0.15 -0.45,-0.375 l 0,-20.404 c 0,-0.226 0.23,-0.376 0.45,-0.376 l 17.48,0 c 0.22,0 0.37,0.226 0.37,0.451 l 0,1.35 c 0,0.225 -0.15,0.45 -0.37,0.45 l -15.53,0 0,8.627 13.05,0 c 0.3,0 0.38,0.225 0.38,0.45 l 0,1.35 c 0,0.225 -0.08,0.45 -0.3,0.45 l -13.13,0 0,5.777 15.53,0 c 0.22,0 0.37,0.225 0.37,0.45 l 0,1.35 c 0,0.225 -0.15,0.45 -0.37,0.45 z"
           style="fill:#e8c27d;fill-opacity:1;fill-rule:nonzero;stroke:none"
           id="path7598"
           inkscape:connector-curvature="0" />
      </g>
    </g>
    <g
       id="g7600"
       transform="matrix(0.1777361,0,0,-0.1776015,0.40882303,1052.0353)">
      <g
         id="g7602"
         clip-path="url(#clipPath7604)">
        <path
           d="m 412.03,90.008 0,0 -17.48,0 c -0.22,0 -0.45,-0.15 -0.45,-0.375 l 0,-20.329 c 0,-0.301 0.23,-0.376 0.45,-0.376 l 17.48,0 c 0.22,0 0.37,0.151 0.37,0.376 l 0,1.35 c 0,0.225 -0.15,0.45 -0.37,0.45 l -15.53,0 0,8.702 13.05,0 c 0.3,0 0.38,0.225 0.38,0.375 l 0,1.425 c 0,0.15 -0.08,0.375 -0.3,0.375 l -13.13,0 0,5.852 15.53,0 c 0.22,0 0.37,0.15 0.37,0.375 l 0,1.35 c 0,0.225 -0.15,0.45 -0.37,0.45 z"
           style="fill:#e8c27d;fill-opacity:1;fill-rule:nonzero;stroke:none"
           id="path7608"
           inkscape:connector-curvature="0" />
      </g>
    </g>
    <g
       id="g7610"
       transform="matrix(0.1777361,0,0,-0.1776015,0.40882303,1052.0353)">
      <g
         id="g7612"
         clip-path="url(#clipPath7614)">
        <path
           d="m 449.76,90.008 0,0 -1.65,0 c -0.23,0 -0.38,-0.225 -0.38,-0.45 l 0,-16.804 -16.35,17.029 c -0.22,0.15 -0.3,0.225 -0.6,0.225 l -1.12,0 c -0.15,0 -0.3,-0.15 -0.3,-0.45 l 0,-20.254 c 0,-0.225 0.15,-0.376 0.37,-0.376 l 1.5,0 c 0.3,0 0.45,0.151 0.45,0.376 l 0,16.878 16.5,-17.028 c 0.15,-0.226 0.3,-0.226 0.53,-0.226 l 1.05,0 c 0.22,0 0.37,0.151 0.37,0.376 l 0,20.254 c 0,0.225 -0.15,0.45 -0.37,0.45 z"
           style="fill:#e8c27d;fill-opacity:1;fill-rule:nonzero;stroke:none"
           id="path7618"
           inkscape:connector-curvature="0" />
      </g>
    </g>
    <g
       id="g7620"
       transform="matrix(0.1777361,0,0,-0.1776015,0.40882303,1052.0353)">
      <g
         id="g7622"
         clip-path="url(#clipPath7624)">
        <path
           d="m 492.89,90.008 0,0 -5.63,0 c -0.22,0 -0.37,-0.225 -0.37,-0.45 l 0,-1.35 c 0,-0.225 0.15,-0.375 0.37,-0.375 l 3.68,0 0,-18.529 c 0,-0.301 0.22,-0.376 0.45,-0.376 l 1.5,0 c 0.22,0 0.45,0.075 0.45,0.376 l 0,20.329 c 0,0.225 -0.23,0.375 -0.45,0.375 z"
           style="fill:#e8c27d;fill-opacity:1;fill-rule:nonzero;stroke:none"
           id="path7628"
           inkscape:connector-curvature="0" />
      </g>
    </g>
    <g
       id="g7630"
       transform="matrix(0.1777361,0,0,-0.1776015,0.40882303,1052.0353)">
      <g
         id="g7632"
         clip-path="url(#clipPath7634)">
        <path
           d="m 525.67,90.083 0,0 -15.98,0 c -0.3,0 -0.37,-0.225 -0.37,-0.45 l 0,-1.35 c 0,-0.225 0.07,-0.45 0.37,-0.45 l 13.5,0 -10.5,-18.529 c -0.15,-0.15 -0.15,-0.225 -0.15,-0.301 0,-0.225 0.23,-0.375 0.38,-0.375 l 1.87,0 c 0.15,0 0.3,0.225 0.38,0.3 l 10.72,19.055 c 0.08,0.225 0.15,0.375 0.15,0.675 l 0,0.975 c 0,0.225 -0.15,0.45 -0.37,0.45 z"
           style="fill:#e8c27d;fill-opacity:1;fill-rule:nonzero;stroke:none"
           id="path7638"
           inkscape:connector-curvature="0" />
      </g>
    </g>
    <g
       id="g7640"
       transform="matrix(0.1777361,0,0,-0.1776015,0.40882303,1052.0353)">
      <g
         id="g7642"
         clip-path="url(#clipPath7644)">
        <path
           d="m 546.67,90.008 0,0 -5.63,0 c -0.22,0 -0.37,-0.225 -0.37,-0.45 l 0,-1.35 c 0,-0.225 0.15,-0.375 0.37,-0.375 l 3.68,0 0,-18.529 c 0,-0.301 0.23,-0.376 0.38,-0.376 l 1.57,0 c 0.15,0 0.38,0.075 0.38,0.376 l 0,20.329 c 0,0.225 -0.23,0.375 -0.38,0.375 z"
           style="fill:#e8c27d;fill-opacity:1;fill-rule:nonzero;stroke:none"
           id="path7648"
           inkscape:connector-curvature="0" />
      </g>
    </g>
    <g
       id="g7650"
       transform="matrix(0.1777361,0,0,-0.1776015,0.40882303,1052.0353)">
      <g
         id="g7652"
         clip-path="url(#clipPath7654)">
        <path
           d="m 579.37,81.531 0,0 c -1.35,1.201 -3.37,1.876 -5.62,1.876 -2.4,0 -4.05,-0.825 -4.88,-1.351 l 0,5.627 11.4,0 c 0.23,0 0.38,0.225 0.38,0.375 l 0,1.425 c 0,0.15 -0.15,0.375 -0.38,0.375 l -13.35,0 c -0.15,0 -0.37,-0.15 -0.37,-0.375 l 0,-9.602 c 0,-0.3 0.22,-0.375 0.37,-0.375 l 1.35,0 c 0.23,0 0.3,0 0.45,0.15 0,0 0,0.075 0.08,0.075 1.2,0.975 2.77,1.425 4.72,1.425 3.98,0 5.78,-2.625 5.78,-5.251 0,-3.301 -2.1,-5.251 -5.63,-5.251 -3.07,0 -4.87,1.2 -6,3.901 -0.07,0.15 -0.15,0.225 -0.3,0.225 -0.07,0 -0.15,0 -0.22,0 l -1.43,-0.45 c -0.15,-0.075 -0.3,-0.15 -0.3,-0.375 0,-0.525 0.83,-2.401 2.18,-3.601 1.27,-1.2 3.52,-1.876 6,-1.876 2.47,0 4.5,0.751 6,2.176 1.42,1.35 2.17,3.226 2.17,5.326 0,2.326 -0.82,4.201 -2.4,5.551 z"
           style="fill:#e8c27d;fill-opacity:1;fill-rule:nonzero;stroke:none"
           id="path7658"
           inkscape:connector-curvature="0" />
      </g>
    </g>
    <g
       id="g7660"
       transform="matrix(0.1777361,0,0,-0.1776015,0.40882303,1052.0353)">
      <g
         id="g7662"
         clip-path="url(#clipPath7664)">
        <path
           d="m 343.17,419.48 0,0 c -22.13,-7.05 -38.18,-8.17 -57.23,-8.55 19.27,1.43 34.95,4.88 55.8,11.7 7.95,2.63 16.58,6.76 23.56,10.43 5.4,2.85 10.65,5.55 14.25,6.68 -1.95,-1.13 -4.35,-2.7 -7.43,-4.73 -7.95,-5.17 -18.75,-12.23 -28.95,-15.53 z m 14.03,-8.17 0,0 c -1.28,-3.23 -3.98,-6.08 -7.96,-8.33 2.33,1.87 4.13,4.95 5.03,7.43 1.8,5.1 0,8.77 -1.2,10.5 1.13,0.52 2.18,1.12 3.3,1.65 0.9,-1.8 2.7,-6.45 0.83,-11.25 z m -7.58,-1.88 0,0 c 1.35,4.13 -0.23,7.28 -1.43,9.3 1.28,0.53 2.56,1.05 3.76,1.65 1.12,-1.65 2.7,-5.4 0.45,-9.82 -1.5,-2.93 -3.98,-5.86 -8.03,-8.03 2.17,1.8 4.57,4.58 5.25,6.9 z m -4.73,-0.75 0,0 c 0.9,3.68 -0.52,6.23 -1.8,8.25 0.3,0.08 0.53,0.15 0.83,0.23 1.05,0.37 2.1,0.75 3.07,1.12 1.05,-1.72 2.63,-5.17 0.68,-9.07 -1.28,-2.56 -4.05,-4.81 -7.58,-6.76 1.73,1.58 4.28,4.2 4.8,6.23 z m -9,-6.3 0,0 c 2.03,1.65 4.28,4.95 4.35,7.05 0.15,3.08 -0.6,4.35 -1.72,6.08 1.12,0.37 2.25,0.67 3.45,1.05 1.05,-1.73 2.47,-4.88 0.9,-8.03 -1.13,-2.18 -3.9,-4.43 -6.98,-6.15 z m -3.3,-0.23 0,0 c 0.98,1.2 2.85,3.3 3.15,5.56 0.45,2.92 -0.75,4.95 -2.02,6.52 1.2,0.3 2.32,0.6 3.52,0.9 0.98,-1.2 2.1,-3.45 1.28,-6.07 -0.6,-1.95 -3.45,-5.41 -5.93,-6.91 z m -2.92,0.15 0,0 c 1.05,1.2 1.95,4.2 1.87,5.41 -0.22,2.62 -1.27,4.12 -2.55,5.32 1.13,0.3 2.25,0.53 3.45,0.83 1.05,-1.13 2.63,-3.38 1.8,-6.38 -0.45,-1.5 -2.7,-3.9 -4.57,-5.18 z m -6,9.61 0,0 c 1.27,0.22 2.55,0.52 3.82,0.82 1.2,-0.82 2.55,-2.1 2.55,-5.1 0,-1.65 -0.97,-3.53 -1.87,-4.58 0,0.15 0,0.3 0,0.45 0,4.21 -2.85,7.13 -4.5,8.41 z m -48.23,0.37 0,0 c 2.4,0 4.65,0.15 6.75,0.38 20.92,2.1 32.03,6.45 54.15,13.95 5.4,1.87 14.26,5.55 19.21,7.73 8.62,3.82 17.47,7.27 22.57,7.5 -3.67,-1.2 -8.85,-4.43 -14.47,-7.35 -6.83,-3.6 -14.48,-7.66 -22.28,-10.36 -21.38,-7.42 -39.83,-10.72 -60.68,-11.92 -1.95,-0.08 -3.53,-0.08 -5.25,0.07 z m 5.77,2.63 0,0 c 20.7,3 48.23,15 65.63,21.53 12.38,4.65 22.21,8.77 29.41,7.65 -5.4,-0.75 -14.1,-4.5 -22.2,-8.1 -4.96,-2.25 -10.73,-5.03 -16.06,-6.98 -20.1,-7.58 -37.5,-12.75 -58.13,-14.78 -2.32,-0.22 -4.2,-0.15 -6.37,0 2.77,0.08 5.32,0.3 7.72,0.68 z m -1.05,2.25 0,0 c 7.58,1.35 17.33,4.27 24.68,6.9 -0.08,-0.68 -0.23,-1.28 -0.45,-1.73 -8.4,-2.47 -16.95,-4.5 -25.5,-5.7 -2.03,-0.3 -3.83,-0.3 -5.7,-0.3 2.47,0.15 4.8,0.38 6.97,0.83 z m 1.95,22.73 0,0 c 3.68,-0.53 7.13,-1.13 10.43,-1.88 7.95,-1.8 16.27,-3.37 18.22,-8.02 0.98,-2.41 0.6,-4.73 0.38,-5.56 -1.35,-0.45 -2.7,-0.9 -4.13,-1.27 0.45,1.2 0.53,2.55 -0.15,4.5 -1.95,5.18 -12.75,10.35 -24.75,12.23 z m 30.08,-8.93 0,0 c -1.88,5.25 -10.13,7.5 -18.98,9.45 -3.52,0.75 -7.12,1.43 -11.02,1.95 4.42,-0.22 8.7,-0.6 13.05,-1.12 9.22,-1.13 19.95,-3.23 21.6,-8.93 0.83,-2.77 0.68,-4.73 0.38,-5.78 -1.5,-0.52 -3,-1.05 -4.5,-1.57 0.22,1.5 0.6,2.92 -0.53,6 z m -14.25,13.58 0,0 c 10.5,-0.6 19.95,-1.95 23.63,-7.2 2.55,-3.6 1.95,-7.58 1.8,-8.48 -1.65,-0.68 -3,-1.2 -3.6,-1.43 -0.38,-0.07 -0.68,-0.22 -1.05,-0.37 0.15,0.6 0.22,2.02 0,3.68 -0.75,5.55 -3.83,10.65 -23.03,12.97 -4.58,0.53 -9,0.9 -13.58,1.13 5.18,0.07 10.35,0 15.83,-0.3 z m 2.62,3.22 0,0 c 11.93,0 22.96,-1.95 26.63,-7.05 2.7,-3.75 2.33,-8.1 2.1,-9.52 -1.57,-0.6 -3.07,-1.2 -4.42,-1.73 0.3,1.58 0.45,5.18 -2.1,9.23 -3.38,5.4 -13.06,7.65 -24.61,8.32 -5.4,0.23 -10.57,0.3 -15.67,0.3 5.77,0.3 11.7,0.53 18.07,0.45 z m 2.63,3.3 0,0 c 13.28,0.46 24.98,-1.35 29.4,-6.9 3.38,-4.2 2.7,-9.3 2.4,-10.65 -1.42,-0.6 -2.85,-1.12 -4.27,-1.72 0.37,1.95 0.6,6.15 -2.4,10.35 -4.2,5.85 -14.7,8.02 -27.61,8.1 -6.3,0.07 -12.15,-0.15 -17.85,-0.45 6.38,0.6 13.05,1.05 20.33,1.27 z m 2.62,3.31 0,0 c 14.86,0.9 26.56,-0.83 31.81,-6.83 3.9,-4.5 3.15,-10.13 2.77,-11.85 -1.2,-0.45 -2.55,-1.05 -3.97,-1.58 0.37,2.18 0.75,7.13 -2.78,11.63 -5.02,6.23 -16.12,8.25 -30.38,7.8 -7.05,-0.22 -13.5,-0.67 -19.65,-1.2 6.9,0.83 14.18,1.5 22.2,2.03 z m 2.63,3.22 0,0 c 16.28,1.43 28.8,-0.22 34.8,-6.68 4.43,-4.8 3.3,-11.02 2.93,-12.82 -0.23,-0.08 -0.45,-0.23 -0.68,-0.3 -0.45,-0.15 -1.72,-0.68 -3.52,-1.43 0.37,2.1 0.3,6.53 -1.05,9.38 -3,6 -11.18,12.53 -35.11,11.03 -7.8,-0.45 -14.77,-1.13 -21.45,-1.88 7.43,1.05 15.3,1.95 24.08,2.7 z m 2.62,3.3 0,0 c 17.71,1.88 30.68,0.15 37.36,-6.82 4.73,-5.03 4.05,-11.26 3.6,-13.58 -1.42,-0.6 -2.85,-1.13 -4.28,-1.73 0.53,2.55 1.13,8.7 -3.6,13.81 -6.45,6.97 -18.67,8.92 -35.78,7.5 -8.32,-0.68 -15.75,-1.58 -22.8,-2.55 7.8,1.2 16.13,2.4 25.5,3.37 z m 63.31,-14.18 0,0 c -5.62,0.08 -12.3,-2.17 -19.87,-5.17 0.22,0.82 0.45,2.02 0.45,3.45 7.65,2.4 14.25,3.37 19.42,1.72 z m 12.98,-6.37 0,0 c 0,0 -2.7,2.1 -4.28,3.82 -7.57,7.28 -16.8,7.13 -28.27,3.45 -0.38,2.55 -1.35,5.33 -3.6,8.03 -6.68,7.95 -21.76,9.53 -40.29,7.73 -16.95,-1.8 -30.6,-4.2 -43.88,-6.53 -21.52,-3.75 -40.13,-6.98 -64.73,-5.93 14.4,-3.22 30.53,-6 43.28,-7.87 43.81,-3.6 57.08,-11.4 58.96,-16.28 0,-0.08 0,-0.15 0.07,-0.23 -7.35,-2.62 -17.17,-6.6 -24.9,-6.97 -32.78,-1.65 -83.33,16.35 -83.33,16.35 0,0 20.17,-8.78 29.32,-11.48 9.16,-2.62 38.03,-11.17 38.03,-11.17 -5.32,-0.6 -36.9,-2.85 -52.5,-5.1 25.28,0.9 33.08,0.6 57.68,0.75 l 4.13,0 c 18.52,0.07 31.8,-0.23 47.25,2.4 l -0.07,0 c 2.02,-0.9 5.4,-3.68 5.4,-7.13 0,-1.73 -4.65,-4.95 -8.03,-6.3 -5.4,-2.25 -29.63,-9.6 -30.68,-9.83 0,0 38.93,4.8 51.16,8.03 11.62,3 18.83,7.8 21.38,14.33 2.25,5.85 0.15,11.17 -0.98,13.35 5.48,3 10.65,6.38 15,9.23 4.58,3 12.68,7.57 13.88,7.35 z"
           style="fill:#e8c27d;fill-opacity:1;fill-rule:nonzero;stroke:none"
           id="path7668"
           inkscape:connector-curvature="0" />
      </g>
    </g>
  </g>
</svg>
