<?xml version="1.0" encoding="UTF-8"?>
<svg version="1.1" xmlns="http://www.w3.org/2000/svg" width="64" height="64">
<path d="M0 0 C21.12 0 42.24 0 64 0 C64 21.12 64 42.24 64 64 C42.88 64 21.76 64 0 64 C0 42.88 0 21.76 0 0 Z " fill="#FDFDFD" transform="translate(0,0)"/>
<path d="M0 0 C1.65 0 3.3 0 5 0 C11.06337655 11.82936679 16.62673188 23.84260566 22 36 C22.37286133 35.19369141 22.74572266 34.38738281 23.12988281 33.55664062 C24.53043769 30.5294947 25.93209526 27.50286429 27.33447266 24.4765625 C27.93809687 23.17337807 28.54129683 21.86999703 29.14404297 20.56640625 C32.33638227 13.66290633 35.5434555 6.77619615 39 0 C40.65 0 42.3 0 44 0 C44 13.53 44 27.06 44 41 C42.68 41 41.36 41 40 41 C39.67 30.44 39.34 19.88 39 9 C38.04738281 11.22621094 37.09476563 13.45242187 36.11328125 15.74609375 C35.17782617 17.89599929 34.23586001 20.04293713 33.29321289 22.18969727 C32.64148517 23.68346304 31.99657078 25.18022072 31.35864258 26.67993164 C30.44045092 28.83522068 29.49829495 30.97856303 28.55078125 33.12109375 C28.27035477 33.79401962 27.98992828 34.4669455 27.70100403 35.16026306 C26.8527832 37.04077148 26.8527832 37.04077148 25 40 C22.27807617 40.92993164 22.27807617 40.92993164 20 41 C14.59492199 30.49387961 9.74458832 19.82099091 5 9 C4.67 19.56 4.34 30.12 4 41 C2.68 41 1.36 41 0 41 C0 27.47 0 13.94 0 0 Z " fill="#161818" transform="translate(10,11)"/>
<path d="M0 0 C1.65 0 3.3 0 5 0 C5 13.53 5 27.06 5 41 C4.01 41 3.02 41 2 41 C1.505 23.675 1.505 23.675 1 6 C0.01 6 -0.98 6 -2 6 C-1.125 1.125 -1.125 1.125 0 0 Z " fill="#050808" transform="translate(49,11)"/>
<path d="M0 0 C1.65 0 3.3 0 5 0 C5 11.88 5 23.76 5 36 C4.67 36 4.34 36 4 36 C3.67 25.44 3.34 14.88 3 4 C0.90179671 9.16768902 0.90179671 9.16768902 -1.15698242 14.35107422 C-3.39850454 19.66879137 -3.39850454 19.66879137 -6.73828125 21.5078125 C-7.85783203 21.75144531 -7.85783203 21.75144531 -9 22 C-7.45173401 17.04242102 -5.48219062 12.36189599 -3.375 7.625 C-2.88773438 6.52091797 -2.88773438 6.52091797 -2.390625 5.39453125 C-1.59615497 3.59529031 -0.79841229 1.79749504 0 0 Z " fill="#313333" transform="translate(46,16)"/>
</svg>
