<?xml version="1.0" encoding="UTF-8"?>
<svg version="1.1" xmlns="http://www.w3.org/2000/svg" width="32" height="32">
<path d="M0 0 C3.11144592 2.88880221 4.25247088 5.09823091 4.53125 9.25 C4.54180555 10.83333241 4.53083897 12.41693275 4.5 14 C4.51546875 14.7940625 4.5309375 15.588125 4.546875 16.40625 C4.52039904 20.37764352 4.29622856 22.51688046 2.1796875 25.96875 C-0.77989137 28.72678049 -3.0048426 29.44894381 -7 30 C-11.23150655 28.53524773 -13.82726974 26.91341906 -16 23 C-16.4661222 20.0144004 -16.46415366 17.07921011 -16.4375 14.0625 C-16.45748047 13.26392578 -16.47746094 12.46535156 -16.49804688 11.64257812 C-16.49470007 7.60297907 -16.32375508 5.51182857 -14.1171875 2.0234375 C-9.38906766 -2.4953191 -5.99500046 -2.50700019 0 0 Z M-10.625 3.5 C-11.07875 3.995 -11.5325 4.49 -12 5 C-11.67 5.99 -11.34 6.98 -11 8 C-8.94009522 6.70532323 -8.94009522 6.70532323 -7 5 C-7 4.01 -7 3.02 -7 2 C-9.12364481 1.77390663 -9.12364481 1.77390663 -10.625 3.5 Z M-2 4 C-1.95875 4.94875 -1.9175 5.8975 -1.875 6.875 C-2 10 -2 10 -4 12 C-2.68 12 -1.36 12 0 12 C0 9.69 0 7.38 0 5 C-0.66 4.67 -1.32 4.34 -2 4 Z M-11 14 C-11 15.32 -11 16.64 -11 18 C-10.34 18 -9.68 18 -9 18 C-9.66 16.68 -10.32 15.36 -11 14 Z M-1 18 C0 20 0 20 0 20 Z M-8 19 C-7 21 -7 21 -7 21 Z M-12 20 C-11.67 21.32 -11.34 22.64 -11 24 C-10.34 24 -9.68 24 -9 24 C-9.33 22.68 -9.66 21.36 -10 20 C-10.66 20 -11.32 20 -12 20 Z M-5 21 C-4 24 -4 24 -4 24 Z " fill="#C2B5A1" transform="translate(22,2)"/>
<path d="M0 0 C0.33 0 0.66 0 1 0 C1 5.28 1 10.56 1 16 C0.67 16 0.34 16 0 16 C0 10.72 0 5.44 0 0 Z " fill="#C0B5A4" transform="translate(27,8)"/>
<path d="M0 0 C0.33 0 0.66 0 1 0 C1 5.28 1 10.56 1 16 C0.67 16 0.34 16 0 16 C0 10.72 0 5.44 0 0 Z " fill="#C0B7A4" transform="translate(4,8)"/>
<path d="M0 0 C0.33 0.66 0.66 1.32 1 2 C0.34 1.67 -0.32 1.34 -1 1 C-0.67 0.67 -0.34 0.34 0 0 Z " fill="#C3B7A2" transform="translate(12,6)"/>
<path d="" fill="#C3B7A2" transform="translate(0,0)"/>
<path d="" fill="#C2B5A1" transform="translate(0,0)"/>
<path d="" fill="#C3B7A2" transform="translate(0,0)"/>
<path d="" fill="#C2B5A1" transform="translate(0,0)"/>
<path d="" fill="#C3B7A2" transform="translate(0,0)"/>
<path d="" fill="#C2B5A1" transform="translate(0,0)"/>
<path d="" fill="#C3B7A2" transform="translate(0,0)"/>
<path d="" fill="#C0B79D" transform="translate(0,0)"/>
<path d="" fill="#C2B69F" transform="translate(0,0)"/>
<path d="" fill="#C2B69D" transform="translate(0,0)"/>
<path d="" fill="#C2B69F" transform="translate(0,0)"/>
<path d="" fill="#C5B49F" transform="translate(0,0)"/>
<path d="" fill="#C4B5A1" transform="translate(0,0)"/>
<path d="" fill="#C2B5A1" transform="translate(0,0)"/>
<path d="" fill="#C5B59D" transform="translate(0,0)"/>
<path d="" fill="#C3B7A0" transform="translate(0,0)"/>
<path d="" fill="#C2B5A1" transform="translate(0,0)"/>
<path d="" fill="#C3B6A4" transform="translate(0,0)"/>
<path d="" fill="#C2B69F" transform="translate(0,0)"/>
<path d="" fill="#C5B5A4" transform="translate(0,0)"/>
<path d="" fill="#C2B5A1" transform="translate(0,0)"/>
<path d="" fill="#C3B7A2" transform="translate(0,0)"/>
<path d="" fill="#C2B5A1" transform="translate(0,0)"/>
<path d="" fill="#C3B7A2" transform="translate(0,0)"/>
<path d="" fill="#C2B5A1" transform="translate(0,0)"/>
<path d="" fill="#C3B7A2" transform="translate(0,0)"/>
</svg>
