<svg width="29" height="28" viewBox="0 0 29 28" fill="none" xmlns="http://www.w3.org/2000/svg">
<path d="M15.1844 16.8032L15.1281 26.8971L13.4464 26.8873L13.4581 24.6833C12.9299 25.5125 12.324 26.13 11.6443 26.5398C10.9647 26.9495 10.2093 27.1514 9.37813 27.1456C8.77032 27.1417 8.1625 27.0446 7.55469 26.8563L7.57411 23.2153L9.19171 23.225L9.17812 25.53C9.46163 25.5805 9.68301 25.6057 9.84613 25.6057C10.4734 25.6096 11.0889 25.3649 11.6929 24.8756C12.2987 24.3843 12.8891 23.6464 13.4678 22.6618L13.5008 16.7974L15.1825 16.8071L15.1844 16.8032Z" fill="white"/>
<path d="M13.0019 16.4671L5.82468 23.5646L4.64206 22.3704L6.20917 20.8208C5.24988 21.0324 4.38379 21.0421 3.6148 20.8518C2.84581 20.6596 2.16809 20.2693 1.58358 19.677C1.15636 19.2439 0.795168 18.7468 0.5 18.1817L3.08854 15.6204L4.2265 16.77L2.58754 18.3895C2.7526 18.6245 2.89242 18.7993 3.00699 18.9158C3.4478 19.3605 4.05561 19.6246 4.83042 19.7061C5.60524 19.7877 6.54512 19.6828 7.65006 19.3954L11.8193 15.2709L13.0019 16.4651V16.4671Z" fill="white"/>
<path d="M11.6962 14.6847L1.6022 14.6284L1.61191 12.9467L3.81596 12.9584C2.98677 12.4302 2.36925 11.8243 1.95951 11.1447C1.54977 10.465 1.34781 9.7096 1.35364 8.87848C1.35752 8.27067 1.45462 7.66286 1.64298 7.05505L5.28404 7.07447L5.27433 8.69206L2.9693 8.67847C2.91881 8.96198 2.89356 9.18335 2.89356 9.34647C2.88968 9.9737 3.13436 10.5893 3.62371 11.1932C4.11501 11.7991 4.85293 12.3894 5.83747 12.9681L11.702 13.0011L11.6923 14.6827L11.6962 14.6847Z" fill="white"/>
<path d="M12.0332 12.5018L4.93555 5.32463L6.12981 4.14202L7.67945 5.70911C7.46778 4.74983 7.45807 3.88375 7.64838 3.11477C7.84062 2.34579 8.23094 1.66807 8.82322 1.08356C9.25626 0.656351 9.75339 0.295165 10.3185 0L12.8798 2.58852L11.7302 3.72646L10.1107 2.08752C9.87573 2.25258 9.70096 2.39239 9.58445 2.50696C9.13975 2.94777 8.87565 3.55557 8.79409 4.33038C8.71253 5.10519 8.8174 6.04506 9.1048 7.14999L13.2294 11.3192L12.0351 12.5018H12.0332Z" fill="white"/>
<path d="M13.8145 11.197L13.8708 1.10317L15.5524 1.11289L15.5408 3.31691C16.069 2.48773 16.6749 1.87021 17.3545 1.46048C18.0342 1.05074 18.7896 0.848789 19.6207 0.854615C20.2285 0.858498 20.8363 0.955596 21.4442 1.14396L21.4247 4.78498L19.8071 4.77526L19.8207 2.47026C19.5372 2.41977 19.3158 2.39452 19.1527 2.39452C18.5255 2.39064 17.9099 2.63532 17.306 3.12467C16.7001 3.61596 16.1098 4.35387 15.5311 5.33841L15.4981 11.2029L13.8164 11.1932L13.8145 11.197Z" fill="white"/>
<path d="M15.998 11.533L23.1753 4.43542L24.3579 5.62968L22.7908 7.1793C23.7501 6.96763 24.6162 6.95792 25.3852 7.14823C26.1542 7.34047 26.8319 7.73079 27.4164 8.32306C27.8436 8.7561 28.2048 9.25322 28.5 9.81831L25.9114 12.3796L24.7735 11.23L26.4124 9.61052C26.2474 9.37556 26.1076 9.20079 25.993 9.08428C25.5522 8.63959 24.9444 8.37549 24.1695 8.29393C23.3947 8.21237 22.4548 8.31723 21.3499 8.60463L17.1807 12.7292L15.998 11.5349V11.533Z" fill="white"/>
<path d="M17.3037 13.3157L27.3977 13.372L27.3879 15.0536L25.1839 15.042C26.0131 15.5702 26.6306 16.1761 27.0403 16.8557C27.4501 17.5354 27.652 18.2908 27.6462 19.1219C27.6423 19.7297 27.5452 20.3375 27.3569 20.9453L23.7158 20.9259L23.7255 19.3083L26.0306 19.3219C26.081 19.0384 26.1063 18.817 26.1063 18.6539C26.1102 18.0267 25.8655 17.4111 25.3761 16.8072C24.8848 16.2013 24.1469 15.611 23.1624 15.0323L17.2979 14.9993L17.3076 13.3176L17.3037 13.3157Z" fill="white"/>
<path d="M16.9677 15.4982L24.0653 22.6753L22.8711 23.8579L21.3214 22.2909C21.5331 23.2501 21.5428 24.1162 21.3525 24.8852C21.1602 25.6542 20.7699 26.3319 20.1776 26.9164C19.7446 27.3436 19.2475 27.7048 18.6824 28L16.121 25.4114L17.2706 24.2735L18.8902 25.9125C19.1251 25.7474 19.2999 25.6076 19.4164 25.493C19.8611 25.0522 20.1252 24.4444 20.2068 23.6696C20.2883 22.8948 20.1835 21.9549 19.8961 20.85L15.7715 16.6808L16.9657 15.4982H16.9677Z" fill="white"/>
</svg>
